<ttFont>
          <CharString index="0">
            -105 callgsubr
            17 294 41 35 45 215 callgsubr
            return
          </CharString>
          <CharString index="1">
            16 -106 callgsubr
          </CharString>
          <CharString index="2">
            hlineto
            -106 callsubr
          </CharString>
          <CharString index="3">
            286 callsubr
            -65 -101 -72 -110 -21 -15 11 -15 12 -14 14 -61 80 callsubr
            -87 callsubr
            return
          </CharString>
          <CharString index="4">
            -82 callgsubr
            132 -105 callsubr
          </CharString>
          <CharString index="5">
            11 8 17 4 16 return
          </CharString>
          <CharString index="6">
            -62 callgsubr
            -7 -83 callsubr
            return
          </CharString>
          <CharString index="7">
            hlineto
            -101 callgsubr
            return
          </CharString>
          <CharString index="8">
            rmoveto
            -97 callgsubr
            return
          </CharString>
          <CharString index="9">
            -94 callgsubr
            16 -50 callsubr
            endchar
          </CharString>
          <CharString index="10">
            hlineto
            7 callgsubr
            -7 -30 rcurveline
            return
          </CharString>
          <CharString index="11">
            -59 callsubr
            2 -31 -1 -33 -4 -33 rlinecurve
            -72 -29 -71 -26 -56 -17 -37 -19 -9 -38 1 -48 29 -51 62 -45 62 -15 57 -6 76 18 33 39 43 102 32 178 7 137 rrcurveto
            return
          </CharString>
          <CharString index="12">
            43 54 32 48 37 38 12 -7 rcurveline
            -31 -54 -26 -56 -28 -67 -55 -4 -53 -19 -43 -29 3 -49 33 -36 56 -15 26 23 18 15 31 10 rrcurveto
            4 4 -4 -3 3 hvcurveto
            -8 -44 -50 -40 -66 -20 -81 37 -32 65 -21 73 -60 16 -53 -31 -29 -67 41 -77 130 -85 97 -1 rrcurveto
            111 1 169 98 80 vvcurveto
            17 -12 17 -19 15 vhcurveto
            26 103 23 71 38 95 -38 72 -76 22 -46 -18 192 callgsubr
            -43 15 -39 42 -6 41 72 49 122 54 58 46 -71 callgsubr
          </CharString>
          <CharString index="13">
            -99 callgsubr
            -20 -16 return
          </CharString>
          <CharString index="14">
            rmoveto
            -47 -44 -59 -52 -45 -91 callsubr
            return
          </CharString>
          <CharString index="15">
            -45 56 -28 hhcurveto
            -139 -140 -142 -127 -104 96 200 callgsubr
            hvcurveto
            10 callgsubr
            return
          </CharString>
          <CharString index="16">
            -80 callgsubr
            26 -14 25 -31 25 -34 rrcurveto
            return
          </CharString>
          <CharString index="17">
            31 rlinecurve
            24 -8 callgsubr
            return
          </CharString>
          <CharString index="18">
            rmoveto
            14 3 9 -279 -125 -1 rlineto
            280 28 rmoveto
            -18 191 22 167 -49 25 -132 11 -122 -53 rlinecurve
            -67 -219 -79 -152 -109 -1 -31 -40 0 -27 27 -28 rlinecurve
            67 7 -106 -205 23 -40 114 -18 62 35 rlinecurve
            91 245 16 2 128 8 -31 -236 60 -43 122 -10 44 34 rlinecurve
            -25 266 100 7 27 43 1 31 -23 20 rlinecurve
            return
          </CharString>
          <CharString index="19">
            203 callsubr
            289 hlineto
            35 -15 34 -14 21 -22 -4 -9 rcurveline
            -63 -25 -73 -12 -89 -12 -74 -44 -28 -77 30 -52 88 -33 99 -12 85 -29 2 -9 rcurveline
            -71 -41 -140 -17 -109 26 callsubr
            -40 31 -77 23 -106 14 -69 24 4 298 callgsubr
          </CharString>
          <CharString index="20">
            -73 callgsubr
            -89 24 -75 42 -73 282 callgsubr
            return
          </CharString>
          <CharString index="21">
            hlineto
            -31 53 -52 47 -60 14 -102 -8 -103 -85 -17 -76 10 -48 36 -46 44 -31 444 callgsubr
            118 callgsubr
            -15 13 -61 232 callsubr
            133 -113 132 -47 68 28 38 82 -37 -34 callgsubr
            12 -2 12 -3 12 vhcurveto
            return
          </CharString>
          <CharString index="22">
            -27 36 -50 4 -108 444 callsubr
            -142 -78 callgsubr
            -115 -515 239 callsubr
            69 63 callgsubr
            return
          </CharString>
          <CharString index="23">
            rmoveto
            -24 50 -55 10 -114 -16 -26 -78 -18 -90 -19 -108 -36 -53 -43 -42 -51 -49 -45 13 -19 15 -7 22 47 122 38 128 3 75 -41 55 -93 11 -72 -23 6 -82 1 -94 5 -71 -70 -157 rcurveline
            15 -60 49 -62 171 -20 58 63 44 48 38 51 12 -11 rcurveline
            -45 -103 62 -52 110 -11 43 37 rlinecurve
            268 callgsubr
            rrcurveto
            endchar
          </CharString>
          <CharString index="24">
            -13 18 -17 rcurveline
            return
          </CharString>
          <CharString index="25">
            -81 callsubr
            283 53 44 61 47 41 29 rlinecurve
            return
          </CharString>
          <CharString index="26">
            hlineto
            -87 callgsubr
            return
          </CharString>
          <CharString index="27">
            rmoveto
            -145 1 149 -172 128 hhcurveto
            171 209 221 185 -3 hvcurveto
            178 -3 -154 174 -109 hhcurveto
            -204 -185 -223 -218 hvcurveto
            484 55 rmoveto
            -30 -110 -74 -102 -101 -68 -59 59 -37 86 -1 95 rrcurveto
            116 84 144 114 75 vhcurveto
            71 -90 21 -93 12 -112 rrcurveto
            return
          </CharString>
          <CharString index="28">
            -27 36 -50 4 -109 444 callsubr
            18 callsubr
            131 134 callsubr
            70 63 callgsubr
            return
          </CharString>
          <CharString index="29">
            55 156 -76 callsubr
            return
          </CharString>
          <CharString index="30">
            -29 28 -50 11 return
          </CharString>
          <CharString index="31">
            92 85 vvcurveto
            18 -10 19 -18 18 vhcurveto
            return
          </CharString>
          <CharString index="32">
            rmoveto
            48 -57 24 -59 6 -85 -21 -82 -48 -61 -85 -51 -40 38 -26 56 -1 57 8 89 56 93 79 62 rrcurveto
            -316 -238 rmoveto
            -124 122 -120 103 162 172 165 141 -1 vhcurveto
            102 -2 -117 158 -102 hhcurveto
            -193 -144 -205 -117 hvcurveto
            return
          </CharString>
          <CharString index="33">
            -54 101 -11 return
          </CharString>
          <CharString index="34">
            rmoveto
            -21 -120 -28 -118 -24 -104 -43 86 rcurveline
            -52 185 -27 131 -32 144 rrcurveto
            13 -25 -17 7 -31 hhcurveto
            -42 -48 -8 -29 -59 hvcurveto
            -6 -185 -27 -164 -32 -140 -56 -173 rlinecurve
            21 -46 132 -20 57 39 12 148 14 142 10 130 41 143 rcurveline
            26 -165 48 -182 91 -199 50 -38 94 -17 67 38 13 159 14 149 10 113 90 289 rcurveline
            10 -22 -25 5 -30 hhcurveto
            -40 -51 -12 -25 -49 hvcurveto
            endchar
          </CharString>
          <CharString index="35">
            -67 callgsubr
            68 1 callgsubr
            return
          </CharString>
          <CharString index="36">
            507 callgsubr
            449 callsubr
            81 5 95 -10 32 rcurveline
            5 6 return
          </CharString>
          <CharString index="37">
            237 callgsubr
            37 21 23 -6 18 -10 13 -13 rrcurveto
            332 445 rmoveto
            -777 hlineto
            -15 -101 callsubr
            284 hlineto
            42 -23 34 -20 25 -34 -3 -9 rcurveline
            -81 -49 -127 -47 -104 -49 rrcurveto
            -32 -25 -20 -46 -52 vvcurveto
            44 -111 124 496 callgsubr
            98 201 247 callsubr
            -80 -55 -71 -49 rrcurveto
            -15 20 -9 20 18 vvcurveto
            52 194 61 92 65 vhcurveto
            34 37 19 41 -16 40 -25 19 -27 16 -29 15 rrcurveto
            346 hlineto
            15 -106 callgsubr
          </CharString>
          <CharString index="38">
            -103 callgsubr
            127 hlineto
            return
          </CharString>
          <CharString index="39">
            280 callsubr
            -18 30 39 16 40 17 41 17 -10 -39 -12 -37 -13 -30 rrcurveto
            return
          </CharString>
          <CharString index="40">
            -24 callgsubr
            15 -106 callgsubr
          </CharString>
          <CharString index="41">
            -103 callgsubr
            614 371 callsubr
            -65 -101 -72 -110 -21 -16 11 -14 12 -14 14 -33 -1 -28 -14 -20 -25 -145 30 -211 -8 -105 -66 59 callgsubr
            52 2 52 -5 49 -6 -2 -10 -2 -10 -1 -10 -73 callgsubr
            211 callgsubr
            return
          </CharString>
          <CharString index="42">
            -67 callgsubr
            67 55 157 63 callsubr
            return
          </CharString>
          <CharString index="43">
            -48 -20 -22 -50 -18 -74 -21 callgsubr
            -47 53 -30 41 -17 52 return
          </CharString>
          <CharString index="44">
            -100 callsubr
            196 hlineto
            -49 -77 -20 -74 -61 vvcurveto
            -4 -84 57 -115 54 -6 71 7 120 104 -1 117 2 57 0 66 -12 66 rrcurveto
            return
          </CharString>
          <CharString index="45">
            rmoveto
            -19 59 -62 73 -114 8 -80 -48 -57 -50 -53 -56 -10 15 rcurveline
            34 46 4 40 -1 19 -10 33 rlinecurve
            -51 8 -70 -6 -61 -52 33 -154 rcurveline
            -24 -95 -32 -101 -40 -107 26 -44 124 -20 62 39 13 104 9 90 4 91 56 55 45 38 54 28 23 -12 10 -16 6 -25 -23 -85 -30 -132 -10 -110 61 -52 106 -11 45 37 rrcurveto
            -13 92 -2 101 3 63 rrcurveto
            return
          </CharString>
          <CharString index="46">
            vvcurveto
            -84 92 51 callgsubr
            -68 331 callgsubr
            -65 294 callsubr
            -1 27 17 27 25 21 74 19 76 27 59 31 38 33 23 88 callgsubr
          </CharString>
          <CharString index="47">
            74 44 55 63 63 vvcurveto
            20 -19 25 -28 22 vhcurveto
            return
          </CharString>
          <CharString index="48">
            -81 callgsubr
            231 hlineto
            24 -83 return
          </CharString>
          <CharString index="49">
            hlineto
            -29 -33 callgsubr
            return
          </CharString>
          <CharString index="50">
            -145 -58 callsubr
            return
          </CharString>
          <CharString index="51">
            17 -17 rcurveline
            return
          </CharString>
          <CharString index="52">
            rmoveto
            267 callsubr
            -64 -63 -30 -44 -51 hvcurveto
            -31 38 -51 26 -72 -4 -48 callgsubr
            502 hlineto
            -51 -248 78 callgsubr
            -694 -26 -93 callsubr
            1328 280 245 callgsubr
            -507 -107 callgsubr
            32 31 -27 -39 12 hvcurveto
            -14 -29 -7 -30 -29 vvcurveto
            -104 96 -53 118 -1 vhcurveto
            50 47 callgsubr
            -42 -41 -46 -50 callgsubr
            395 hlineto
            15 -106 callgsubr
          </CharString>
          <CharString index="53">
            25 -15 21 -79 callgsubr
            return
          </CharString>
          <CharString index="54">
            67 -74 callsubr
            return
          </CharString>
          <CharString index="55">
            41 callgsubr
            3 53 -45 36 -75 -1 rrcurveto
            -28 -19 -24 -24 -20 -26 -35 -34 -49 -25 -40 182 callsubr
            rrcurveto
            175 callsubr
            178 callsubr
            21 1 21 6 21 8 rlinecurve
            -2 vlineto
            -106 83 -90 87 -23 vhcurveto
            449 callsubr
            81 5 95 -10 32 rcurveline
            5 6 29 -2 return
          </CharString>
          <CharString index="56">
            428 callgsubr
            -55 -52 -53 -10 -25 24 return
          </CharString>
          <CharString index="57">
            -102 callsubr
            rrcurveto
            return
          </CharString>
          <CharString index="58">
            rmoveto
            -30 -98 -71 -94 -2 -26 36 -15 35 1 rlinecurve
            196 172 -23 55 -55 17 -86 -12 rlinecurve
            return
          </CharString>
          <CharString index="59">
            -58 callgsubr
            -20 -16 return
          </CharString>
          <CharString index="60">
            rmoveto
            -673 -100 callsubr
            298 hlineto
            34 -14 30 -17 21 -22 -4 -8 rcurveline
            -58 -20 -87 -16 -77 -8 -73 -45 -29 -79 29 -50 90 -35 108 -10 72 -28 2 -9 rcurveline
            -28 -32 -64 -34 -52 -4 -26 12 -28 29 -15 21 -60 14 -54 -50 -31 -74 61 -70 58 -111 34 -91 88 -6 55 40 2 38 -37 60 -45 58 -51 46 8 8 rcurveline
            19 -13 29 -18 19 -7 90 5 102 46 42 46 41 76 -6 48 -39 26 -74 23 -120 16 -59 22 5 16 rcurveline
            68 9 90 18 59 24 186 callgsubr
            -15 9 rrcurveto
            230 hlineto
            15 -106 callgsubr
          </CharString>
          <CharString index="61">
            -7 -30 rcurveline
            return
          </CharString>
          <CharString index="62">
            -72 -29 -28 1 -42 29 6 -42 callgsubr
            return
          </CharString>
          <CharString index="63">
            rmoveto
            15 83 22 69 505 callsubr
            -65 -85 -57 -69 -45 rlinecurve
            return
          </CharString>
          <CharString index="64">
            rmoveto
            0 vlineto
            -49 -44 -57 -50 -47 -40 rrcurveto
            457 callgsubr
            return
          </CharString>
          <CharString index="65">
            346 callgsubr
            71 -18 24 -34 callsubr
            return
          </CharString>
          <CharString index="66">
            -50 153 -325 86 -1 69 -1 36 85 53 64 19 28 -30 24 -38 12 -73 107 -21 54 29 17 75 -43 77 -84 57 -111 13 -149 -16 -132 -79 -58 -123 rrcurveto
            30 -198 334 -50 -74 vvcurveto
            -61 -65 -52 -79 -17 vhcurveto
            -53 57 -28 48 -15 73 -99 31 -52 -58 -36 -70 return
          </CharString>
          <CharString index="67">
            -94 145 -34 9 -35 -14 -13 -25 rlinecurve
            111 -169 46 -25 66 8 57 23 rlinecurve
            return
          </CharString>
          <CharString index="68">
            -71 callsubr
            28 -2 return
          </CharString>
          <CharString index="69">
            rmoveto
            -15 -84 -54 -44 -65 -52 -59 -46 rlinecurve
            -29 19 -13 32 46 vvcurveto
            2 91 53 88 97 46 33 -20 27 -33 22 -44 rrcurveto
            -24 -203 rmoveto
            -41 -78 -11 -86 -7 -61 -23 -92 rlinecurve
            -11 -19 -29 -12 -28 1 -46 52 -17 38 -9 57 -60 36 -73 -26 -47 -74 23 -83 68 -62 111 -53 131 6 99 32 59 90 15 139 24 212 29 156 96 177 rcurveline
            -27 53 -50 12 -113 -21 -14 -24 -4 -32 -1 -45 -24 43 -32 44 -37 21 -211 -2 -143 -183 -2 -153 -2 -108 72 -88 167 -7 48 50 59 57 47 46 rrcurveto
            endchar
          </CharString>
          <CharString index="70">
            -35 121 -258 60 51 vvcurveto
            25 50 39 50 16 vhcurveto
            31 -31 13 -34 9 -46 93 -14 47 29 4 51 -32 65 -49 39 -92 16 -127 -7 -106 -70 -47 -112 40 -124 240 -58 1 -47 rrcurveto
            -35 -50 -40 -62 -15 vhcurveto
            -38 44 -14 28 -10 63 -81 27 -43 -50 -25 -60 return
          </CharString>
          <CharString index="71">
            rmoveto
            173 callsubr
            -85 -84 -48 -67 -54 hvcurveto
            61 -21 -38 53 -41 337 callgsubr
            -52 -19 -75 -29 -65 -4 rlinecurve
            -69 callgsubr
            680 hlineto
            -52 -248 -5 callsubr
            -362 -20 271 callsubr
            -5 -30 rcurveline
            -1123 hlineto
            -91 callgsubr
            129 19 169 83 94 81 20 -76 81 -45 109 -1 4 callsubr
            67 -54 101 -11 41 31 -102 callgsubr
          </CharString>
          <CharString index="72">
            -7 callsubr
            -45 -63 -26 -112 -24 callgsubr
            return
          </CharString>
          <CharString index="73">
            -16 callgsubr
            15 -10 return
          </CharString>
          <CharString index="74">
            -91 149 -117 126 -37 return
          </CharString>
          <CharString index="75">
            rmoveto
            -63 28 -29 41 -6 39 -5 172 callgsubr
            33 -24 16 211 callsubr
            479 522 rmoveto
            -732 246 callsubr
            35 -20 32 -24 20 -20 -4 301 callgsubr
            rrcurveto
            -66 -52 -39 -53 -67 vvcurveto
            -25 callgsubr
          </CharString>
          <CharString index="76">
            rmoveto
            -40 163 callsubr
            40 39 32 32 39 39 -32 32 -39 hvcurveto
            return
          </CharString>
          <CharString index="77">
            rmoveto
            -90 -53 -119 -31 -107 -4 rrcurveto
            76 -15 -47 82 -50 337 callgsubr
            -52 -19 -75 -29 -65 -4 rlinecurve
            -69 callgsubr
            674 hlineto
            -402 -243 271 callsubr
            -7 -30 rcurveline
            -1121 hlineto
            -91 callgsubr
            119 17 153 72 96 74 29 -68 65 -68 82 -59 327 callgsubr
            -33 -44 -57 -254 67 -54 101 -11 41 31 -102 callgsubr
          </CharString>
          <CharString index="78">
            rmoveto
            319 callgsubr
            137 hlineto
            12 -125 -21 -85 -43 -89 -38 -73 rlinecurve
            -2 -66 66 -47 96 -12 141 89 rcurveline
            15 -8 -1 -69 -23 -71 -33 -59 -62 -67 rlinecurve
            2 -56 50 -33 85 -1 77 116 47 140 1 140 -31 51 -65 34 -68 -12 -122 -74 rcurveline
            -13 8 52 104 37 130 15 135 rlinecurve
            159 hlineto
            14 -80 -4 -52 -17 -39 -31 -46 rlinecurve
            12 -32 42 -27 64 -6 62 88 26 100 -4 94 rrcurveto
            124 -105 callsubr
          </CharString>
          <CharString index="79">
            rmoveto
            -79 -47 -100 -29 -97 -9 -3 34 -13 34 -22 29 -25 39 -48 26 -68 -2 210 callgsubr
            557 hlineto
            -1019 -319 -44 callsubr
            1349 382 -99 callsubr
            -567 -81 callsubr
            284 52 42 59 43 44 34 rlinecurve
            23 -4 23 -14 11 -23 13 -20 7 -24 -2 -27 -14 -24 -10 -32 -9 -37 24 -75 69 -77 91 -65 327 callgsubr
            -32 -44 -58 -254 68 -54 101 -11 40 31 -102 callgsubr
          </CharString>
          <CharString index="80">
            rmoveto
            16 -73 83 -54 134 -16 45 41 34 35 36 42 14 -12 rcurveline
            -47 -88 -15 -76 -10 -65 -14 -82 rlinecurve
            -11 -15 -24 -7 -25 2 -40 43 -18 39 -14 66 -57 33 -71 -25 -51 -72 19 -76 68 -72 101 -45 134 -3 95 27 57 75 8 136 37 262 22 131 101 178 rcurveline
            -28 52 -51 12 -115 -20 -15 -56 -16 -97 -19 -122 -37 -48 -34 -32 -52 -40 -42 15 -15 16 -9 23 38 107 26 86 12 102 -52 57 -97 10 -63 -23 7 -80 5 -75 1 -82 rrcurveto
            endchar
          </CharString>
          <CharString index="81">
            -14 25 -31 25 -34 rrcurveto
            return
          </CharString>
          <CharString index="82">
            254 callgsubr
            -30 -16 -39 -15 -45 -12 -14 13 -14 10 -1 28 1 4 0 4 2 5 49 -18 rcurveline
            return
          </CharString>
          <CharString index="83">
            73 callgsubr
            -775 -10 callsubr
            -110 -101 -137 -60 -117 -40 98 callgsubr
            135 hlineto
            16 -50 callsubr
            endchar
          </CharString>
          <CharString index="84">
            -79 -73 -148 -85 -111 -40 53 callgsubr
            return
          </CharString>
          <CharString index="85">
            33 -47 56 -38 55 -14 184 callgsubr
            87 43 20 269 callsubr
            -88 -382 68 -74 callsubr
            40 255 callgsubr
          </CharString>
          <CharString index="86">
            469 callsubr
            -44 -103 -41 313 callgsubr
            35 127 44 380 callsubr
            -34 267 callgsubr
            -4 41 74 520 callgsubr
            58 42 rrcurveto
            42 10 callsubr
          </CharString>
          <CharString index="87">
            rmoveto
            34 46 4 42 0 19 -11 31 rlinecurve
            -52 9 -73 -11 -56 -48 33 -154 rcurveline
            -25 -95 -31 -101 -41 -107 27 -44 123 -20 62 39 15 108 8 94 4 95 41 40 35 30 28 27 8 -16 11 -25 -1 -28 55 -29 69 6 49 46 -4 105 -61 63 -82 17 rrcurveto
            -57 -56 -51 -50 -49 -50 rrcurveto
            endchar
          </CharString>
          <CharString index="88">
            -59 callsubr
            1 -18 0 -19 -1 -19 539 callgsubr
            -55 -17 -35 -19 -12 -42 -2 -41 25 -57 63 -45 77 -19 49 1 77 20 32 37 43 92 29 168 4 115 rrcurveto
            return
          </CharString>
          <CharString index="89">
            rmoveto
            -644 -100 callsubr
            133 hlineto
            520 callsubr
            36 -47 68 -21 rlinecurve
            32 44 52 22 41 hhcurveto
            20 16 -12 -13 7 hvcurveto
            -7 -69 -105 -72 -110 -19 -14 12 -12 12 -13 415 callgsubr
            161 callsubr
            144 189 111 120 1 hvcurveto
            20 -19 25 -28 22 vhcurveto
            330 callsubr
          </CharString>
          <CharString index="90">
            29 7 -75 callgsubr
            return
          </CharString>
          <CharString index="91">
            282 callgsubr
            35 193 callgsubr
            -17 38 54 -19 31 hhcurveto
            48 101 36 47 75 hvcurveto
            9 -10 -43 450 callgsubr
            -98 callgsubr
          </CharString>
          <CharString index="92">
            72 callgsubr
            138 hlineto
            -120 186 callsubr
            return
          </CharString>
          <CharString index="93">
            16 callgsubr
            60 521 callgsubr
            return
          </CharString>
          <CharString index="94">
            21 38 vvcurveto
            67 56 80 return
          </CharString>
          <CharString index="95">
            280 495 -44 callgsubr
            -26 -47 rmoveto
            118 callgsubr
            -15 13 -61 232 callsubr
            133 -113 132 -47 68 28 38 82 -37 -34 callgsubr
            79 -77 106 -95 23 vhcurveto
            -102 -8 -103 -85 -17 -76 10 -48 36 -46 44 -31 rrcurveto
            return
          </CharString>
          <CharString index="96">
            72 callsubr
            -775 hlineto
            -91 callgsubr
            256 callgsubr
          </CharString>
          <CharString index="97">
            -100 callsubr
            136 hlineto
            -4 141 callsubr
            30 31 45 364 callgsubr
            -73 -82 -61 -110 339 callgsubr
            -95 112 -74 113 -23 132 36 191 84 87 78 13 -15 rcurveline
            return
          </CharString>
          <CharString index="98">
            -13 callgsubr
            284 hlineto
            return
          </CharString>
          <CharString index="99">
            61 36 58 34 61 rrcurveto
            return
          </CharString>
          <CharString index="100">
            42 58 57 48 48 9 -12 rcurveline
            return
          </CharString>
          <CharString index="101">
            331 callsubr
            -564 -103 callgsubr
            526 hlineto
            -17 -22 -15 -22 -12 -21 -135 -66 -179 -79 -107 -41 -14 callsubr
            44 20 44 21 43 21 14 -43 41 -35 58 -27 -4 callsubr
            return
          </CharString>
          <CharString index="102">
            rmoveto
            -1 1 -49 -44 -57 -50 -46 -40 rlinecurve
            -26 13 -14 27 36 vvcurveto
            67 50 412 callsubr
            return
          </CharString>
          <CharString index="103">
            52 9 41 15 36 15 7 -7 rcurveline
            -72 545 callsubr
            85 -18 vhcurveto
            return
          </CharString>
          <CharString index="104">
            31 654 343 -85 callgsubr
            return
          </CharString>
          <CharString index="105">
            37 -52 63 -32 74 491 callgsubr
            return
          </CharString>
          <CharString index="106">
            -102 callsubr
            -12 14 rcurveline
            return
          </CharString>
          <CharString index="107">
            hlineto
            -29 8 callsubr
            return
          </CharString>
          <CharString index="108">
            rmoveto
            269 callgsubr
            -17 -13 -14 -13 -13 -14 -43 42 -49 53 -35 44 32 50 228 callgsubr
            -413 144 rmoveto
            14 81 21 67 20 65 39 -39 47 -43 36 -32 -58 -41 -63 -37 -46 -26 rrcurveto
            882 383 rmoveto
            -1073 -89 callgsubr
            44 36 48 38 47 39 rrcurveto
            -4 vlineto
            -25 callgsubr
          </CharString>
          <CharString index="109">
            22 callsubr
            -77 481 callgsubr
            -44 -50 15 -59 8 -62 2 11 75 7 79 3 67 rrcurveto
            -213 -396 rmoveto
            -30 13 -26 20 -19 33 40 19 38 12 37 8 -7 -37 return
          </CharString>
          <CharString index="110">
            59 -122 33 -15 77 -19 58 50 rlinecurve
            -98 167 -42 25 -54 8 -68 -12 rlinecurve
            return
          </CharString>
          <CharString index="111">
            92 callsubr
            -46 -63 -26 -112 return
          </CharString>
          <CharString index="112">
            rmoveto
            -37 19 -25 17 -17 34 37 21 42 14 43 8 -10 -43 -12 -43 -10 -21 rrcurveto
            80 415 32 callgsubr
            return
          </CharString>
          <CharString index="113">
            rmoveto
            -38 -15 -42 -42 -31 532 callsubr
            70 53 17 hvcurveto
            26 -11 13 -39 2 -41 rrcurveto
            return
          </CharString>
          <CharString index="114">
            -67 -6 -72 -50 -37 -58 rrcurveto
            -516 -103 callgsubr
            510 hlineto
            5 -21 8 -17 11 -16 -142 -69 -216 -93 -108 -38 -47 callgsubr
            15 59 3 74 -18 66 79 36 82 38 72 35 8 -7 9 -6 10 -7 86 -15 rcurveline
            -84 -73 -144 -39 -49 420 callgsubr
            84 return
          </CharString>
          <CharString index="115">
            28 -50 11 -97 -9 -5 -30 rcurveline
            return
          </CharString>
          <CharString index="116">
            hlineto
            -17 -101 callsubr
            228 hlineto
            -74 -29 -71 -37 -39 -41 -14 -59 65 -51 55 -20 54 9 39 14 38 14 6 -7 rcurveline
            -63 -50 -127 -29 -17 -54 rrcurveto
            -58 64 -62 return
          </CharString>
          <CharString index="117">
            37 23 58 -18 -30 callgsubr
          </CharString>
          <CharString index="118">
            369 callgsubr
            14 11 -34 3 -35 -10 -33 rrcurveto
            return
          </CharString>
          <CharString index="119">
            hlineto
            7 callgsubr
            -5 -30 rcurveline
            -895 -100 callsubr
            901 373 callgsubr
            -67 -68 -33 -49 550 callsubr
            -58 -58 -44 -36 -63 -44 rlinecurve
            -9 6 17 18 17 19 16 18 rlinecurve
            -95 callgsubr
            26 21 25 21 25 22 rrcurveto
            -3 vlineto
            -104 96 200 callgsubr
            vhcurveto
            10 callgsubr
            11 499 callsubr
            -25 -101 68 546 callsubr
            35 45 215 callgsubr
            return
          </CharString>
          <CharString index="120">
            hlineto
            67 callgsubr
            return
          </CharString>
          <CharString index="121">
            12 -7 rcurveline
            -14 -66 -17 -82 -20 -90 rrcurveto
            18 callsubr
            132 hlineto
            -36 -170 -41 -189 -38 -156 81 callsubr
            return
          </CharString>
          <CharString index="122">
            rmoveto
            34 53 60 55 50 27 15 -2 7 -11 2 -15 -17 -45 -63 -46 -69 -13 rrcurveto
            return
          </CharString>
          <CharString index="123">
            -19 -42 37 -44 71 -18 25 16 return
          </CharString>
          <CharString index="124">
            16 callsubr
            26 13 27 4 return
          </CharString>
          <CharString index="125">
            -128 -103 callgsubr
            return
          </CharString>
          <CharString index="126">
            -43 -2 callgsubr
            202 hlineto
            return
          </CharString>
          <CharString index="127">
            rmoveto
            34 -38 7 -70 3 -58 76 -37 89 35 24 45 -12 93 -50 81 -116 42 -150 -21 -106 -59 -100 -95 -56 -92 -31 -77 -2 -89 -1 -166 102 -125 208 -35 111 36 107 60 60 65 rrcurveto
            2 43 -18 33 -51 -5 -51 -42 -61 -36 -86 -31 -90 43 -44 62 1 113 rrcurveto
            111 67 130 114 79 vhcurveto
            endchar
          </CharString>
          <CharString index="128">
            672 rmoveto
            -643 -100 callsubr
            309 hlineto
            27 -11 20 -9 23 -20 -5 -9 rcurveline
            -57 -14 -79 -12 -114 -6 -21 -21 -18 -50 474 callsubr
            -101 -74 -71 vvcurveto
            -88 107 -86 105 -23 vhcurveto
            92 3 99 29 53 52 rrcurveto
            49 -1 -38 23 -43 hhcurveto
            -40 -32 -46 -24 -53 -7 -59 24 -29 36 -8 48 21 49 56 33 46 10 13 -3 7 -7 1 -11 -5 -9 -11 -14 -15 -13 17 -24 51 -23 43 12 rrcurveto
            34 38 13 45 32 vvcurveto
            49 -73 22 -88 22 vhcurveto
            2 7 76 8 54 6 65 21 rlinecurve
            42 35 23 62 -14 30 -11 9 -10 7 -11 6 487 callsubr
          </CharString>
          <CharString index="129">
            -72 callsubr
            -456 hmoveto
            -42 callsubr
            -9 return
          </CharString>
          <CharString index="130">
            -101 callgsubr
            230 hlineto
            28 -93 return
          </CharString>
          <CharString index="131">
            rmoveto
            -22 -101 -28 -85 -41 -102 39 -46 115 -20 56 39 6 128 4 104 11 111 49 167 rcurveline
            -48 34 -60 -3 -88 -40 rrcurveto
            return
          </CharString>
          <CharString index="132">
            rmoveto
            241 callgsubr
            -10 355 callgsubr
            631 58 rmoveto
            -437 hlineto
            -29 28 -50 11 -96 -9 -7 -30 rcurveline
            -465 hlineto
            -16 -11 -10 -17 -7 -13 17 -17 rcurveline
            130 hlineto
            -43 -114 -27 -97 -23 -117 9 -62 84 -35 88 -4 71 61 67 61 68 62 8 -8 rcurveline
            -32 -53 -47 -209 67 -54 101 -11 41 31 150 callgsubr
          </CharString>
          <CharString index="133">
            5 -36 -32 8 -63 59 -49 144 4 176 45 71 45 45 76 1 60 return
          </CharString>
          <CharString index="134">
            68 28 39 82 -38 43 return
          </CharString>
          <CharString index="135">
            16 94 663 rmoveto
            59 -96 72 -131 63 -137 -16 -76 -26 -102 -28 -77 35 -45 127 -16 50 39 7 121 7 101 16 94 71 83 77 75 50 65 39 52 20 41 5 59 -42 47 -81 15 -104 -50 46 -177 rcurveline
            -128 -156 -29 -57 rlineto
            -7 hlineto
            -72 202 -11 209 -72 27 -77 -24 -51 -86 rlinecurve
            return
          </CharString>
          <CharString index="136">
            41 34 callsubr
          </CharString>
          <CharString index="137">
            546 callgsubr
            -1 -58 47 -46 71 -33 -4 callsubr
            return
          </CharString>
          <CharString index="138">
            2 108 callgsubr
            return
          </CharString>
          <CharString index="139">
            10 154 callgsubr
            90 -10 return
          </CharString>
          <CharString index="140">
            rmoveto
            -7 -58 -46 -62 -62 -29 -27 6 -32 27 -29 32 67 65 60 68 49 35 24 -22 9 -30 -6 -32 rrcurveto
            -486 -148 rmoveto
            -35 22 -13 33 1 35 9 44 42 50 61 29 29 -30 28 -33 36 -43 -46 -43 -52 -38 -60 -26 rrcurveto
            474 356 rmoveto
            -94 -78 -106 -101 -100 hvcurveto
            -39 60 -42 58 -36 48 -136 -1 -130 -131 -3 -85 -4 -97 99 -93 106 -6 76 11 73 48 66 57 34 -46 42 -43 53 -27 104 9 154 142 3 102 rrcurveto
            106 5 -118 95 -35 hhcurveto
            338 171 rmoveto
            -1007 -81 callgsubr
            1008 hlineto
            15 -106 callgsubr
          </CharString>
          <CharString index="141">
            -35 callsubr
            16 -50 callsubr
            endchar
          </CharString>
          <CharString index="142">
            rmoveto
            14 81 21 67 20 65 36 -37 43 -39 36 -29 -55 -42 -59 -40 -46 -31 rrcurveto
            return
          </CharString>
          <CharString index="143">
            -87 -99 -29 rlinecurve
            -10 13 46 510 callsubr
            -31 -16 -39 -15 -45 -12 rrcurveto
            -14 84 callgsubr
            -417 -100 callsubr
            379 hlineto
            -21 -27 -18 -27 -12 -24 -17 16 -18 14 -19 11 rrcurveto
            -138 -16 -89 -106 -102 vvcurveto
            -70 60 -68 118 -12 vhcurveto
            61 56 67 62 62 55 15 -7 rcurveline
            53 9 41 15 36 15 6 445 callsubr
            return
          </CharString>
          <CharString index="144">
            26 callgsubr
            6 return
          </CharString>
          <CharString index="145">
            109 299 331 rmoveto
            6 20 156 -5 33 43 -11 45 -40 17 rlinecurve
            -115 -22 21 73 19 69 18 65 rlinecurve
            139 -5 47 -94 -1 -135 -1 -109 -54 -100 -96 -74 -45 -16 -47 -7 -60 -3 rrcurveto
            -80 521 rmoveto
            -3 -149 -4 -20 -5 -20 -5 -18 rlinecurve
            -118 13 -30 -29 -3 -43 47 -39 rlinecurve
            80 15 -22 -70 -27 -65 -32 -77 34 callgsubr
          </CharString>
          <CharString index="146">
            hhcurveto
            -96 -112 -119 -81 -43 28 -37 60 -4 hvcurveto
            4 -5 -47 -22 -106 -37 -60 -9 rlinecurve
            -60 19 -43 36 -42 46 3 8 rcurveline
            146 19 149 96 115 vvcurveto
            20 -17 25 -26 22 vhcurveto
            return
          </CharString>
          <CharString index="147">
            rmoveto
            7 29 12 26 12 17 rrcurveto
            3 5 7 2 6 hhcurveto
            19 11 -26 -51 -13 hvcurveto
            -7 -30 -11 -25 -14 -17 rrcurveto
            -3 -5 -5 -2 -6 hhcurveto
            -19 -13 26 51 14 hvcurveto
            -6 -120 rmoveto
            97 84 43 77 25 hvcurveto
            91 31 -79 31 -77 hhcurveto
            -96 -82 -39 -83 -26 hvcurveto
            -80 -25 68 -40 80 hhcurveto
            return
          </CharString>
          <CharString index="148">
            10 -6 rcurveline
            -87 170 callsubr
            return
          </CharString>
          <CharString index="149">
            -10 -30 -30 21 -40 12 -51 -3 -72 callgsubr
            return
          </CharString>
          <CharString index="150">
            -36 -5 -35 -92 -23 rcurveline
            -15 4 -18 25 return
          </CharString>
          <CharString index="151">
            rmoveto
            -29 14 -26 324 callgsubr
            691 424 -99 callsubr
            -551 -81 callgsubr
            232 362 callsubr
            -70 -29 -71 -25 -71 -22 -26 -19 -15 -37 -4 -37 30 -64 62 -46 72 -17 64 3 68 17 38 45 43 98 35 394 callsubr
            -115 -515 68 -54 101 -11 40 31 -102 callgsubr
          </CharString>
          <CharString index="152">
            74 249 -93 rmoveto
            -56 1 -44 31 53 vvcurveto
            10 1 11 3 11 vhcurveto
            39 -24 59 -30 41 -19 -14 -15 -15 -14 -14 -15 rrcurveto
            116 129 rmoveto
            -12 -16 -12 -15 -14 -15 -51 25 -51 30 -43 29 12 11 14 9 19 8 36 -30 47 -24 55 -12 rrcurveto
            493 589 rmoveto
            393 callgsubr
            431 288 callsubr
            -21 4 -20 9 -20 vhcurveto
            -137 -45 -53 -88 -75 vvcurveto
            -110 126 -85 167 40 vhcurveto
            53 73 71 101 return
          </CharString>
          <CharString index="153">
            317 callsubr
            -3 -142 318 callgsubr
            30 135 35 496 callsubr
            -39 72 -75 20 -46 -17 -35 -33 -42 297 callgsubr
            15 -50 callsubr
            endchar
          </CharString>
          <CharString index="154">
            399 callsubr
            25 384 callsubr
            23 -2 15 -10 rrcurveto
            -14 -114 -269 -44 -72 vvcurveto
            -70 125 -85 return
          </CharString>
          <CharString index="155">
            rmoveto
            -86 -83 -156 -99 -131 -44 -17 -45 24 -39 64 -22 123 72 151 119 68 99 rrcurveto
            -352 24 144 callsubr
            438 382 rmoveto
            -632 -19 callsubr
            223 -105 callsubr
          </CharString>
          <CharString index="156">
            356 callgsubr
            276 callgsubr
            return
          </CharString>
          <CharString index="157">
            -31 75 -16 rrcurveto
            52 112 callsubr
            return
          </CharString>
          <CharString index="158">
            -143 -142 -139 -133 -108 95 -57 123 -2 hvcurveto
            return
          </CharString>
          <CharString index="159">
            rmoveto
            -19 4 -27 19 -4 15 54 27 81 38 88 41 5 -8 4 -8 3 -8 -28 -60 -97 -48 -60 -12 rrcurveto
            return
          </CharString>
          <CharString index="160">
            333 callsubr
            91 -65 48 18 return
          </CharString>
          <CharString index="161">
            rmoveto
            -1 -91 -31 -200 -30 -124 -52 -164 rlinecurve
            22 -45 134 -20 56 39 8 129 6 107 12 186 49 190 rcurveline
            219 -23 39 61 -5 39 -20 25 rlinecurve
            -252 14 -135 -4 -224 -18 -18 -40 2 -36 38 -47 rrcurveto
            endchar
          </CharString>
          <CharString index="162">
            82 70 60 69 20 hvcurveto
            -11 35 -42 21 -68 -11 -6 -45 -31 -35 -59 -10 -42 12 -27 31 -16 47 -20 3 -22 -12 -10 -12 rrcurveto
            return
          </CharString>
          <CharString index="163">
            hlineto
            340 -54 callgsubr
            return
          </CharString>
          <CharString index="164">
            203 callsubr
            296 hlineto
            32 -13 32 -14 19 -18 -4 -8 rcurveline
            -62 -23 -74 -11 -88 -11 -75 -42 -27 -74 30 -49 89 -31 98 -11 85 -27 2 -7 rcurveline
            -70 -39 -140 -15 -109 4 -36 -31 8 -60 60 -47 144 4 176 42 70 43 46 72 1 58 -41 28 -77 22 -106 13 -70 22 5 14 rcurveline
            75 11 82 16 61 24 42 34 22 63 -15 36 -11 9 -12 9 -12 7 rrcurveto
            225 -105 callsubr
          </CharString>
          <CharString index="165">
            369 185 146 146 callgsubr
            958 473 rmoveto
            -1142 -103 callgsubr
            723 140 callsubr
            -53 -51 -81 -27 -71 -30 -1 2 rcurveline
            83 callgsubr
            42 8 43 6 44 8 rrcurveto
            -10 -16 -6 -19 -22 vvcurveto
            -107 return
          </CharString>
          <CharString index="166">
            47 52 31 51 36 hvcurveto
            52 -6 -45 58 -38 hhcurveto
            -55 -7 -49 -57 -11 -59 rrcurveto
            -41 3 29 -28 37 hhcurveto
            return
          </CharString>
          <CharString index="167">
            -53 -47 -209 -53 callsubr
            return
          </CharString>
          <CharString index="168">
            hlineto
            -115 -515 67 -54 101 -11 41 31 -102 callgsubr
          </CharString>
          <CharString index="169">
            -9 rcurveline
            -54 109 callsubr
            return
          </CharString>
          <CharString index="170">
            -76 callsubr
            118 hlineto
            return
          </CharString>
          <CharString index="171">
            rmoveto
            -7 -5 rlineto
            86 -59 -68 525 callgsubr
            42 -35 75 -26 75 69 rcurveline
            56 -36 50 -45 31 464 callsubr
            -45 28 -43 11 -46 284 callsubr
            35 -8 28 -15 30 -20 39 2 22 21 5 16 -15 61 -6 33 -4 52 14 10 rcurveline
            36 -14 23 -20 37 174 callgsubr
            -62 20 -87 5 -30 -8 -33 -12 -32 -40 15 -23 24 -37 13 -24 rrcurveto
            endchar
          </CharString>
          <CharString index="172">
            134 callgsubr
            34 -16 20 -20 1 -8 rcurveline
            -61 -24 -109 -16 -74 -4 -55 -38 -22 -57 21 -52 88 -37 107 -8 76 -27 2 -8 rcurveline
            -31 -33 -49 -28 -55 -10 -29 14 -22 28 -13 24 -58 22 -64 -47 -38 -70 52 -74 50 -119 27 -96 87 -17 59 33 6 37 -36 66 -40 79 -46 52 9 7 rcurveline
            22 -15 26 -12 26 -6 84 5 106 43 42 42 17 35 8 30 -2 24 -2 14 -9 14 -10 11 return
          </CharString>
          <CharString index="173">
            183 callgsubr
            49 412 callsubr
            return
          </CharString>
          <CharString index="174">
            879 rmoveto
            56 -36 51 -45 30 464 callsubr
            -44 28 -44 11 -46 -10 -32 -26 -20 -34 10 -39 51 353 callgsubr
            22 21 5 16 -14 61 -7 33 -3 52 13 10 rcurveline
            36 -14 23 -20 37 174 callgsubr
            -62 20 -87 5 -29 -8 -34 -12 -32 -40 15 -23 24 -37 13 -24 -7 -5 rcurveline
            86 -58 -69 525 callgsubr
            43 -35 74 -26 rrcurveto
            return
          </CharString>
          <CharString index="175">
            -515 57 callgsubr
            return
          </CharString>
          <CharString index="176">
            91 callgsubr
            7 -7 -41 -63 -50 -219 67 -54 101 -11 40 31 rlinecurve
            25 -104 callgsubr
          </CharString>
          <CharString index="177">
            -100 callsubr
            232 hlineto
            35 -90 1 -46 -5 -57 -10 -55 rlinecurve
            -73 -12 -69 -11 -54 -13 rrcurveto
            -35 -19 -10 -36 -46 vvcurveto
            30 -55 62 -49 60 -15 58 -4 470 callgsubr
            17 41 15 56 12 62 return
          </CharString>
          <CharString index="178">
            76 -21 66 49 24 50 25 48 26 41 callsubr
            return
          </CharString>
          <CharString index="179">
            107 callgsubr
            385 272 299 callsubr
            return
          </CharString>
          <CharString index="180">
            rmoveto
            -12 -76 -4 -53 -15 -15 -3 16 23 42 8 72 rrcurveto
            return
          </CharString>
          <CharString index="181">
            12 -12 -45 -64 -32 -140 -53 callsubr
            40 31 rlinecurve
            return
          </CharString>
          <CharString index="182">
            281 callsubr
            -78 -55 -72 -29 280 callgsubr
            119 hlineto
            -456 hmoveto
            16 callsubr
            25 13 28 4 20 275 callgsubr
            921 354 callsubr
            return
          </CharString>
          <CharString index="183">
            17 41 17 -10 -39 -12 -37 -14 -32 rrcurveto
            return
          </CharString>
          <CharString index="184">
            20 -1 37 -49 52 -15 43 -12 85 -39 35 -24 9 -59 -4 -66 -41 -76 -82 -56 -92 2 -37 31 -37 80 8 return
          </CharString>
          <CharString index="185">
            37 -53 62 50 callsubr
            return
          </CharString>
          <CharString index="186">
            25 48 -28 60 -52 28 -114 -7 -115 0 -118 16 return
          </CharString>
          <CharString index="187">
            -1 -45 -50 -6 -68 return
          </CharString>
          <CharString index="188">
            -53 callsubr
            40 31 28 485 rcurveline
            -5 64 rlineto
            207 hlineto
            192 callsubr
            return
          </CharString>
          <CharString index="189" raw="1">
            7a18f716 0660fb06 702a74fb 09521dce
            55f080b4 aaf82d0a 0b 
          </CharString>
          <CharString index="190">
            103 callsubr
            24 408 -82 callgsubr
            133 hlineto
            return
          </CharString>
          <CharString index="191">
            349 callsubr
            -41 -182 18 497 callgsubr
            -73 -86 81 -63 hhcurveto
            210 callsubr
            57 -32 39 -30 36 -34 287 callsubr
            return
          </CharString>
          <CharString index="192">
            31 -4 20 -26 6 -27 -15 49 callsubr
            return
          </CharString>
          <CharString index="193">
            113 callgsubr
            18 -21 return
          </CharString>
          <CharString index="194">
            -50 -11 11 120 callgsubr
          </CharString>
          <CharString index="195">
            rmoveto
            -2 -29 -5 43 callsubr
            -5 13 return
          </CharString>
          <CharString index="196">
            rmoveto
            -128 -83 2 23 91 299 rlineto
            10 -22 357 callgsubr
            -41 -49 -11 -26 -51 hvcurveto
            -4 -188 -30 -176 -32 -147 -53 -159 rlinecurve
            22 -46 133 -20 56 39 9 113 8 108 8 92 30 17 rcurveline
            18 -148 78 -132 139 -72 103 25 33 84 -30 52 -150 28 -82 75 -48 119 123 75 144 98 83 70 5 72 -46 46 -99 12 rrcurveto
            endchar
          </CharString>
          <CharString index="197">
            23 15 vvcurveto
            24 44 39 30 7 vhcurveto
            34 -18 12 -36 -33 vvcurveto
            -23 -7 -21 -11 -18 vhcurveto
            return
          </CharString>
          <CharString index="198">
            vvcurveto
            32 12 33 18 28 vhcurveto
            26 478 callsubr
            return
          </CharString>
          <CharString index="199">
            42 -7 callsubr
            return
          </CharString>
          <CharString index="200">
            13 66 12 38 28 38 rrcurveto
            24 -24 -44 24 -44 hhcurveto
            -100 -166 -122 -98 -63 hvcurveto
            10 -51 46 -36 69 -6 52 77 75 76 58 37 17 -7 rcurveline
            -49 -233 72 callgsubr
            132 hlineto
            -36 -169 -41 -189 -38 -157 329 callgsubr
            return
          </CharString>
          <CharString index="201">
            vvcurveto
            -98 88 290 callgsubr
            68 -54 101 -11 40 31 -102 callgsubr
          </CharString>
          <CharString index="202">
            rmoveto
            -18 20 -12 23 16 vvcurveto
            28 34 39 31 7 vhcurveto
            38 -18 18 -41 -42 vvcurveto
            -19 -4 -19 -7 -18 vhcurveto
            return
          </CharString>
          <CharString index="203">
            -29 1 -41 28 6 32 78 65 131 88 2 120 return
          </CharString>
          <CharString index="204">
            136 callsubr
            15 -50 callsubr
            endchar
          </CharString>
          <CharString index="205">
            21 102 callgsubr
            return
          </CharString>
          <CharString index="206">
            372 callsubr
            133 -105 callsubr
          </CharString>
          <CharString index="207">
            8 -8 rcurveline
            -31 60 callsubr
            40 31 rlinecurve
            17 284 51 42 return
          </CharString>
          <CharString index="208">
            -87 callgsubr
            283 53 44 61 47 41 29 rlinecurve
            25 28 -15 -33 16 hvcurveto
            12 -22 5 -31 -1 -37 -5 -13 -3 -13 -1 -14 return
          </CharString>
          <CharString index="209">
            417 rmoveto
            -68 -63 -97 -66 -69 -46 -10 5 rcurveline
            13 83 22 69 274 callgsubr
            return
          </CharString>
          <CharString index="210">
            138 callgsubr
            342 callsubr
            return
          </CharString>
          <CharString index="211">
            -26 13 -13 27 36 vvcurveto
            return
          </CharString>
          <CharString index="212">
            rmoveto
            -31 -53 -41 -30 -66 -13 rrcurveto
            -55 45 -20 65 80 vvcurveto
            460 callgsubr
            -115 26 116 -86 80 hhcurveto
            80 109 35 69 56 hvcurveto
            -20 54 -40 23 -43 -14 rrcurveto
            endchar
          </CharString>
          <CharString index="213">
            570 rmoveto
            42 18 15 20 -1 29 rrcurveto
            57 -80 73 -70 -61 -59 -42 -59 -34 vhcurveto
            13 -28 33 -40 24 -17 14 4 21 11 9 11 -15 35 rcurveline
            11 11 15 9 20 hhcurveto
            20 21 -16 -39 8 hvcurveto
            -93 -64 1 -29 33 -8 25 -13 18 -19 rlinecurve
            -38 -34 -50 -19 -105 -22 -7 -29 14 -36 23 -16 151 12 128 53 4 69 4 46 -47 28 -56 23 rrcurveto
            return
          </CharString>
          <CharString index="214">
            rmoveto
            35 49 34 239 9 102 -16 84 rlinecurve
            -43 13 -72 7 -71 -69 42 -228 rcurveline
            -29 -154 -45 -196 -61 -150 25 -50 125 -18 61 41 9 74 5 68 5 58 41 -90 76 -83 105 -51 85 35 39 83 -42 46 -143 20 -69 47 -49 67 87 50 90 30 106 21 rrcurveto
            56 80 -50 77 -62 7 -114 -63 -74 -67 -86 -93 rrcurveto
            endchar
          </CharString>
          <CharString index="215">
            -55 23 -23 33 -1 33 rrcurveto
            21 12 19 21 16 vhcurveto
            66 15 65 24 54 27 35 29 22 56 -15 35 -12 10 -12 10 -12 9 rrcurveto
            275 -105 callsubr
          </CharString>
          <CharString index="216">
            -23 -85 -22 -111 -8 -21 -22 -18 -53 22 -36 return
          </CharString>
          <CharString index="217">
            15 179 94 77 64 10 -12 rcurveline
            -27 -34 -25 411 callgsubr
            return
          </CharString>
          <CharString index="218">
            -51 -50 -113 -65 -67 -28 -22 -15 -11 -34 -4 -29 19 -43 49 -43 69 -21 return
          </CharString>
          <CharString index="219">
            315 callsubr
            12 48 4 56 -8 54 return
          </CharString>
          <CharString index="220">
            -99 callsubr
            -471 -103 callgsubr
            123 hlineto
            -40 -109 -27 -98 -25 -117 262 callsubr
            -31 -54 -49 -216 -67 callsubr
          </CharString>
          <CharString index="221">
            hlineto
            520 callsubr
            36 -47 68 -21 rlinecurve
            31 42 53 23 43 hhcurveto
            19 16 293 callgsubr
            return
          </CharString>
          <CharString index="222">
            -11 -13 -11 -39 35 -37 168 callgsubr
            return
          </CharString>
          <CharString index="223">
            hlineto
            23 callgsubr
            return
          </CharString>
          <CharString index="224">
            rmoveto
            -8 -5 rlineto
            75 -36 -68 86 -53 hhcurveto
            -54 -61 361 callgsubr
            85 58 rcurveline
            383 callsubr
            22 33 6 22 8 hvcurveto
            -21 54 -15 50 -3 56 13 9 rcurveline
            37 -13 26 -21 37 -42 508 callgsubr
            -31 -3 -35 -23 -23 -25 22 -34 18 -35 15 -36 rrcurveto
            endchar
          </CharString>
          <CharString index="225">
            46 43 317 -80 callsubr
            return
          </CharString>
          <CharString index="226">
            188 callgsubr
            24 hvcurveto
            15 37 17 55 16 61 return
          </CharString>
          <CharString index="227">
            rmoveto
            22 7 21 12 20 vhcurveto
            27 -28 34 -30 27 -21 -24 -19 -23 -16 -21 -15 rrcurveto
            -24 12 -15 28 26 vvcurveto
            93 124 rmoveto
            31 -20 24 -34 32 -26 -12 -11 -12 -10 -12 -10 -34 28 -30 30 -27 30 12 10 14 8 14 5 rrcurveto
            189 73 rmoveto
            33 52 59 55 50 27 16 -2 7 -11 2 -15 -18 -45 -62 -46 -70 -13 rrcurveto
            return
          </CharString>
          <CharString index="228">
            388 callgsubr
            -35 -55 -91 -41 -74 -32 -24 -45 21 -49 85 -40 107 60 118 86 12 92 6 45 -23 48 -28 48 67 57 46 57 1 40 rrcurveto
            1 34 -30 36 -38 29 rrcurveto
            13 30 11 30 30 vvcurveto
            183 hlineto
            15 -106 callgsubr
          </CharString>
          <CharString index="229">
            hhcurveto
            55 130 149 callgsubr
          </CharString>
          <CharString index="230">
            190 callgsubr
            -51 53 -28 52 -8 61 return
          </CharString>
          <CharString index="231">
            332 callsubr
            -74 -1 return
          </CharString>
          <CharString index="232">
            2 -24 -2 -66 -82 -53 -51 -75 -58 -17 15 rcurveline
            18 32 19 20 18 22 -17 56 -19 33 -60 22 -32 7 -37 2 -48 -4 -111 -50 -104 -101 -2 -81 rrcurveto
            -83 97 -121 98 -52 vhcurveto
            101 19 31 68 -25 40 -89 40 -32 45 -21 58 5 49 51 66 36 8 30 -2 22 -28 6 -27 -16 -13 -17 -14 -19 -15 -13 -47 return
          </CharString>
          <CharString index="233">
            vvcurveto
            31 -54 61 311 callgsubr
            41 31 rlinecurve
            11 338 75 113 -27 239 callgsubr
            -25 -53 -24 5 40 3 406 callsubr
            470 -105 callsubr
          </CharString>
          <CharString index="234">
            456 rmoveto
            -59 -63 -70 -62 168 callsubr
            -46 -19 -46 -30 -38 -36 -1 1 rcurveline
            -69 -61 -88 -59 -64 -42 135 callgsubr
            621 56 callsubr
            return
          </CharString>
          <CharString index="235">
            -151 -108 -17 callgsubr
            return
          </CharString>
          <CharString index="236">
            316 callsubr
            -34 -33 -42 -48 -49 -50 -44 15 -41 283 callsubr
          </CharString>
          <CharString index="237">
            -15 4 -19 103 callgsubr
            return
          </CharString>
          <CharString index="238">
            -88 -8 -96 -83 -15 -78 13 -54 30 -35 50 -34 87 -15 rcurveline
            -84 -73 -144 -39 -49 420 callgsubr
            83 return
          </CharString>
          <CharString index="239">
            10 -6 rcurveline
            162 callsubr
            return
          </CharString>
          <CharString index="240">
            106 -94 23 vhcurveto
            -78 -6 -79 231 callsubr
            return
          </CharString>
          <CharString index="241">
            hlineto
            -114 -515 -53 callsubr
            40 31 rlinecurve
            24 408 return
          </CharString>
          <CharString index="242">
            -140 173 callsubr
            return
          </CharString>
          <CharString index="243">
            201 callgsubr
            24 408 -82 callgsubr
            133 hlineto
            return
          </CharString>
          <CharString index="244">
            -41 -31 -32 -39 -39 31 -32 41 39 32 32 39 39 -32 32 -39 hvcurveto
            return
          </CharString>
          <CharString index="245">
            rmoveto
            -48 -44 -59 203 callgsubr
            return
          </CharString>
          <CharString index="246">
            205 callgsubr
            -5 -30 rcurveline
            return
          </CharString>
          <CharString index="247">
            213 callsubr
            -4 -9 rcurveline
            return
          </CharString>
          <CharString index="248">
            -4 -20 -39 37 -47 67 -21 rlinecurve
            return
          </CharString>
          <CharString index="249">
            hlineto
            -105 callgsubr
            return
          </CharString>
          <CharString index="250">
            rmoveto
            -5 -6 -45 38 -46 30 -42 11 rlinecurve
            -47 284 callsubr
            35 -8 28 -15 30 -20 39 2 22 20 5 17 rrcurveto
            150 -62 -121 118 -72 hhcurveto
            -49 -54 -30 -28 -23 hvcurveto
            -12 -59 42 -35 75 -26 75 69 rcurveline
            58 -34 51 -49 29 -49 rrcurveto
            endchar
          </CharString>
          <CharString index="251">
            538 callsubr
            -18 29 39 16 40 16 39 17 -7 -37 -12 -37 -16 -32 rrcurveto
            return
          </CharString>
          <CharString index="252">
            rmoveto
            -36 17 -18 19 -16 11 callsubr
            return
          </CharString>
          <CharString index="253">
            -145 hlineto
            -77 callsubr
            return
          </CharString>
          <CharString index="254">
            199 callgsubr
            rrcurveto
            return
          </CharString>
          <CharString index="255">
            58 -5 79 292 callsubr
            42 98 callsubr
            -49 -24 -53 477 callsubr
            39 2 37 rrcurveto
            470 hlineto
            15 -106 callgsubr
          </CharString>
          <CharString index="256">
            rlinecurve
            17 284 51 42 59 344 callsubr
            25 301 callsubr
            46 -56 rlineto
            132 80 119 530 callsubr
            -59 -55 -57 -54 -57 87 callsubr
          </CharString>
          <CharString index="257">
            275 248 178 rmoveto
            -28 16 -15 30 38 vvcurveto
            27 10 27 16 25 vhcurveto
            27 -31 41 -37 33 -27 -27 -22 -29 -23 -28 -23 rrcurveto
            76 241 rmoveto
            return
          </CharString>
          <CharString index="258">
            103 79 55 95 7 91 -19 51 -80 53 -85 -66 20 -167 rcurveline
            -66 -99 9 -24 21 -12 35 -1 rlinecurve
            return
          </CharString>
          <CharString index="259">
            369 callgsubr
            13 11 -33 3 -35 -10 -33 rrcurveto
            return
          </CharString>
          <CharString index="260">
            -6 -4 -36 47 159 callgsubr
            return
          </CharString>
          <CharString index="261">
            440 -5 callgsubr
            -549 hmoveto
            295 callsubr
            return
          </CharString>
          <CharString index="262">
            18 35 42 24 55 21 82 15 return
          </CharString>
          <CharString index="263">
            -75 callsubr
            endchar
          </CharString>
          <CharString index="264">
            376 callsubr
            287 hlineto
            30 -14 28 return
          </CharString>
          <CharString index="265">
            16 26 13 27 4 return
          </CharString>
          <CharString index="266">
            rmoveto
            -96 -82 -39 -83 -26 hvcurveto
            -80 -25 68 -40 80 hhcurveto
            97 84 43 77 25 hvcurveto
            91 31 -79 31 -77 hhcurveto
            -26 -45 rmoveto
            19 11 -26 -51 -13 hvcurveto
            -7 -30 -11 -25 -14 -17 rrcurveto
            -3 -5 -5 -2 -6 hhcurveto
            -19 -13 26 51 14 hvcurveto
            7 29 12 26 12 17 rrcurveto
            3 5 7 2 6 hhcurveto
            return
          </CharString>
          <CharString index="267">
            409 54 callgsubr
            return
          </CharString>
          <CharString index="268">
            65 -33 callsubr
            262 callgsubr
            return
          </CharString>
          <CharString index="269">
            -88 -382 -53 callsubr
            40 31 rlinecurve
            12 338 75 113 -27 214 callgsubr
            return
          </CharString>
          <CharString index="270">
            -32 -32 -39 -39 32 -32 return
          </CharString>
          <CharString index="271">
            -91 callgsubr
            131 19 172 86 93 81 return
          </CharString>
          <CharString index="272">
            50 -6 78 18 40 39 25 64 23 80 19 82 41 20 41 22 41 21 10 -5 rcurveline
            -88 -382 68 -74 callsubr
            40 31 rlinecurve
            11 338 75 113 -27 214 callgsubr
            -40 -23 -46 -24 -49 -24 16 456 callgsubr
            -66 -1 return
          </CharString>
          <CharString index="273">
            -22 52 -52 25 -44 -21 -19 -55 -38 -51 -66 -13 -55 45 -17 65 -1 80 460 callgsubr
            -113 27 113 -88 74 hhcurveto
            return
          </CharString>
          <CharString index="274">
            -72 -77 -59 -73 115 callgsubr
            return
          </CharString>
          <CharString index="275">
            -61 -39 -8 6 rcurveline
            345 callsubr
            -6 60 -28 44 -63 21 -29 497 callsubr
            return
          </CharString>
          <CharString index="276">
            88 callsubr
            44 27 51 435 callgsubr
            return
          </CharString>
          <CharString index="277">
            -382 67 29 callgsubr
            return
          </CharString>
          <CharString index="278">
            -56 -53 -59 -56 -55 -49 -12 249 callgsubr
            return
          </CharString>
          <CharString index="279" raw="1">
            069c0a0b   
          </CharString>
          <CharString index="280">
            -6 -5 -37 48 159 callgsubr
            return
          </CharString>
          <CharString index="281">
            74 21 33 43 -16 50 -51 46 return
          </CharString>
          <CharString index="282">
            5 51 43 46 45 34 return
          </CharString>
          <CharString index="283">
            -16 -62 callgsubr
            return
          </CharString>
          <CharString index="284">
            -2 -64 callsubr
            2 14 6 13 9 12 rrcurveto
            return
          </CharString>
          <CharString index="285">
            124 callsubr
            -39 callsubr
            return
          </CharString>
          <CharString index="286">
            -22 6 -24 -13 -15 return
          </CharString>
          <CharString index="287">
            50 37 5 32 -16 17 -43 5 -33 -14 -40 -30 -35 -38 -32 -27 25 -23 34 -12 41 rrcurveto
            return
          </CharString>
          <CharString index="288">
            -94 callsubr
            -4 -42 return
          </CharString>
          <CharString index="289">
            -2 -15 3 -24 25 -15 21 -58 5 -44 -43 -18 -76 451 callsubr
            40 4 40 return
          </CharString>
          <CharString index="290">
            232 callgsubr
            132 hlineto
            return
          </CharString>
          <CharString index="291">
            -8 -44 45 -48 92 -13 60 49 64 56 52 return
          </CharString>
          <CharString index="292">
            hlineto
            -16 -11 -12 -17 -7 -13 19 -17 rcurveline
            return
          </CharString>
          <CharString index="293">
            68 callsubr
            6 return
          </CharString>
          <CharString index="294">
            -9 -46 callsubr
            return
          </CharString>
          <CharString index="295">
            -297 rmoveto
            28 6 27 13 25 vhcurveto
            29 -30 40 -36 31 -25 -27 -23 -29 -23 -24 -19 rrcurveto
            -26 14 -13 27 35 vvcurveto
            183 47 rmoveto
            -11 -6 -11 -6 -8 -7 -36 32 -34 34 -28 32 15 14 19 13 23 10 28 -14 35 -52 15 -43 rrcurveto
            return
          </CharString>
          <CharString index="296">
            rmoveto
            31 36 4 30 -19 11 -178 -18 rcurveline
            -179 5 -24 -33 -4 -24 15 -18 rlinecurve
            return
          </CharString>
          <CharString index="297">
            58 rmoveto
            146 callsubr
            return
          </CharString>
          <CharString index="298">
            37 -29 34 18 18 21 13 20 6 return
          </CharString>
          <CharString index="299">
            16 -102 callsubr
            return
          </CharString>
          <CharString index="300">
            hlineto
            -28 -126 -28 -30 -46 -29 -42 -2 rlinecurve
            -15 41 callgsubr
            3 53 -45 36 -75 -1 rrcurveto
            -28 -19 return
          </CharString>
          <CharString index="301">
            -13 2 -17 15 -2 10 41 36 49 24 64 32 22 44 -27 59 -45 21 -114 -7 -109 0 -118 16 -40 -22 3 -74 62 -42 89 11 77 11 75 13 3 -5 rcurveline
            -88 -53 -134 -20 -52 vvcurveto
            -56 85 -73 91 -12 vhcurveto
            return
          </CharString>
          <CharString index="302">
            161 callgsubr
            -44 -64 -31 -131 67 -54 101 -11 41 31 -102 callgsubr
          </CharString>
          <CharString index="303">
            399 callsubr
            27 384 callsubr
            22 -2 14 -10 rrcurveto
            -16 -86 -260 -46 -69 vvcurveto
            -62 125 -87 72 56 132 85 86 83 vhcurveto
            9 -10 -48 -77 return
          </CharString>
          <CharString index="304">
            rmoveto
            30 -10 38 11 15 23 -74 199 rcurveline
            -41 21 -89 -9 -32 -66 87 -76 rcurveline
            return
          </CharString>
          <CharString index="305">
            rmoveto
            14 81 21 67 20 65 39 -40 47 -43 36 -32 -58 -40 -63 -37 -46 -26 rrcurveto
            return
          </CharString>
          <CharString index="306">
            387 callsubr
            21 66 return
          </CharString>
          <CharString index="307">
            195 rmoveto
            -27 13 -22 15 -18 26 38 16 36 17 302 callgsubr
            89 407 rmoveto
            -2 -29 return
          </CharString>
          <CharString index="308">
            hlineto
            -25 -111 -59 -64 -70 -61 353 callsubr
            -29 44 -63 21 -28 7 return
          </CharString>
          <CharString index="309">
            -1 1 rcurveline
            -58 -33 -63 -23 -46 1 -19 1 -23 4 -24 8 rrcurveto
            77 44 58 64 488 callsubr
            return
          </CharString>
          <CharString index="310">
            rmoveto
            -671 -100 callsubr
            return
          </CharString>
          <CharString index="311">
            -100 callsubr
            230 hlineto
            29 -90 1 -41 -2 -50 -7 -49 rlinecurve
            -75 -11 -66 -20 -48 -22 -34 -20 -10 -36 -1 -47 30 -51 52 -47 89 -24 49 5 63 17 33 43 17 39 16 58 13 64 return
          </CharString>
          <CharString index="312">
            -101 266 callgsubr
            return
          </CharString>
          <CharString index="313">
            5 31 -4 20 -26 6 -27 -15 356 callgsubr
            rrcurveto
            276 callgsubr
            return
          </CharString>
          <CharString index="314">
            3 39 -61 57 -95 -3 -42 -30 -67 -44 -61 -40 rrcurveto
            -10 15 -6 15 14 vvcurveto
            3 41 161 51 72 53 31 30 17 35 -14 33 -16 13 -17 12 -18 10 rrcurveto
            279 -105 callsubr
          </CharString>
          <CharString index="315">
            10 -6 rcurveline
            162 callgsubr
            return
          </CharString>
          <CharString index="316">
            19 31 47 40 70 53 17 hvcurveto
            25 -12 17 -30 8 -33 rrcurveto
            return
          </CharString>
          <CharString index="317">
            -49 -62 -38 -47 -39 hvcurveto
            -7 -56 45 -37 89 -21 63 77 rcurveline
            return
          </CharString>
          <CharString index="318">
            -26 -5 -79 -72 -81 -110 -29 rrcurveto
            return
          </CharString>
          <CharString index="319">
            175 callgsubr
            25 13 return
          </CharString>
          <CharString index="320">
            113 callgsubr
            17 -21 return
          </CharString>
          <CharString index="321">
            434 callsubr
            -28 -32 -43 -50 -42 -44 -49 9 -39 34 -4 46 72 49 120 43 68 54 34 30 23 57 -16 38 -66 callgsubr
          </CharString>
          <CharString index="322">
            hlineto
            -17 -101 callsubr
            223 hlineto
            -71 -27 -67 -34 -38 -40 -15 -60 66 -51 55 -19 53 6 38 19 39 12 7 -8 rcurveline
            -63 -50 -129 -36 -18 -52 rrcurveto
            -58 72 -43 84 -18 vhcurveto
            80 return
          </CharString>
          <CharString index="323">
            vvcurveto
            413 callsubr
            vhcurveto
            61 62 60 59 41 457 callsubr
            472 callsubr
            133 hlineto
            15 -106 callgsubr
          </CharString>
          <CharString index="324">
            rmoveto
            31 -51 36 -90 18 -82 35 1 20 8 8 18 -21 56 -14 45 -5 60 14 9 rcurveline
            36 -12 28 -23 36 -41 508 callgsubr
            -54 -10 -35 -32 -24 -42 rrcurveto
            endchar
          </CharString>
          <CharString index="325">
            469 callsubr
            -45 279 callsubr
            return
          </CharString>
          <CharString index="326">
            rmoveto
            24 7 25 13 22 vhcurveto
            30 -31 39 -35 30 -23 -26 -18 -28 -19 -26 -18 rrcurveto
            -26 14 -13 24 35 vvcurveto
            return
          </CharString>
          <CharString index="327">
            11 rcurveline
            51 47 95 71 95 37 rrcurveto
            186 hlineto
            2 -16 -3 -16 -4 -16 -10 4 -9 4 -9 2 -52 -5 -57 -41 -29 -42 -17 -72 35 -71 35 -62 -71 -46 -87 -39 -78 -14 rrcurveto
            324 169 rmoveto
            return
          </CharString>
          <CharString index="328">
            362 callgsubr
            31 32 39 39 -31 32 -39 hvcurveto
            return
          </CharString>
          <CharString index="329">
            31 -4 19 395 callgsubr
            -7 -44 44 -48 92 -13 return
          </CharString>
          <CharString index="330">
            567 rmoveto
            266 callsubr
            return
          </CharString>
          <CharString index="331">
            vhcurveto
            27 -26 callsubr
            return
          </CharString>
          <CharString index="332">
            250 callsubr
            -13 return
          </CharString>
          <CharString index="333">
            10 257 callsubr
            return
          </CharString>
          <CharString index="334">
            417 495 callgsubr
            48 6 23 19 -1 38 -49 52 -15 43 -12 85 -39 35 -23 9 -60 -4 -66 -41 -76 -82 -56 -92 2 -37 31 -37 80 8 32 89 31 56 56 51 rrcurveto
            return
          </CharString>
          <CharString index="335">
            -3 -7 rcurveline
            -61 -28 -83 -19 -80 -14 rrcurveto
            -53 -42 -34 -45 -57 vvcurveto
            -82 89 -73 126 -23 vhcurveto
            183 1 115 113 -11 123 -27 27 -46 27 -43 18 26 30 8 40 -11 28 -15 14 return
          </CharString>
          <CharString index="336">
            -198 rmoveto
            458 callgsubr
            94 72 50 85 7 494 callgsubr
            return
          </CharString>
          <CharString index="337">
            15 rrcurveto
            -141 -138 -131 -123 -109 94 -62 128 -2 hvcurveto
            33 34 41 41 37 38 26 return
          </CharString>
          <CharString index="338">
            -51 -40 -57 rrcurveto
            829 hmoveto
            146 callsubr
            return
          </CharString>
          <CharString index="339">
            80 callsubr
            62 -85 return
          </CharString>
          <CharString index="340">
            rmoveto
            305 callsubr
            -74 -38 -37 -33 -47 -58 -3 -36 48 -23 35 7 rrcurveto
            return
          </CharString>
          <CharString index="341">
            -21 callgsubr
            -47 53 -31 212 callgsubr
            return
          </CharString>
          <CharString index="342">
            62 callsubr
            191 callgsubr
            return
          </CharString>
          <CharString index="343">
            55 -19 30 hhcurveto
            48 102 37 46 74 hvcurveto
            10 -10 -44 450 callgsubr
            return
          </CharString>
          <CharString index="344">
            hlineto
            340 354 callsubr
            return
          </CharString>
          <CharString index="345">
            -94 100 -94 143 419 callsubr
            return
          </CharString>
          <CharString index="346">
            68 -74 callsubr
            40 31 rlinecurve
            24 408 return
          </CharString>
          <CharString index="347">
            81 105 382 callsubr
            return
          </CharString>
          <CharString index="348">
            264 callsubr
            12 130 16 116 10 136 rrcurveto
            endchar
          </CharString>
          <CharString index="349">
            -15 252 callsubr
            return
          </CharString>
          <CharString index="350">
            449 callsubr
            81 5 95 -10 32 rcurveline
            5 6 42 -18 rlineto
            -5 17 18 -2 18 hhcurveto
            -67 14 return
          </CharString>
          <CharString index="351">
            -103 callgsubr
            361 hlineto
            return
          </CharString>
          <CharString index="352">
            hhcurveto
            -113 -105 -140 148 callgsubr
            return
          </CharString>
          <CharString index="353">
            -103 callgsubr
            281 hlineto
            return
          </CharString>
          <CharString index="354">
            92 87 48 -80 69 -117 -3 hvcurveto
            -52 -39 return
          </CharString>
          <CharString index="355">
            57 callgsubr
            16 return
          </CharString>
          <CharString index="356">
            320 callsubr
            -26 -32 return
          </CharString>
          <CharString index="357">
            16 41 17 40 17 -9 -39 return
          </CharString>
          <CharString index="358">
            rmoveto
            518 callsubr
            return
          </CharString>
          <CharString index="359">
            3 -24 -52 callgsubr
            return
          </CharString>
          <CharString index="360">
            -79 -88 5 -25 20 -15 34 -6 rlinecurve
            113 63 68 86 19 90 return
          </CharString>
          <CharString index="361">
            200 callsubr
            -5 43 callsubr
            -5 13 return
          </CharString>
          <CharString index="362">
            81 -51 62 -44 -175 -110 -43 -66 11 -52 46 -18 rlinecurve
            114 88 135 100 9 21 5 21 -1 23 rlinecurve
            -180 220 -48 1 -33 -69 17 -64 rlinecurve
            endchar
          </CharString>
          <CharString index="363">
            -341 rmoveto
            -28 9 -26 28 -19 33 34 10 39 7 42 8 -9 -34 -10 -31 -12 -24 rrcurveto
            return
          </CharString>
          <CharString index="364">
            -62 84 -35 87 -4 return
          </CharString>
          <CharString index="365">
            25 -15 21 274 callsubr
            return
          </CharString>
          <CharString index="366">
            -338 110 337 24 callsubr
            return
          </CharString>
          <CharString index="367">
            103 9 101 60 59 vvcurveto
            26 -19 18 -27 12 vhcurveto
            3 7 rlineto
            -6 20 23 -5 24 hhcurveto
            return
          </CharString>
          <CharString index="368">
            46 -21 61 370 callgsubr
            519 callgsubr
            return
          </CharString>
          <CharString index="369">
            397 callgsubr
            70 59 78 71 68 480 callgsubr
            return
          </CharString>
          <CharString index="370">
            191 callgsubr
            -121 -6 return
          </CharString>
          <CharString index="371">
            5 52 -12 19 -49 2 -44 -35 -49 -31 -58 -23 return
          </CharString>
          <CharString index="372">
            17 44 22 76 26 66 31 33 -19 return
          </CharString>
          <CharString index="373">
            16 -1 callsubr
            return
          </CharString>
          <CharString index="374">
            -6 -4 rlineto
            40 -32 -46 56 -27 hhcurveto
            return
          </CharString>
          <CharString index="375">
            52 31 callsubr
            return
          </CharString>
          <CharString index="376">
            42 20 41 22 10 -6 rcurveline
            return
          </CharString>
          <CharString index="377">
            -41 -45 -45 -44 -41 return
          </CharString>
          <CharString index="378">
            6 callsubr
            738 288 49 callgsubr
            return
          </CharString>
          <CharString index="379">
            -89 -74 -120 -64 -135 -37 -30 -44 return
          </CharString>
          <CharString index="380">
            rmoveto
            -101 callgsubr
            return
          </CharString>
          <CharString index="381">
            -79 callgsubr
            rrcurveto
            124 callsubr
            return
          </CharString>
          <CharString index="382">
            203 callsubr
            271 hlineto
            28 -16 22 -16 18 -25 -3 -7 rcurveline
            -61 -40 -103 -38 -86 -40 -27 -21 -18 -38 -3 -42 return
          </CharString>
          <CharString index="383">
            82 84 83 vhcurveto
            297 callsubr
          </CharString>
          <CharString index="384">
            810 rmoveto
            34 28 28 33 34 -28 28 -34 -35 -28 -28 -34 -33 28 -28 35 hvcurveto
            return
          </CharString>
          <CharString index="385">
            540 callgsubr
            -20 31 37 13 40 12 42 13 -9 -34 -12 -33 -12 -28 rrcurveto
            return
          </CharString>
          <CharString index="386">
            -103 -40 313 callgsubr
            34 496 callsubr
            -38 72 return
          </CharString>
          <CharString index="387">
            rmoveto
            -31 12 -25 20 return
          </CharString>
          <CharString index="388">
            378 rmoveto
            -59 -76 return
          </CharString>
          <CharString index="389">
            114 callsubr
            -15 11 -15 12 -13 14 rrcurveto
            return
          </CharString>
          <CharString index="390">
            42 -5 41 75 520 callgsubr
            57 42 rrcurveto
            43 10 callsubr
          </CharString>
          <CharString index="391">
            -10 -32 -26 -21 -34 10 -39 52 -22 49 -1 31 36 rcurveline
            return
          </CharString>
          <CharString index="392">
            55 129 82 85 83 return
          </CharString>
          <CharString index="393">
            -100 callsubr
            133 371 callsubr
            return
          </CharString>
          <CharString index="394">
            272 callsubr
            38 -60 71 -22 99 340 callgsubr
            -43 -59 -22 -98 -53 callsubr
            40 31 rlinecurve
            return
          </CharString>
          <CharString index="395">
            140 callsubr
            -111 -107 -240 -3 -142 vvcurveto
            return
          </CharString>
          <CharString index="396">
            -21 -52 hhcurveto
            -12 -14 2 3 -14 hvcurveto
            65 55 48 60 54 vvcurveto
            76 -100 105 -76 return
          </CharString>
          <CharString index="397">
            196 634 -196 hlineto
            236 -185 rmoveto
            196 185 -196 hlineto
            return
          </CharString>
          <CharString index="398">
            261 callsubr
            -16 -14 -17 -14 return
          </CharString>
          <CharString index="399">
            361 callsubr
            20 return
          </CharString>
          <CharString index="400">
            hlineto
            27 418 callgsubr
            return
          </CharString>
          <CharString index="401">
            28 -29 45 44 vvcurveto
            return
          </CharString>
          <CharString index="402">
            -6 141 callsubr
            31 43 52 23 44 hhcurveto
            18 17 293 callgsubr
            -16 11 -14 12 -14 14 return
          </CharString>
          <CharString index="403">
            -21 rrcurveto
            -650 -182 -93 callsubr
            return
          </CharString>
          <CharString index="404">
            12 -12 -45 -64 -32 -140 -67 callsubr
          </CharString>
          <CharString index="405">
            465 callgsubr
            -48 53 -30 212 callgsubr
            return
          </CharString>
          <CharString index="406">
            rmoveto
            -149 313 callsubr
            return
          </CharString>
          <CharString index="407">
            25 37 17 hvcurveto
            16 61 2 76 -20 return
          </CharString>
          <CharString index="408">
            226 callgsubr
            -102 -68 vhcurveto
            return
          </CharString>
          <CharString index="409">
            -5 hlineto
            -32 32 -61 43 -99 22 return
          </CharString>
          <CharString index="410">
            61 -45 61 -15 58 -5 return
          </CharString>
          <CharString index="411">
            rmoveto
            -146 hlineto
            return
          </CharString>
          <CharString index="412">
            7 2 37 -37 46 -34 99 -17 rlinecurve
            79 30 51 58 28 44 4 32 -37 18 -39 -7 -67 -88 rcurveline
            302 callsubr
            return
          </CharString>
          <CharString index="413">
            -32 -9 13 rcurveline
            47 43 64 48 53 35 13 65 -49 35 -57 18 -37 -14 -31 -14 -45 -11 -6 9 rcurveline
            49 47 91 44 70 32 rrcurveto
            return
          </CharString>
          <CharString index="414">
            hlineto
            -25 -111 -59 -63 -70 -62 353 callsubr
            -28 44 -63 21 -29 497 callsubr
            return
          </CharString>
          <CharString index="415">
            -107 386 256 rmoveto
            -15 -32 -49 -33 -57 -10 -15 7 -14 8 -13 9 44 28 45 28 31 19 20 -7 13 -6 10 -11 rrcurveto
            return
          </CharString>
          <CharString index="416">
            498 callgsubr
            -126 -53 -43 hhcurveto
            -10 -11 1 2 -11 hvcurveto
            -60 callsubr
            201 hlineto
            return
          </CharString>
          <CharString index="417">
            37 -52 62 -32 75 402 callgsubr
            rrcurveto
            381 185 rmoveto
            return
          </CharString>
          <CharString index="418">
            32 callgsubr
            6 -154 rmoveto
            5 -7 -26 -32 return
          </CharString>
          <CharString index="419">
            -93 513 390 rmoveto
            -236 -18 -193 4 -23 -33 -5 -37 15 -18 rlinecurve
            425 10 30 37 5 44 -18 11 rlinecurve
            endchar
          </CharString>
          <CharString index="420">
            hlineto
            -28 8 callsubr
            return
          </CharString>
          <CharString index="421">
            5 40 4 40 2 37 rrcurveto
            return
          </CharString>
          <CharString index="422">
            70 26 36 17 hvcurveto
            return
          </CharString>
          <CharString index="423">
            218 callsubr
            -75 20 -47 -17 return
          </CharString>
          <CharString index="424">
            95 callgsubr
            -112 -107 -240 return
          </CharString>
          <CharString index="425">
            -4 callgsubr
            44 return
          </CharString>
          <CharString index="426">
            12 118 56 100 68 9 -18 6 -16 1 -15 return
          </CharString>
          <CharString index="427">
            116 449 callgsubr
            return
          </CharString>
          <CharString index="428">
            -335 226 610 rmoveto
            51 42 43 51 hvcurveto
            52 -1 -41 42 -52 hhcurveto
            -54 -45 -42 -52 1 hvcurveto
            -51 44 -43 55 vhcurveto
            return
          </CharString>
          <CharString index="429">
            6 -200 118 -144 238 -27 300 26 130 176 39 204 -34 202 -55 138 -283 29 return
          </CharString>
          <CharString index="430">
            -48 -49 -50 -44 15 -41 42 -4 41 382 callgsubr
            return
          </CharString>
          <CharString index="431">
            rrcurveto
            -138 -139 -128 -127 -97 89 -59 125 -1 hvcurveto
            return
          </CharString>
          <CharString index="432">
            -32 -26 -31 -25 rrcurveto
            return
          </CharString>
          <CharString index="433">
            19 -114 -10 rlinecurve
            return
          </CharString>
          <CharString index="434">
            rlineto
            -130 -100 callsubr
            139 hlineto
            -120 -515 -53 callsubr
            40 31 rlinecurve
            7 return
          </CharString>
          <CharString index="435">
            vvcurveto
            -107 114 -93 155 -14 538 callgsubr
            36 38 12 -7 rcurveline
            -37 -65 -44 460 callsubr
            return
          </CharString>
          <CharString index="436">
            354 callgsubr
            43 21 504 callgsubr
            return
          </CharString>
          <CharString index="437">
            164 -105 callsubr
          </CharString>
          <CharString index="438">
            -1 -77 -14 -72 -47 -56 -54 rrcurveto
            return
          </CharString>
          <CharString index="439">
            2 53 -45 36 return
          </CharString>
          <CharString index="440">
            24 -75 69 -77 return
          </CharString>
          <CharString index="441">
            rmoveto
            -40 -37 -46 -38 -37 -32 rrcurveto
            -20 12 -8 18 31 vvcurveto
            51 39 58 56 19 vhcurveto
            27 -16 14 -19 19 -27 rrcurveto
            return
          </CharString>
          <CharString index="442">
            hlineto
            -28 -125 rlineto
            379 callgsubr
            -15 3 return
          </CharString>
          <CharString index="443">
            -77 92 -65 48 18 25 26 -4 415 callsubr
            return
          </CharString>
          <CharString index="444">
            625 -68 callgsubr
            return
          </CharString>
          <CharString index="445">
            -6 callgsubr
            rlineto
            40 -33 -45 56 return
          </CharString>
          <CharString index="446">
            60 -29 381 callsubr
            return
          </CharString>
          <CharString index="447">
            rmoveto
            332 callgsubr
            return
          </CharString>
          <CharString index="448">
            -26 -39 vvcurveto
            -60 -28 -51 -98 -70 vhcurveto
            return
          </CharString>
          <CharString index="449">
            61 -43 90 -10 41 30 rlinecurve
            return
          </CharString>
          <CharString index="450">
            -30 -25 325 callsubr
            return
          </CharString>
          <CharString index="451">
            479 callgsubr
            45 -9 return
          </CharString>
          <CharString index="452">
            18 19 19 21 17 20 return
          </CharString>
          <CharString index="453">
            hmoveto
            59 callsubr
            return
          </CharString>
          <CharString index="454">
            88 -45 36 -68 147 callgsubr
            -66 28 -28 45 -1 44 rrcurveto
            27 16 27 26 21 vhcurveto
            74 19 return
          </CharString>
          <CharString index="455">
            rmoveto
            9 44 44 180 callsubr
            return
          </CharString>
          <CharString index="456">
            -97 callsubr
            -455 -100 callsubr
            458 hlineto
            return
          </CharString>
          <CharString index="457">
            -198 rmoveto
            -61 432 callsubr
            32 hhcurveto
            94 72 50 85 6 494 callgsubr
            return
          </CharString>
          <CharString index="458">
            -198 rmoveto
            458 callsubr
            94 72 50 85 6 84 -16 47 -73 47 -79 -60 rrcurveto
            return
          </CharString>
          <CharString index="459">
            -49 callsubr
            endchar
          </CharString>
          <CharString index="460">
            -61 -39 rlinecurve
            -8 6 345 callsubr
            rlinecurve
            -6 60 return
          </CharString>
          <CharString index="461">
            58 -68 callgsubr
            return
          </CharString>
          <CharString index="462">
            5 rrcurveto
            75 44 57 63 64 vvcurveto
            20 -19 25 -28 22 vhcurveto
            return
          </CharString>
          <CharString index="463">
            -15 17 -11 22 -21 return
          </CharString>
          <CharString index="464">
            185 190 rmoveto
            -36 17 -17 19 -17 11 callsubr
            return
          </CharString>
          <CharString index="465">
            502 callsubr
            64 -22 125 74 140 122 63 84 rrcurveto
            return
          </CharString>
          <CharString index="466">
            171 512 15 callsubr
            return
          </CharString>
          <CharString index="467">
            -100 callsubr
            230 hlineto
            24 -83 2 -33 -1 -33 -3 -32 rlinecurve
            -65 -26 return
          </CharString>
          <CharString index="468">
            155 callsubr
            86 43 return
          </CharString>
          <CharString index="469">
            hlineto
            28 -85 1 -31 -2 -32 -4 -31 rlinecurve
            return
          </CharString>
          <CharString index="470">
            -56 -15 -15 -3 16 23 42 7 72 rrcurveto
            return
          </CharString>
          <CharString index="471">
            293 callsubr
            -3 -28 rlinecurve
            return
          </CharString>
          <CharString index="472">
            54 127 68 87 vvcurveto
            return
          </CharString>
          <CharString index="473">
            -48 -20 -22 -50 -15 -61 return
          </CharString>
          <CharString index="474">
            35 78 48 6 -11 rcurveline
            return
          </CharString>
          <CharString index="475">
            -21 357 callgsubr
            -41 return
          </CharString>
          <CharString index="476">
            -36 -25 3 -75 61 -43 return
          </CharString>
          <CharString index="477">
            -62 -113 -23 return
          </CharString>
          <CharString index="478">
            hlineto
            520 callsubr
            36 -47 67 -21 rlinecurve
            31 43 52 23 44 hhcurveto
            18 17 20 callgsubr
            return
          </CharString>
          <CharString index="479">
            173 callgsubr
            73 141 rlineto
            return
          </CharString>
          <CharString index="480">
            hlineto
            -27 -119 -93 -55 -123 -31 -111 -2 rlinecurve
            return
          </CharString>
          <CharString index="481">
            rmoveto
            -64 28 -28 536 callsubr
            13 17 return
          </CharString>
          <CharString index="482">
            456 callsubr
            2 14 6 13 return
          </CharString>
          <CharString index="483">
            rmoveto
            -695 -103 callgsubr
            return
          </CharString>
          <CharString index="484">
            hhcurveto
            -113 -105 -133 148 callgsubr
            return
          </CharString>
          <CharString index="485">
            49 34 46 36 39 12 -6 rcurveline
            return
          </CharString>
          <CharString index="486">
            -52 31 -35 49 -33 86 -15 rcurveline
            return
          </CharString>
          <CharString index="487">
            501 callsubr
            -75 20 -47 -17 return
          </CharString>
          <CharString index="488">
            44 -63 21 -28 7 -45 2 return
          </CharString>
          <CharString index="489">
            73 123 vvcurveto
            99 -97 61 return
          </CharString>
          <CharString index="490">
            60 -48 34 -50 30 -56 rrcurveto
            return
          </CharString>
          <CharString index="491">
            13 28 4 20 3 return
          </CharString>
          <CharString index="492">
            676 rmoveto
            29 -16 35 -2 31 3 72 161 rcurveline
            15 90 -30 13 -50 0 -56 -13 rlinecurve
            return
          </CharString>
          <CharString index="493">
            -36 -1 rrcurveto
            -142 -139 -137 -124 462 callgsubr
            33 33 44 42 return
          </CharString>
          <CharString index="494">
            14 83 22 69 return
          </CharString>
          <CharString index="495">
            -37 -21 -9 -37 1 -48 29 -50 51 -30 67 -15 53 -4 77 17 34 38 20 56 20 return
          </CharString>
          <CharString index="496">
            vvcurveto
            400 callsubr
            return
          </CharString>
          <CharString index="497">
            -40 rrcurveto
            457 callgsubr
            69 69 callgsubr
            return
          </CharString>
          <CharString index="498">
            457 callgsubr
            70 23 vhcurveto
            return
          </CharString>
          <CharString index="499" raw="1">
            851833fc 12560ab3 aa190b 
          </CharString>
          <CharString index="500">
            18 35 42 17 39 15 56 11 62 38 -1 40 return
          </CharString>
          <CharString index="501">
            176 5 136 rrcurveto
            139 hlineto
            return
          </CharString>
          <CharString index="502">
            3 -23 25 -16 21 -58 5 -44 -43 return
          </CharString>
          <CharString index="503">
            69 28 38 82 -37 43 return
          </CharString>
          <CharString index="504">
            rmoveto
            -6 -3 rlineto
            46 return
          </CharString>
          <CharString index="505">
            9 -62 84 -35 return
          </CharString>
          <CharString index="506">
            hlineto
            -17 -101 callsubr
            93 hlineto
            16 callsubr
            return
          </CharString>
          <CharString index="507">
            30 -54 62 -45 61 -15 354 callgsubr
            return
          </CharString>
          <CharString index="508">
            -39 442 callsubr
            18 21 17 20 314 callgsubr
            return
          </CharString>
          <CharString index="509">
            193 198 rmoveto
            -39 16 -19 24 -13 29 32 14 30 13 29 14 6 -32 -3 return
          </CharString>
          <CharString index="510">
            83 -17 47 -73 48 -78 -60 19 -152 rcurveline
            -61 -90 9 -22 19 -11 32 -1 rlinecurve
            return
          </CharString>
          <CharString index="511">
            -42 callsubr
            -9 -77 return
          </CharString>
          <CharString index="512">
            -1 -18 9 -21 9 -20 11 rrcurveto
            79 45 60 65 66 vvcurveto
            20 -19 25 -28 22 vhcurveto
            return
          </CharString>
          <CharString index="513">
            39 2 37 rrcurveto
            return
          </CharString>
          <CharString index="514">
            533 callsubr
            -21 61 5 49 53 68 33 5 31 -4 20 -26 return
          </CharString>
          <CharString index="515">
            hlineto
            -50 -77 -19 -74 -61 vvcurveto
            -4 -84 57 -115 54 -6 70 7 121 104 return
          </CharString>
          <CharString index="516" raw="1">
            199bf7b0 bfb5c6f8 731d0b 
          </CharString>
          <CharString index="517">
            85 49 callgsubr
            return
          </CharString>
          <CharString index="518">
            342 rmoveto
            -50 -61 -84 -59 -50 -20 -34 4 return
          </CharString>
          <CharString index="519">
            72 70 69 callgsubr
            return
          </CharString>
          <CharString index="520">
            -108 94 -57 124 -2 return
          </CharString>
          <CharString index="521">
            365 callsubr
            -5 return
          </CharString>
          <CharString index="522">
            32 -47 53 -30 41 -17 52 return
          </CharString>
          <CharString index="523">
            hvcurveto
            -14 418 callsubr
            return
          </CharString>
          <CharString index="524">
            37 -40 -51 3 hvcurveto
            return
          </CharString>
          <CharString index="525">
            -53 42 -52 91 -37 return
          </CharString>
          <CharString index="526">
            -24 vhcurveto
            209 2 return
          </CharString>
          <CharString index="527">
            503 callgsubr
            75 13 82 16 62 26 return
          </CharString>
          <CharString index="528">
            -26 -92 -18 -3 4 rcurveline
            -7 -6 rlineto
            -2 hlineto
            -13 -11 rlineto
            -42 -59 -79 -39 return
          </CharString>
          <CharString index="529">
            11 7 7 8 2 17 -5 31 -19 10 -22 -8 -21 -18 -23 -24 -24 rrcurveto
            return
          </CharString>
          <CharString index="530">
            -12 85 -29 453 callsubr
            return
          </CharString>
          <CharString index="531">
            -72 90 -11 vhcurveto
            93 29 98 73 71 74 12 -10 rcurveline
            -40 -68 -33 -146 return
          </CharString>
          <CharString index="532">
            80 callgsubr
            37 -53 63 -31 74 -16 53 1 70 25 17 36 return
          </CharString>
          <CharString index="533">
            -13 -37 11 -45 63 -30 86 9 23 150 45 224 46 133 rrcurveto
            return
          </CharString>
          <CharString index="534">
            -3 -30 367 callgsubr
            return
          </CharString>
          <CharString index="535">
            41 -19 18 -20 16 -22 14 rrcurveto
            return
          </CharString>
          <CharString index="536">
            417 callgsubr
            rrcurveto
            return
          </CharString>
          <CharString index="537">
            -34 443 callgsubr
            return
          </CharString>
          <CharString index="538">
            442 callsubr
            17 return
          </CharString>
          <CharString index="539">
            -90 rlineto
            -23 9 19 -11 return
          </CharString>
          <CharString index="540">
            45 326 callgsubr
            return
          </CharString>
          <CharString index="541">
            -45 68 -77 17 -41 -17 return
          </CharString>
          <CharString index="542">
            11 -7 rcurveline
            -36 return
          </CharString>
          <CharString index="543">
            17 -42 -17 -27 -32 -44 -52 -42 -44 -46 10 -41 36 -5 45 75 50 return
          </CharString>
          <CharString index="544">
            hlineto
            11 -47 35 -45 43 -30 444 callgsubr
            448 callsubr
            -68 -12 return
          </CharString>
          <CharString index="545">
            -43 6 -76 133 264 callgsubr
            return
          </CharString>
          <CharString index="546">
            rmoveto
            11 50 33 64 37 5 32 -16 17 -43 5 -33 -16 -43 -33 -38 return
          </CharString>
          <CharString index="547" raw="1">
            e38df70c 8ac540f6 34960b 
          </CharString>
          <CharString index="548">
            -9 13 rcurveline
            45 44 return
          </CharString>
          <CharString index="549">
            443 callsubr
            19 return
          </CharString>
          <CharString index="550">
            -8 6 rcurveline
            18 return
          </CharString>
          <CharString index="551">
            -10 -46 callsubr
            return
          </CharString>
          <CharString index="552">
            -7 rcurveline
            -72 -56 -120 -24 -17 -54 rrcurveto
            -59 64 -62 85 -18 vhcurveto
            return
          </CharString>
          <CharString index="553" raw="1">
            f919fad0 f843f821 0a7c6fb7 611b0b
          </CharString>
          <CharString index="554">
            135 34 496 callsubr
            -38 72 -76 20 -46 -17 -34 -33 return
          </CharString>
          <CharString index="555">
            -36 -48 -58 -39 return
          </CharString>
          <CharString index="556">
            93 -6 146 return
          </CharString>
          <CharString index="557">
            19 0 18 -5 16 -18 17 -19 15 -21 14 rrcurveto
            715 hlineto
            return
          </CharString>
          <CharString index="558">
            -51 callsubr
            -9 return
          </CharString>
          <CharString index="559">
            383 -99 callsubr
            return
          </CharString>
          <CharString index="560">
            2 213 callgsubr
            -109 5 -36 -32 8 -63 return
          </CharString>
          <CharString index="561">
            472 callgsubr
            rrcurveto
            return
          </CharString>
          <CharString index="562">
            -22 -118 512 callsubr
            return
          </CharString>
          <CharString index="563">
            26 -3 31 304 callgsubr
            return
          </CharString>
          <CharString index="564">
            43 10 -11 rcurveline
            -51 -72 -27 -112 return
          </CharString>
          <CharString index="565">
            -60 -90 rlineto
            -23 8 20 -11 31 hhcurveto
            return
          </CharString>
          <CharString index="566">
            72 128 vvcurveto
            99 -97 61 return
          </CharString>
          <CharString index="567">
            -103 -40 -100 9 -45 62 -33 return
          </CharString>
          <CharString index="568">
            -12 -15 12 -14 12 -14 13 return
          </CharString>
          <CharString index="569">
            502 callgsubr
            -96 -18 return
          </CharString>
          <CharString index="570">
            -21 -4 -8 rcurveline
            -59 -20 return
          </CharString>
          <CharString index="571">
            -49 -6 -6 rcurveline
            -44 38 return
          </CharString>
          <CharString index="572">
            500 callgsubr
            -41 -2 return
          </CharString>
          <CharString index="573">
            -6 25 -26 -39 vvcurveto
            -60 return
          </CharString>
          <CharString index="574">
            482 callgsubr
            99 -72 return
          </CharString>
          <CharString index="575">
            vvcurveto
            -76 91 -122 return
          </CharString>
          <CharString index="576">
            435 callsubr
            -65 return
          </CharString>
          <CharString index="577">
            -12 -2 -8 rcurveline
            return
          </CharString>
          <CharString index="578">
            209 2 140 137 -9 138 -36 36 -65 35 return
          </CharString>
          <CharString index="579">
            273 callgsubr
            -82 callgsubr
            return
          </CharString>
          <CharString index="580" raw="1">
            cef8080a 0b  
          </CharString>
          <CharString index="581">
            22 -36 263 callsubr
            return
          </CharString>
          <CharString index="582">
            12 54 34 54 35 38 21 22 -6 19 -10 12 -13 rrcurveto
            return
          </CharString>
          <CharString index="583">
            468 callsubr
            107 -58 vhcurveto
            430 callgsubr
            return
          </CharString>
          <CharString index="584">
            -25 5 40 4 return
          </CharString>
          <CharString index="585">
            -30 42 -38 34 return
          </CharString>
          <CharString index="586" raw="1">
            f70570b8 0b  
          </CharString>
          <CharString index="587">
            16 34 25 rlinecurve
            return
          </CharString>
          <CharString index="588">
            1 -29 -2 -29 return
          </CharString>
          <CharString index="589">
            19 -18 18 -17 return
          </CharString>
          <CharString index="590">
            320 rmoveto
            -11 -10 -12 -11 -12 -11 -40 35 -36 37 return
          </CharString>
          <CharString index="591">
            rmoveto
            -883 185 callsubr
            return
          </CharString>
          <CharString index="592">
            12 callgsubr
            41 30 rlinecurve
            return
          </CharString>
          <CharString index="593">
            -6 -15 30 -17 31 -12 34 -80 6 -32 -46 -8 -56 return
          </CharString>
          <CharString index="594">
            rrcurveto
            199 -105 callsubr
          </CharString>
          <CharString index="595">
            65 vvcurveto
            20 -19 25 -28 22 vhcurveto
            return
          </CharString>
          <CharString index="596">
            9 -59 -4 -66 -41 -77 -82 -55 return
          </CharString>
          <CharString index="597">
            rlinecurve
            25 -44 125 -20 61 39 return
          </CharString>
          <CharString index="598">
            19 -17 32 23 12 26 13 28 return
          </CharString>
          <CharString index="599">
            -4 -32 40 -29 41 -42 15 rlinecurve
            return
          </CharString>
          <CharString index="600">
            250 callgsubr
            rrcurveto
            return
          </CharString>
          <CharString index="601">
            45 382 callgsubr
            return
          </CharString>
          <CharString index="602">
            -17 -45 23 -39 64 return
          </CharString>
          <CharString index="603">
            127 45 115 return
          </CharString>
          <CharString index="604">
            7 -44 2 -44 -4 return
          </CharString>
          <CharString index="605">
            48 18 25 26 -3 return
          </CharString>
          <CharString index="606">
            -12 rcurveline
            -42 -67 return
          </CharString>
          <CharString index="607">
            rcurveline
            154 hlineto
            return
          </CharString>
          <CharString index="608">
            115 -38 72 return
          </CharString>
          <CharString index="609">
            -72 -143 -110 -147 -44 -17 -45 24 -39 return
          </CharString>
          <CharString index="610">
            -40 409 callgsubr
            return
          </CharString>
          <CharString index="611">
            430 callgsubr
            -87 37 -36 46 -21 61 return
          </CharString>
          <CharString index="612">
            23 65 66 102 rcurveline
            145 hlineto
            -35 -157 -72 return
          </CharString>
          <CharString index="613">
            -798 -100 callsubr
            return
          </CharString>
          <CharString index="614">
            3 52 48 63 35 9 31 -4 19 -22 6 -24 return
          </CharString>
          <CharString index="615">
            2 82 -45 35 -64 -7 -30 -49 -53 -51 -61 -23 return
          </CharString>
          <CharString index="616">
            -51 -14 -59 -9 -62 -3 -49 -32 26 -68 64 -29 return
          </CharString>
          <CharString index="617">
            326 callgsubr
            rlinecurve
            254 callgsubr
            return
          </CharString>
          <CharString index="618">
            -1 -60 -88 -20 -126 rrcurveto
            -137 -22 75 -82 return
          </CharString>
          <CharString index="619">
            9 257 callsubr
            return
          </CharString>
          <CharString index="620">
            -23 -19 21 29 47 40 return
          </CharString>
          <CharString index="621">
            449 callgsubr
            -27 -32 return
          </CharString>
          <CharString index="622">
            495 callsubr
            -22 return
          </CharString>
          <CharString index="623">
            hlineto
            -51 -234 rmoveto
            -44 return
          </CharString>
          <CharString index="624">
            -14 40 333 callgsubr
            return
          </CharString>
          <CharString index="625">
            481 callsubr
            -4 -28 return
          </CharString>
          <CharString index="626">
            -12 -25 -51 hvcurveto
            return
          </CharString>
          <CharString index="627">
            -6 -4 -20 -39 return
          </CharString>
          <CharString index="628">
            rmoveto
            -406 hlineto
            return
          </CharString>
          <CharString index="629" raw="1">
            4c59fb6f 560ab3aa 190b 
          </CharString>
          <CharString index="630">
            138 -32 32 -56 32 -52 22 134 38 return
          </CharString>
          <CharString index="631">
            rcurveline
            295 429 callsubr
            return
          </CharString>
          <CharString index="632">
            23 -14 21 -61 15 -58 -54 -30 -73 59 -70 return
          </CharString>
          <CharString index="633">
            11 -47 -10 -32 -26 -21 -34 10 -39 52 -22 return
          </CharString>
          <CharString index="634">
            11 126 80 83 78 8 -9 rcurveline
            -43 -54 return
          </CharString>
          <CharString index="635">
            -7 vvcurveto
            -70 125 -85 72 55 129 82 return
          </CharString>
          <CharString index="636">
            51 40 58 55 19 vhcurveto
            28 -16 13 -19 20 return
          </CharString>
          <CharString index="637">
            65 132 vvcurveto
            97 -93 64 -130 -23 vhcurveto
            return
          </CharString>
          <CharString index="638">
            73 25 37 24 hvcurveto
            15 37 17 55 16 61 return
          </CharString>
          <CharString index="639">
            hhcurveto
            513 callsubr
            return
          </CharString>
          <CharString index="640">
            66 -27 43 -86 37 -36 46 return
          </CharString>
          <CharString index="641">
            13 78 8 82 2 66 rrcurveto
            return
          </CharString>
          <CharString index="642">
            449 274 rmoveto
            -54 -44 return
          </CharString>
          <CharString index="643">
            41 515 callgsubr
            return
          </CharString>
          <CharString index="644">
            hlineto
            -115 -515 return
          </CharString>
          <CharString index="645">
            rmoveto
            -29 14 -26 19 return
          </CharString>
          <CharString index="646">
            -39 rlinecurve
            -8 6 18 return
          </CharString>
          <CharString index="647">
            -10 5 rcurveline
            14 return
          </CharString>
          <CharString index="648">
            -55 6 48 -62 40 hhcurveto
            57 8 51 60 return
          </CharString>
          <CharString index="649">
            62 -45 61 -15 58 -5 549 callsubr
            return
          </CharString>
          <CharString index="650">
            rcurveline
            -42 41 -50 55 -35 44 32 50 rcurveline
            return
          </CharString>
          <CharString index="651">
            -19 rlinecurve
            42 47 47 22 57 hhcurveto
            5 -8 return
          </CharString>
          <CharString index="652">
            -56 -120 -24 -18 -54 rrcurveto
            -59 65 -62 return
          </CharString>
          <CharString index="653">
            -74 callsubr
            40 31 rlinecurve
            17 294 41 return
          </CharString>
          <CharString index="654">
            55 -6 -48 62 -40 hhcurveto
            -57 -8 -51 -60 return
          </CharString>
          <CharString index="655">
            -82 50 -62 45 176 110 43 65 return
          </CharString>
          <CharString index="656">
            78 18 35 42 return
          </CharString>
          <CharString index="657">
            -52 hvcurveto
            -1 1 return
          </CharString>
        <CharString name=".notdef">
          99 166 hmoveto
          422 701 -422 hlineto
          73 -68 rmoveto
          277 -565 -277 hlineto
          endchar
        </CharString>
        <CharString name="A">
          76 426 616 -89 callsubr
          endchar
        </CharString>
        <CharString name="AE">
          255 700 747 rmoveto
          -153 -147 -11 -30 -93 hvcurveto
          -67 -207 -62 -123 rlineto
          -119 hlineto
          -32 -40 -1 -26 26 -29 79 7 rcurveline
          -137 -245 21 -40 114 -18 64 35 rlinecurve
          109 277 142 11 -58 -250 rlineto
          -36 28 41 -22 73 hhcurveto
          73 153 12 16 81 hvcurveto
          16 31 22 76 -54 25 -91 -23 -105 -22 -78 -6 rrcurveto
          74 vlineto
          32 133 91 11 57 0 89 -6 rlinecurve
          32 32 6 59 -34 16 -88 -8 -82 -11 -64 -9 -1 167 rcurveline
          29 69 61 9 49 4 46 -9 rlinecurve
          75 -61 70 48 30 63 -41 51 rlinecurve
          3 -54 -75 3 -73 hhcurveto
          -269 -122 rmoveto
          14 3 6 -248 -120 -10 rlineto
          endchar
        </CharString>
        <CharString name="Aacute">
          76 706 973 42 callgsubr
          -84 -185 -89 callsubr
          endchar
        </CharString>
        <CharString name="Abreve">
          76 499 811 rmoveto
          55 callsubr
          -100 17 82 -53 83 hhcurveto
          -73 -195 -89 callsubr
          endchar
        </CharString>
        <CharString name="Acircumflex">
          76 493 940 rmoveto
          3 callsubr
          -193 -178 3 -28 33 -13 37 1 rlinecurve
          88 -188 -89 callsubr
          endchar
        </CharString>
        <CharString name="Adieresis">
          76 611 850 0 callgsubr
          62 -206 -89 callsubr
          endchar
        </CharString>
        <CharString name="Agrave">
          76 476 806 197 callsubr
          16 -283 -89 callsubr
          endchar
        </CharString>
        <CharString name="Amacron">
          76 652 824 189 callsubr
          128 -197 -89 callsubr
          endchar
        </CharString>
        <CharString name="Aogonek">
          76 426 616 rmoveto
          14 3 9 -279 -125 -1 rlineto
          296 -328 rmoveto
          6 2 5 3 5 4 -25 266 rcurveline
          100 7 27 43 1 31 -23 20 rlinecurve
          -112 -20 -18 191 22 167 -49 25 -132 11 -122 -53 rlinecurve
          -67 -219 -79 -152 -109 -1 -31 -40 0 -27 27 -28 rlinecurve
          67 7 -106 -205 23 -40 114 -18 62 35 rlinecurve
          91 245 16 2 128 8 -31 -236 13 -9 16 -8 17 -6 rlinecurve
          -63 -39 -54 -55 -61 vvcurveto
          -57 86 -51 84 98 61 31 52 49 vhcurveto
          34 -15 18 -24 -1 vhcurveto
          -24 -34 -43 -16 -39 hhcurveto
          -33 -27 12 23 -16 hvcurveto
          21 66 58 44 55 18 rrcurveto
          endchar
        </CharString>
        <CharString name="Aring">
          76 474 917 40 callsubr
          -42 -181 -89 callsubr
          endchar
        </CharString>
        <CharString name="Atilde">
          76 426 616 -89 callsubr
          -96 501 rmoveto
          302 callsubr
          37 callgsubr
          rrcurveto
          endchar
        </CharString>
        <CharString name="B">
          48 495 537 rmoveto
          -4 -49 -18 -27 -35 -34 -40 -19 -39 -4 -54 1 35 246 rcurveline
          116 17 48 -61 -9 -70 rrcurveto
          -254 -445 rmoveto
          52 243 78 7 42 -11 43 -22 rlinecurve
          15 -28 4 -20 -20 vvcurveto
          1 -44 -14 -40 -34 -44 -58 -18 -68 -9 -61 6 rrcurveto
          284 294 rmoveto
          105 43 53 53 1 88 rrcurveto
          92 2 -98 84 -215 hhcurveto
          -69 -124 -11 -20 -67 hvcurveto
          -18 -19 3 -32 26 -19 46 2 rcurveline
          6 -162 -24 -120 -38 -116 -51 -138 rlinecurve
          4 -63 76 -37 64 -11 158 -6 78 12 116 37 rrcurveto
          83 76 24 61 65 vvcurveto
          1 32 -9 29 -24 29 -26 19 -36 17 -48 7 rrcurveto
          endchar
        </CharString>
        <CharString name="C">
          27 440 666 20 callsubr
        </CharString>
        <CharString name="CR">
          -217 endchar
        </CharString>
        <CharString name="Cacute">
          27 500 1033 -49 callsubr
          -60 -367 20 callsubr
        </CharString>
        <CharString name="Ccaron">
          27 539 824 rmoveto
          163 159 -24 54 -85 -13 -33 -9 rlinecurve
          -125 -143 -40 callsubr
          -99 -158 20 callsubr
        </CharString>
        <CharString name="Ccedilla">
          27 440 666 rmoveto
          34 -38 7 -70 3 -58 76 -37 89 35 24 45 -12 93 -50 81 -116 42 -150 -21 -106 -59 -100 -95 -56 -92 -31 -77 -2 -89 -1 -154 88 -119 179 -44 -53 -107 rcurveline
          -65 callgsubr
          46 89 94 36 86 52 51 56 rlinecurve
          2 43 -18 33 -51 -5 -51 -42 -61 -36 -86 -31 -90 43 -44 62 1 113 rrcurveto
          111 67 130 114 79 vhcurveto
          endchar
        </CharString>
        <CharString name="D">
          86 277 331 rmoveto
          33 111 28 100 26 94 139 -5 47 -94 -1 -135 -1 -109 -54 -100 -96 -74 -45 -16 -47 -7 -60 -3 rrcurveto
          -80 521 rmoveto
          -3 -149 -29 -133 -37 -94 -53 -126 34 callgsubr
        </CharString>
        <CharString name="Dcaron">
          86 663 983 rmoveto
          -24 54 -85 -13 -33 -9 -125 -143 rcurveline
          -40 callsubr
          -223 -493 rmoveto
          33 111 28 100 26 94 139 -5 47 -94 -1 -135 -1 -109 -54 -100 -96 -74 -45 -16 -47 -7 -60 -3 rrcurveto
          -80 521 rmoveto
          -3 -149 -29 -133 -37 -94 -53 -126 34 callgsubr
        </CharString>
        <CharString name="Dcroat">
          38 callsubr
        </CharString>
        <CharString name="E">
          -15 callgsubr
          endchar
        </CharString>
        <CharString name="Eacute">
          3 498 1033 -49 callsubr
          12 -391 -88 callgsubr
          endchar
        </CharString>
        <CharString name="Ecaron">
          3 538 824 rmoveto
          163 159 -24 54 -85 -13 -33 -9 rlinecurve
          -125 -143 -40 callsubr
          -28 -182 -88 callgsubr
          endchar
        </CharString>
        <CharString name="Ecircumflex">
          3 221 844 rmoveto
          3 -28 33 -13 37 1 155 136 rcurveline
          3 callsubr
          96 -380 -88 callgsubr
          endchar
        </CharString>
        <CharString name="Edieresis">
          3 320 822 -22 callgsubr
          -57 -208 -88 callgsubr
          endchar
        </CharString>
        <CharString name="Edotaccent">
          -15 callgsubr
          -72 187 124 callgsubr
          endchar
        </CharString>
        <CharString name="Egrave">
          -15 callgsubr
          -68 387 79 callgsubr
          endchar
        </CharString>
        <CharString name="Emacron">
          -15 callgsubr
          114 259 43 callgsubr
          endchar
        </CharString>
        <CharString name="Eogonek">
          1 294 328 rmoveto
          83 78 -6 -7 75 hvcurveto
          24 40 12 54 -33 28 -74 -7 -72 -10 -82 -11 27 144 rcurveline
          31 85 64 10 39 -4 44 -2 rlinecurve
          88 -78 77 39 29 66 -37 68 rlinecurve
          -219 13 -126 -4 -205 -17 -15 -15 -2 -31 10 -27 26 -6 21 -6 18 -8 2 -143 rcurveline
          -33 -154 -29 -80 -54 -146 5 -57 46 -35 87 -21 188 13 rcurveline
          -58 -39 -39 -52 -48 vvcurveto
          -67 73 -54 99 79 62 31 52 47 vhcurveto
          1 28 -12 20 -30 -1 rrcurveto
          -29 -36 -44 -16 -40 hhcurveto
          -34 -27 10 18 -19 hvcurveto
          16 75 75 58 69 27 36 44 18 76 -63 20 -95 -24 -116 -21 -100 -15 rrcurveto
          endchar
        </CharString>
        <CharString name="Eth">
          38 callsubr
        </CharString>
        <CharString name="Euro">
          104 545 260 rmoveto
          26 33 4 40 -30 11 -215 -29 rcurveline
          -1 9 0 8 9 vvcurveto
          16 1 16 2 16 vhcurveto
          227 11 26 34 4 39 -31 11 rlinecurve
          -212 -29 23 72 46 72 80 62 rlinecurve
          20 5 31 -41 5 -26 11 -53 rlinecurve
          77 -36 86 35 16 56 -39 88 -38 43 -112 27 -120 -23 -107 -54 -100 -96 -28 -50 -22 -45 -14 -45 -95 9 rcurveline
          -25 -25 -4 -36 20 -19 88 4 rcurveline
          -2 -17 -2 -18 -18 -7 0 -7 -6 vvcurveto
          -93 9 -26 -25 -4 -37 20 -18 rlinecurve
          113 6 30 -123 99 -89 171 -29 rlinecurve
          111 36 107 60 59 65 2 43 -18 33 -50 -5 -56 -45 -61 -36 -81 -28 -60 30 -42 39 -20 58 rrcurveto
          endchar
        </CharString>
        <CharString name="F">
          -17 363 638 rmoveto
          64 10 39 -4 44 -2 88 -78 rcurveline
          77 39 29 66 -37 68 -219 13 -126 -3 -205 -18 -15 -15 -2 -30 10 -28 26 -5 21 -7 18 -7 6 -136 rcurveline
          -27 -162 -31 -122 -63 -169 35 -47 131 -15 46 36 4 123 4 70 11 91 rrcurveto
          87 77 -4 -9 71 hvcurveto
          31 45 1 57 -27 21 -67 -8 -82 -9 -79 -12 29 167 rcurveline
          endchar
        </CharString>
        <CharString name="G">
          68 570 222 -23 callgsubr
          endchar
        </CharString>
        <CharString name="Gbreve">
          68 570 222 -23 callgsubr
          -244 737 rmoveto
          -100 17 82 -53 83 hhcurveto
          55 callsubr
          endchar
        </CharString>
        <CharString name="H">
          148 705 455 rmoveto
          85 277 rlineto
          11 -22 357 callgsubr
          -41 -49 519 callsubr
          -2 -180 -6 -33 -6 -33 -6 -32 rlinecurve
          -182 -25 -73 1 1 11 1 11 1 11 rlinecurve
          89 290 rlineto
          11 -22 357 callgsubr
          -42 -48 519 callsubr
          -2 -180 -7 -41 -8 -40 -7 -39 rlinecurve
          -81 1 -32 -42 0 -29 26 -32 rlinecurve
          67 6 -20 -90 -23 -86 -30 -90 rlinecurve
          22 -46 133 -20 56 39 9 111 8 106 7 92 rrcurveto
          5 hlineto
          240 17 -22 -102 -25 -96 -33 -101 rlinecurve
          22 -46 133 -20 56 39 10 123 8 116 9 98 92 7 rcurveline
          28 48 2 34 -29 18 rrcurveto
          endchar
        </CharString>
        <CharString name="I">
          -45 callgsubr
          endchar
        </CharString>
        <CharString name="Iacute">
          -45 callgsubr
          190 322 352 callsubr
        </CharString>
        <CharString name="Icircumflex">
          -45 callgsubr
          -87 133 rmoveto
          3 -28 33 -13 37 1 155 136 rcurveline
          3 callsubr
          endchar
        </CharString>
        <CharString name="Idieresis">
          -45 callgsubr
          11 111 -22 callgsubr
          endchar
        </CharString>
        <CharString name="Idotaccent">
          -45 callgsubr
          129 118 124 callgsubr
          endchar
        </CharString>
        <CharString name="Igrave">
          -45 callgsubr
          133 318 79 callgsubr
          endchar
        </CharString>
        <CharString name="Imacron">
          -45 callgsubr
          316 190 43 callgsubr
          endchar
        </CharString>
        <CharString name="Iogonek">
          -338 208 12 rmoveto
          7 3 6 3 5 4 13 160 10 148 10 112 89 290 rcurveline
          11 368 callsubr
          -49 519 callsubr
          -2 -180 -31 -176 -32 -147 -52 -159 rlinecurve
          7 -15 18 -12 24 -8 rrcurveto
          -59 -34 -46 -51 -59 vvcurveto
          -62 73 -56 97 75 74 30 54 39 vhcurveto
          7 30 -14 19 -37 -2 rrcurveto
          -28 -34 -41 -14 -38 hhcurveto
          -32 -30 10 21 -20 hvcurveto
          5 64 84 58 41 17 rrcurveto
          endchar
        </CharString>
        <CharString name="J">
          25 359 631 rmoveto
          -1 -101 -19 -165 -26 -103 -35 -153 rlinecurve
          -20 -8 -33 45 -15 31 -12 72 rlinecurve
          -59 32 -69 -23 -51 -65 33 -84 61 -63 81 -40 133 -19 78 33 52 69 5 149 5 72 7 117 52 214 rcurveline
          187 -31 45 62 -4 39 -21 24 rlinecurve
          -242 15 -122 -4 -233 -17 -19 -40 3 -36 38 -47 rrcurveto
          endchar
        </CharString>
        <CharString name="K">
          48 397 502 89 callsubr
        </CharString>
        <CharString name="L">
          -79 150 711 30 callgsubr
        </CharString>
        <CharString name="Lacute">
          -79 325 1033 -49 callsubr
          -175 -322 30 callgsubr
        </CharString>
        <CharString name="Lcaron">
          -79 467 545 rmoveto
          93 72 50 86 7 403 callsubr
          -317 166 30 callgsubr
        </CharString>
        <CharString name="Lslash">
          -7 338 392 rmoveto
          179 23 35 51 -24 40 -41 9 rlinecurve
          -128 -44 80 261 -56 28 -83 -10 -77 -39 rlinecurve
          -3 -183 -8 -37 -7 -36 -9 -35 rlinecurve
          -159 -6 -20 -24 5 -50 46 -31 rlinecurve
          109 36 -21 -77 -25 -76 -30 -81 rlinecurve
          14 -53 55 -37 66 -21 346 40 rcurveline
          26 32 16 75 -57 24 -87 -25 -83 -21 -101 -17 rrcurveto
          endchar
        </CharString>
        <CharString name="M">
          219 605 498 rmoveto
          -147 -204 -46 81 -32 123 -20 108 -4 110 rlinecurve
          22 -33 -35 9 -34 hhcurveto
          -40 -39 -11 -24 -39 hvcurveto
          -9 -183 -28 -169 -32 -146 -55 -165 rlinecurve
          22 -46 133 -20 55 39 13 164 14 147 8 109 16 55 rcurveline
          14 -81 21 -86 40 -102 41 -41 53 -11 62 26 175 279 rcurveline
          -4 -27 -22 -136 -27 -111 -50 -158 rlinecurve
          23 -46 132 -20 56 39 10 151 12 141 10 124 85 280 rcurveline
          22 -17 -32 8 -35 hhcurveto
          -37 -39 -14 -12 -31 hvcurveto
          endchar
        </CharString>
        <CharString name="N">
          107 580 524 -73 callsubr
        </CharString>
        <CharString name="NULL">
          endchar
        </CharString>
        <CharString name="Nacute">
          107 694 973 42 callgsubr
          82 -277 -73 callsubr
        </CharString>
        <CharString name="Ncaron">
          107 732 983 rmoveto
          -24 54 -85 -13 -33 -9 -125 -143 rcurveline
          -40 callsubr
          11 -300 -73 callsubr
        </CharString>
        <CharString name="Ntilde">
          107 400 887 233 callsubr
          247 -280 -73 callsubr
        </CharString>
        <CharString name="O">
          118 callsubr
          endchar
        </CharString>
        <CharString name="OE">
          370 583 694 rmoveto
          29 -40 -54 35 -56 hhcurveto
          -204 -186 -223 -218 1 hvcurveto
          -145 150 -172 127 54 61 30 30 42 vhcurveto
          32 -31 28 -16 54 -12 346 25 rcurveline
          36 45 18 75 -63 20 -99 -24 -109 -21 -96 -13 36 220 rcurveline
          82 -1 85 -6 70 -6 23 40 12 54 -33 28 -68 -6 -81 -9 -79 -11 15 176 rcurveline
          36 50 64 14 47 -3 44 -2 rlinecurve
          88 -79 76 39 29 66 -36 69 rlinecurve
          -211 11 -123 -5 -118 -53 rrcurveto
          -357 -362 rmoveto
          116 84 144 113 75 vhcurveto
          82 -81 28 -65 3 -116 -30 -136 -75 -110 -107 -67 -61 59 -38 86 1 95 rrcurveto
          endchar
        </CharString>
        <CharString name="Oacute">
          46 509 1033 -49 callsubr
          -466 -716 -80 callsubr
          endchar
        </CharString>
        <CharString name="Ocircumflex">
          46 232 844 rmoveto
          3 -28 33 -13 37 1 155 136 rcurveline
          3 callsubr
          -382 -705 -80 callsubr
          endchar
        </CharString>
        <CharString name="Odieresis">
          46 331 822 -22 callgsubr
          -535 -533 -80 callsubr
          endchar
        </CharString>
        <CharString name="Ograve">
          118 callsubr
          -75 657 79 callgsubr
          endchar
        </CharString>
        <CharString name="Ohungarumlaut">
          46 274 810 110 callgsubr
          -503 -671 -80 callsubr
          endchar
        </CharString>
        <CharString name="Omacron">
          46 635 901 43 callgsubr
          -592 -584 -80 callsubr
          endchar
        </CharString>
        <CharString name="Oslash">
          105 538 441 rmoveto
          4 -22 2 -23 3 -24 -30 -110 -73 -102 -102 -68 -35 35 -27 43 -16 50 rrcurveto
          -16 71 rmoveto
          -2 14 -1 13 14 vvcurveto
          116 85 144 113 75 vhcurveto
          41 -52 25 -54 15 -57 rrcurveto
          282 153 rmoveto
          -5 54 -39 29 -74 6 -59 -102 rcurveline
          69 -54 -67 45 -56 hhcurveto
          -203 -186 -223 -218 -45 15 -48 24 -45 hvcurveto
          -103 -79 3 -56 34 -24 70 -20 rlinecurve
          57 95 rlineto
          -56 52 65 -39 61 hhcurveto
          171 209 221 185 -3 hvcurveto
          -1 52 -13 52 -22 47 rrcurveto
          endchar
        </CharString>
        <CharString name="Otilde">
          118 callsubr
          -137 613 rmoveto
          37 callgsubr
          -67 -88 rcurveline
          -5 hlineto
          -32 32 -61 43 -99 22 rrcurveto
          endchar
        </CharString>
        <CharString name="P">
          22 355 656 rmoveto
          102 -8 60 -62 1 -68 rrcurveto
          -55 -24 -54 -37 -35 vhcurveto
          -33 -22 -59 -20 -68 -15 3 42 3 41 3 44 rrcurveto
          -134 198 rmoveto
          3 -124 -30 -176 -28 -122 -54 -174 rlinecurve
          31 -48 132 -12 48 37 7 78 5 70 5 68 95 11 69 20 58 18 116 59 63 69 2 108 rrcurveto
          114 1 -138 118 -201 hhcurveto
          -90 -89 -13 -22 -65 hvcurveto
          -17 -18 4 -36 26 -20 rrcurveto
          endchar
        </CharString>
        <CharString name="Q">
          53 423 667 rmoveto
          71 -90 21 -93 12 -112 -30 -110 -74 -102 -101 -68 -59 59 -37 86 -1 95 rrcurveto
          116 84 144 114 75 vhcurveto
          5 -642 rmoveto
          140 64 132 170 -2 147 rrcurveto
          178 -3 -154 174 -109 hhcurveto
          -204 -185 -223 -218 hvcurveto
          -145 1 149 -172 128 hhcurveto
          10 hlineto
          92 -179 72 -28 98 31 8 99 rlinecurve
          -147 56 rlineto
          endchar
        </CharString>
        <CharString name="R">
          47 356 657 -77 callgsubr
          endchar
        </CharString>
        <CharString name="Racute">
          47 604 973 42 callgsubr
          -52 -144 -77 callgsubr
          endchar
        </CharString>
        <CharString name="Rcaron">
          47 642 983 rmoveto
          -24 54 -85 -13 -33 -9 -125 -143 rcurveline
          -40 callsubr
          -123 -167 -77 callgsubr
          endchar
        </CharString>
        <CharString name="S">
          21 642 254 rmoveto
          -41 callsubr
          38 -77 115 -71 122 -22 192 20 137 92 22 142 rrcurveto
          endchar
        </CharString>
        <CharString name="Sacute">
          21 485 1033 -49 callsubr
          157 -779 rmoveto
          -41 callsubr
          38 -77 115 -71 122 -22 192 20 137 92 22 142 rrcurveto
          endchar
        </CharString>
        <CharString name="Scaron">
          21 524 824 rmoveto
          163 159 -24 54 -85 -13 -33 -9 rlinecurve
          -125 -143 -40 callsubr
          118 -570 rmoveto
          -41 callsubr
          38 -77 115 -71 122 -22 192 20 137 92 22 142 rrcurveto
          endchar
        </CharString>
        <CharString name="T">
          15 309 627 54 callsubr
        </CharString>
        <CharString name="Tcaron">
          15 682 983 rmoveto
          -24 54 -85 -13 -33 -9 -125 -143 rcurveline
          -40 callsubr
          -210 -197 54 callsubr
        </CharString>
        <CharString name="Thorn">
          6 439 296 rmoveto
          -42 -29 -59 -6 -66 13 6 82 7 85 6 78 29 13 39 11 47 -1 52 -16 34 -40 1 -70 2 -43 -20 -41 -36 -36 rrcurveto
          -75 530 rmoveto
          -59 25 -74 -10 -76 -46 5 -256 rcurveline
          -34 -186 -37 -160 -55 -146 24 -44 143 -20 51 42 5 54 5 62 5 65 66 -13 72 -2 92 18 119 68 54 60 -1 87 1 124 -117 70 -139 19 -34 -6 -42 -15 -38 -17 rrcurveto
          endchar
        </CharString>
        <CharString name="U">
          -3 callsubr
          endchar
        </CharString>
        <CharString name="Uacute">
          31 494 1033 -49 callsubr
          160 -690 -85 callgsubr
          endchar
        </CharString>
        <CharString name="Ucircumflex">
          31 217 844 rmoveto
          3 -28 33 -13 37 1 155 136 rcurveline
          3 callsubr
          244 -679 -85 callgsubr
          endchar
        </CharString>
        <CharString name="Udieresis">
          31 315 822 -22 callgsubr
          92 -507 -85 callgsubr
          endchar
        </CharString>
        <CharString name="Ugrave">
          -3 callsubr
          -217 686 79 callgsubr
          endchar
        </CharString>
        <CharString name="Uhungarumlaut">
          -3 callsubr
          -395 467 110 callgsubr
          endchar
        </CharString>
        <CharString name="Umacron">
          -3 callsubr
          -34 558 43 callgsubr
          endchar
        </CharString>
        <CharString name="Uogonek">
          31 531 489 rmoveto
          -23 -161 -28 -112 -68 -102 -161 -18 -23 93 14 118 11 123 41 149 50 162 rrcurveto
          10 368 callsubr
          -50 -11 -26 -51 hvcurveto
          -17 -189 -20 -134 -35 -187 12 -83 62 -81 102 -31 rrcurveto
          -60 -36 -36 -50 -50 vvcurveto
          -67 64 -58 120 70 70 30 53 41 vhcurveto
          1 30 -14 20 -30 -3 rrcurveto
          -28 -31 -43 -16 -40 hhcurveto
          -34 -32 13 27 -20 hvcurveto
          8 55 57 52 65 19 153 25 78 128 36 185 24 131 21 139 18 128 rrcurveto
          10 -21 357 callgsubr
          -42 -49 -11 -26 -51 hvcurveto
          endchar
        </CharString>
        <CharString name="Uring">
          31 501 1039 159 callsubr
          179 -651 -85 callgsubr
          endchar
        </CharString>
        <CharString name="V">
          43 565 489 rmoveto
          -205 -384 -38 228 -2 400 -42 33 -120 -11 -63 -72 rlinecurve
          116 -624 46 -55 90 -17 76 22 rlinecurve
          58 140 73 124 59 88 72 120 rlinecurve
          39 63 27 87 -7 81 -46 42 -115 16 -61 -63 rrcurveto
          endchar
        </CharString>
        <CharString name="W">
          363 891 490 rmoveto
          -172 -386 -47 260 7 321 -77 37 -80 -29 -47 -52 rlinecurve
          52 -227 -160 -308 -40 228 -9 401 -43 32 -113 -6 -67 -77 rlinecurve
          125 -626 49 -53 87 -18 77 22 rlinecurve
          43 132 78 153 26 -240 41 -50 86 -16 77 21 rlinecurve
          45 142 183 333 40 74 20 80 -5 76 rlinecurve
          -50 39 -109 20 -63 -64 rrcurveto
          endchar
        </CharString>
        <CharString name="X">
          92 419 445 rmoveto
          -27 115 -62 129 -86 64 -105 -8 -53 -76 9 -85 98 -35 103 -79 62 -98 -98 -89 -106 -81 -122 -76 -9 -58 29 -60 118 -8 212 301 rcurveline
          29 -105 64 -122 75 -74 121 23 42 80 -24 69 -86 40 -91 84 -67 81 132 116 105 84 89 61 3 67 -33 57 -92 -8 rrcurveto
          endchar
        </CharString>
        <CharString name="Y">
          28 callsubr
          endchar
        </CharString>
        <CharString name="Yacute">
          28 callsubr
          391 369 352 callsubr
        </CharString>
        <CharString name="Ydieresis">
          28 callsubr
          213 158 -22 callgsubr
          endchar
        </CharString>
        <CharString name="Z">
          60 197 68 -63 callgsubr
          endchar
        </CharString>
        <CharString name="Zacute">
          60 509 1033 -49 callsubr
          -312 -965 -63 callgsubr
          endchar
        </CharString>
        <CharString name="Zcaron">
          60 548 824 rmoveto
          163 159 -24 54 -85 -13 -33 -9 rlinecurve
          -125 -143 -40 callsubr
          -351 -756 -63 callgsubr
          endchar
        </CharString>
        <CharString name="Zdotaccent">
          60 197 68 -63 callgsubr
          257 764 124 callgsubr
          endchar
        </CharString>
        <CharString name="a">
          43 449 274 -90 callgsubr
          endchar
        </CharString>
        <CharString name="aacute">
          43 676 779 42 callgsubr
          -31 -333 -90 callgsubr
          endchar
        </CharString>
        <CharString name="abreve">
          43 469 617 rmoveto
          55 callsubr
          -100 17 82 -53 83 hhcurveto
          -20 -343 -90 callgsubr
          endchar
        </CharString>
        <CharString name="acircumflex">
          43 463 746 rmoveto
          3 callsubr
          -193 -178 3 -28 33 -13 37 1 rlinecurve
          141 -336 -90 callgsubr
          endchar
        </CharString>
        <CharString name="acute">
          -389 197 839 352 callsubr
        </CharString>
        <CharString name="adieresis">
          43 580 656 0 callgsubr
          116 -354 -90 callgsubr
          endchar
        </CharString>
        <CharString name="ae">
          361 700 104 rmoveto
          -45 26 -19 32 -7 44 103 20 132 47 88 44 41 122 -40 109 -145 18 -110 -19 -59 -49 -53 -68 39 108 rcurveline
          -13 26 -60 1 -48 -15 -15 -27 -5 -33 1 -47 -24 44 -25 44 -36 24 -216 -5 -144 -182 1 -151 1 -108 68 -88 167 -7 46 49 43 50 47 45 10 -10 rcurveline
          -38 -103 13 -38 72 -20 51 21 rlinecurve
          15 119 23 -52 43 -43 80 -32 rlinecurve
          82 10 135 49 52 53 10 56 -24 19 -41 -1 -52 -39 -68 -27 -76 -16 rrcurveto
          50 365 rmoveto
          34 -24 23 -39 -13 -68 -47 -24 -58 -23 -64 -20 3 67 39 71 64 52 rrcurveto
          -342 -8 rmoveto
          34 -21 27 -32 20 -40 -11 -26 -12 -36 -4 -33 -52 -42 -58 -48 -55 -43 rrcurveto
          -30 19 -12 32 39 vvcurveto
          90 56 95 97 46 vhcurveto
          endchar
        </CharString>
        <CharString name="agrave">
          43 446 612 197 callsubr
          69 -431 -90 callgsubr
          endchar
        </CharString>
        <CharString name="amacron">
          43 622 630 189 callsubr
          181 -345 -90 callgsubr
          endchar
        </CharString>
        <CharString name="ampersand">
          52 646 157 rmoveto
          20 74 -37 58 -73 -13 -58 -56 -53 -40 -89 -36 -46 21 -40 28 -12 40 59 62 86 32 99 15 22 56 -7 42 -46 14 -19 -11 -33 -8 -32 -3 -42 13 -38 21 -18 42 rrcurveto
          50 51 50 35 83 10 64 -92 rcurveline
          99 26 27 29 -23 69 rrcurveto
          34 -42 -50 33 -79 hhcurveto
          -163 -149 -83 -115 -58 hvcurveto
          14 -63 75 -48 94 -7 -104 -22 -66 -66 -36 -81 34 -93 86 -49 138 -30 151 21 68 33 94 57 rrcurveto
          -125 601 rmoveto
          56 196 -46 40 -55 -3 -83 -47 rlinecurve
          1 -171 25 -29 43 -1 59 15 rlinecurve
          -221 -767 rmoveto
          -56 -196 46 -40 55 4 82 46 rlinecurve
          -1 170 -24 30 -44 1 -58 -15 rlinecurve
          endchar
        </CharString>
        <CharString name="aogonek">
          41 535 callsubr
          -65 -52 -59 -46 rrcurveto
          -30 19 -12 32 39 vvcurveto
          90 56 95 97 46 vhcurveto
          35 -22 27 -33 20 -41 rrcurveto
          100 -353 rmoveto
          17 3 14 6 10 9 -6 116 -1 105 5 95 92 166 rcurveline
          -22 54 -54 10 -113 -18 -16 -28 -4 -34 2 -48 -25 44 -33 46 -37 25 -216 -5 -144 -182 1 -151 1 -108 68 -88 167 -7 47 48 56 54 46 45 15 -15 rcurveline
          -43 -97 9 -8 11 -8 11 -6 rlinecurve
          -73 -42 -42 -61 -54 vvcurveto
          -64 58 -53 105 72 65 32 51 43 vhcurveto
          -2 34 -10 18 -38 -2 -53 -39 -64 -14 -64 26 8 64 60 57 77 22 rrcurveto
          endchar
        </CharString>
        <CharString name="apostrophemod">
          -288 223 625 rmoveto
          151 callsubr
          endchar
        </CharString>
        <CharString name="approxequal">
          2 239 497 386 callgsubr
          -83 77 hhcurveto
          64 78 65 37 22 hvcurveto
          -4 33 524 callgsubr
          -117 68 -80 hhcurveto
          -22 -180 386 callgsubr
          -84 77 hhcurveto
          65 77 66 36 22 hvcurveto
          -4 34 524 callgsubr
          -116 68 -81 hhcurveto
          endchar
        </CharString>
        <CharString name="aring">
          43 444 723 40 callsubr
          11 -329 -90 callgsubr
          endchar
        </CharString>
        <CharString name="asciicircum">
          -66 55 423 rmoveto
          4 -27 32 -14 38 2 216 362 rcurveline
          80 -345 32 -15 78 -19 57 50 rlinecurve
          -118 390 -43 25 -53 8 -69 -12 rlinecurve
          endchar
        </CharString>
        <CharString name="asciitilde">
          -4 191 449 rmoveto
          -74 -39 -44 -37 -46 -54 -4 -37 59 -22 44 7 66 79 rcurveline
          8 2 64 -48 73 -34 120 -8 rlinecurve
          98 32 41 39 50 64 3 32 -44 18 -49 -7 -69 -80 rcurveline
          -7 hlineto
          -76 50 -73 37 -140 6 rrcurveto
          endchar
        </CharString>
        <CharString name="asterisk">
          -252 338 804 rmoveto
          103 68 -9 23 -15 18 -24 14 rlinecurve
          -79 -98 34 117 -24 7 -27 0 -27 -7 rlinecurve
          8 -115 -58 95 -26 -12 -19 -18 -15 -24 rlinecurve
          89 -68 -114 20 -13 -26 -2 -27 6 -25 rlinecurve
          120 21 -104 -68 10 -26 15 -17 23 -12 rlinecurve
          79 96 -33 -116 27 -8 27 0 23 8 rlinecurve
          -8 117 58 -97 28 10 19 17 14 27 rlinecurve
          -91 69 116 -21 12 27 2 26 -5 25 rlinecurve
          endchar
        </CharString>
        <CharString name="at">
          515 741 357 rmoveto
          -16 -83 -1 -7 -53 -42 -61 -49 -56 -44 rlinecurve
          -30 19 -12 32 39 vvcurveto
          90 56 95 97 46 vhcurveto
          32 -20 26 -30 20 -37 rrcurveto
          228 138 rmoveto
          -23 55 -52 10 -113 -19 -15 -25 -5 -31 1 -41 -24 40 -31 39 -33 23 rrcurveto
          -216 -5 -143 -182 -151 vvcurveto
          1 -108 68 -88 167 -7 50 52 61 58 49 48 10 -6 rcurveline
          -19 -59 14 -58 100 -34 rrcurveto
          185 71 156 172 148 vvcurveto
          228 -206 180 -228 -342 -349 -259 -318 -249 213 -181 278 -35 vhcurveto
          103 20 99 37 70 49 5 57 -22 29 -72 6 -37 -39 -71 -44 -82 -31 rrcurveto
          -225 49 -100 144 190 vvcurveto
          232 249 229 274 30 vhcurveto
          201 -40 124 -84 21 -217 -32 -119 -71 -81 -112 -79 8 76 8 79 16 73 rrcurveto
          endchar
        </CharString>
        <CharString name="atilde">
          43 449 274 -90 callgsubr
          -13 356 rmoveto
          302 callsubr
          37 callgsubr
          rrcurveto
          endchar
        </CharString>
        <CharString name="b">
          7 227 94 rmoveto
          13 69 11 72 7 79 48 50 42 39 44 33 48 -21 23 -27 10 -59 -18 -106 -91 -91 -137 -38 rrcurveto
          6 316 rmoveto
          43 73 11 85 62 259 -54 22 -58 -1 -91 -43 rlinecurve
          5 -266 -26 -132 -41 -163 -39 -120 rlinecurve
          16 -52 48 -54 116 -19 188 40 181 81 57 202 -22 143 -58 71 -187 19 -51 -54 -41 -48 -46 -56 rrcurveto
          endchar
        </CharString>
        <CharString name="backslash">
          -136 66 850 rmoveto
          287 -961 62 -18 28 9 18 38 rlinecurve
          -192 452 -89 499 -61 26 -29 -8 -24 -37 rlinecurve
          endchar
        </CharString>
        <CharString name="bar">
          -316 142 586 rmoveto
          -24 -189 -77 -388 -56 -165 22 -46 123 -19 56 37 19 175 65 390 13 94 122 513 rcurveline
          10 -22 357 callgsubr
          -41 -41 -12 -26 -50 hvcurveto
          endchar
        </CharString>
        <CharString name="braceleft">
          1 583 769 rmoveto
          46 16 26 27 40 vvcurveto
          46 -60 -66 29 -73 hhcurveto
          -61 -67 -25 -48 -44 hvcurveto
          -179 65 -86 -171 -127 hhcurveto
          -30 -97 60 -26 40 -82 -3 -77 rlinecurve
          -3 -80 -40 -75 -73 -53 25 -74 78 -56 75 -17 79 4 77 23 48 22 -1 27 -16 31 -20 12 -132 -25 rcurveline
          -20 28 78 66 47 73 3 81 rlinecurve
          2 81 -42 66 -87 53 5 21 rcurveline
          101 -2 76 68 23 106 14 61 -7 77 -31 80 29 17 rcurveline
          endchar
        </CharString>
        <CharString name="braceright">
          2 498 578 rmoveto
          3 80 39 75 74 54 -26 73 -79 64 -78 10 -74 -3 -77 -23 -48 -23 2 -27 15 -32 20 -12 133 26 rcurveline
          20 -29 -79 -65 -47 -73 -2 -81 rlinecurve
          -3 -81 41 -66 89 -52 -7 -21 rcurveline
          -99 2 -77 -69 -22 -106 -15 -61 6 -77 32 -80 -29 -18 rcurveline
          -93 69 rlineto
          -46 -16 -26 -26 -42 vvcurveto
          63 -44 62 -25 74 -7 66 3 64 23 43 48 rrcurveto
          180 -64 84 171 128 hhcurveto
          30 97 -60 26 -40 83 3 75 rlinecurve
          endchar
        </CharString>
        <CharString name="bracketleft">
          -27 558 844 rmoveto
          111 -7 22 29 3 25 -5 24 rlinecurve
          -412 -6 -62 -487 -121 -458 2 -28 17 -21 34 -20 rlinecurve
          350 43 25 32 2 23 -12 18 rlinecurve
          -205 -27 52 313 65 350 50 193 rlineto
          endchar
        </CharString>
        <CharString name="bracketright">
          -14 449 234 rmoveto
          145 585 -3 35 -10 24 -25 25 rlinecurve
          -389 10 -14 -22 4 -14 22 -40 rlinecurve
          192 6 -69 -421 -77 -439 -213 -4 -18 -41 0 -21 16 -26 rlinecurve
          421 48 rlineto
          endchar
        </CharString>
        <CharString name="breve">
          -262 108 770 rmoveto
          -100 17 82 -53 83 hhcurveto
          55 callsubr
          endchar
        </CharString>
        <CharString name="brokenbar">
          -314 179 771 rmoveto
          -19 -97 -20 -61 -34 -114 35 -39 113 -9 52 36 10 106 12 88 4 42 77 254 rcurveline
          20 -17 -35 14 -44 hhcurveto
          -33 -37 -7 -18 -40 hvcurveto
          -147 -874 rmoveto
          -19 -97 -20 -63 -34 -113 26 -40 122 -20 53 37 9 107 12 99 3 42 68 243 rcurveline
          18 -24 -30 9 -37 hhcurveto
          -30 -34 -4 -13 -41 hvcurveto
          endchar
        </CharString>
        <CharString name="bullet">
          -154 205 209 rmoveto
          84 90 55 89 65 hvcurveto
          92 -11 -80 103 -67 hhcurveto
          -98 -13 -85 -101 -21 -103 rrcurveto
          -72 7 51 -50 65 hhcurveto
          endchar
        </CharString>
        <CharString name="c">
          -65 385 564 28 callgsubr
        </CharString>
        <CharString name="cacute">
          -65 433 839 -49 callsubr
          -48 -275 28 callgsubr
        </CharString>
        <CharString name="caron">
          -176 392 630 rmoveto
          163 159 -24 54 -85 -13 -33 -9 rlinecurve
          -125 -143 -40 callsubr
          endchar
        </CharString>
        <CharString name="ccaron">
          -65 472 630 rmoveto
          163 159 -24 54 -85 -13 -33 -9 rlinecurve
          -125 -143 -40 callsubr
          -87 -66 28 callgsubr
        </CharString>
        <CharString name="ccedilla">
          -65 348 470 rmoveto
          23 -38 17 -36 -5 -64 93 -14 68 23 20 58 -23 89 -36 55 -120 21 -113 -23 -91 -62 -69 -68 rrcurveto
          -43 -50 -32 -52 -76 vvcurveto
          -2 -104 58 -99 170 -28 -49 -100 rcurveline
          -65 callgsubr
          47 90 75 23 68 38 39 39 rlinecurve
          52 13 -22 24 -42 hhcurveto
          -52 -42 -73 -32 -64 -17 -58 44 -17 53 2 65 2 62 28 75 63 61 rrcurveto
          endchar
        </CharString>
        <CharString name="cedilla">
          -268 108 30 rmoveto
          -63 -128 rlineto
          -65 callgsubr
          53 102 rlineto
          endchar
        </CharString>
        <CharString name="cent">
          -59 334 467 rmoveto
          -62 -340 -36 39 -11 46 2 53 rlinecurve
          1 62 29 75 62 61 rrcurveto
          125 179 rmoveto
          -14 31 -24 11 -34 -11 -21 -117 rcurveline
          -98 -28 -80 -56 -62 -61 -43 -50 -31 -52 -1 -76 -2 -98 52 -93 148 -35 -34 -100 rcurveline
          15 -31 28 -15 33 9 22 133 rcurveline
          105 18 94 48 49 49 rrcurveto
          52 13 -22 24 -42 hhcurveto
          -49 -39 -64 -31 -67 -17 55 339 rcurveline
          18 -26 15 -35 6 -53 82 -11 66 24 22 64 -30 77 -43 50 -94 22 rrcurveto
          endchar
        </CharString>
        <CharString name="circumflex">
          -164 86 650 rmoveto
          3 -28 33 -13 37 1 155 136 rcurveline
          3 callsubr
          endchar
        </CharString>
        <CharString name="colon">
          -352 85 hmoveto
          48 51 31 51 36 hvcurveto
          52 -5 -46 58 -38 hhcurveto
          -55 -7 -48 -57 -13 -59 rrcurveto
          -41 5 28 -28 37 hhcurveto
          59 328 callgsubr
          endchar
        </CharString>
        <CharString name="comma">
          -367 203 57 rmoveto
          463 callgsubr
          -3 -170 rcurveline
          253 callsubr
          rrcurveto
          endchar
        </CharString>
        <CharString name="copyright">
          218 43 365 rmoveto
          322 callsubr
          544 callgsubr
          rrcurveto
          768 33 rmoveto
          -35 -173 -100 -158 -266 -25 334 callgsubr
          rrcurveto
          -140 80 rmoveto
          -20 75 -30 46 -99 17 -96 -19 -76 -52 -57 -58 -36 -41 -26 -44 -1 -63 -1 -89 50 -85 150 -21 88 11 90 43 44 44 rrcurveto
          44 11 -18 20 -35 hhcurveto
          -45 -36 -60 -27 -53 -14 -50 37 -14 45 2 55 1 52 24 63 53 51 24 6 rcurveline
          19 -31 14 -31 -4 -54 78 -11 56 19 17 48 rrcurveto
          endchar
        </CharString>
        <CharString name="currency">
          156 398 190 rmoveto
          -40 36 -26 56 -1 54 8 86 57 92 78 60 48 -56 24 -56 6 -84 -21 -79 -47 -59 -86 -50 rrcurveto
          210 414 rmoveto
          32 -35 -40 21 -38 hhcurveto
          -78 -70 -33 -46 -55 hvcurveto
          -99 120 -101 -5 -30 -63 33 -50 rlinecurve
          133 -70 rlineto
          -44 -57 -25 -63 -47 vvcurveto
          -40 13 -40 22 -35 vhcurveto
          -127 -65 -34 -50 29 -63 101 -6 rlinecurve
          94 111 rlineto
          -31 39 45 -20 42 hhcurveto
          63 65 25 38 55 hvcurveto
          95 -112 102 6 28 63 -34 50 rlinecurve
          -115 59 rlineto
          46 52 29 61 57 vvcurveto
          -1 38 -17 45 -27 42 123 62 rcurveline
          34 50 -29 63 -102 6 rrcurveto
          endchar
        </CharString>
        <CharString name="d">
          9 70 callgsubr
          endchar
        </CharString>
        <CharString name="dagger">
          -143 372 603 rmoveto
          82 217 -55 25 -68 -3 -89 -42 rlinecurve
          -7 -205 -129 17 -33 -41 -3 -29 26 -34 rlinecurve
          132 11 -133 -860 23 -14 24 -4 21 11 rlinecurve
          191 876 154 -11 31 43 4 35 -23 24 rlinecurve
          endchar
        </CharString>
        <CharString name="daggerdbl">
          -126 371 547 rmoveto
          156 -11 31 43 3 35 -22 24 rlinecurve
          -150 -17 72 223 -52 25 -60 -3 -89 -42 rlinecurve
          -6 -211 -130 17 -32 -40 -3 -30 25 -34 rlinecurve
          134 12 -31 -279 -68 -305 -156 11 -30 -43 -4 -35 22 -23 rlinecurve
          151 16 -74 -223 56 -25 57 3 88 42 rlinecurve
          6 211 131 -17 32 40 3 30 -25 34 rlinecurve
          -135 -11 32 295 rlineto
          endchar
        </CharString>
        <CharString name="danda">
          -205 266 484 272 callgsubr
        </CharString>
        <CharString name="dcaron">
          93 70 callgsubr
          281 -42 rmoveto
          -61 -90 9 -22 19 -11 32 -1 rlinecurve
          94 72 50 86 6 83 -17 47 -73 48 -78 -60 rrcurveto
          endchar
        </CharString>
        <CharString name="dcroat">
          9 535 callsubr
          -66 -52 -58 -46 -30 19 -13 32 1 39 2 89 55 97 97 46 38 -23 24 -32 26 -42 rrcurveto
          208 339 rmoveto
          36 131 -51 24 -60 -3 -93 -43 rlinecurve
          3 -113 -86 2 -24 -33 -4 -24 15 -18 rlinecurve
          101 3 2 -83 -7 -36 -8 -34 -9 -33 rlinecurve
          -23 48 -33 50 -38 21 -217 -2 -146 -178 -3 -158 -4 -110 81 -91 157 -2 47 48 54 51 44 43 12 -12 rcurveline
          -57 -96 45 -55 115 -5 51 34 rlinecurve
          25 204 27 194 17 166 11 41 rcurveline
          110 3 31 36 4 30 -19 11 rlinecurve
          endchar
        </CharString>
        <CharString name="degree">
          -132 356 775 rmoveto
          -148 -115 -115 -96 1 hvcurveto
          -65 1 97 -75 83 hhcurveto
          130 138 103 87 -3 hvcurveto
          67 -1 -102 94 -81 hhcurveto
          -17 -57 rmoveto
          24 -35 18 -35 5 -48 -12 -50 -28 -35 -55 -31 -18 24 -18 32 -1 33 2 52 35 56 48 37 rrcurveto
          endchar
        </CharString>
        <CharString name="dieresis">
          -218 175 628 -22 callgsubr
          endchar
        </CharString>
        <CharString name="divide">
          139 755 415 rmoveto
          -334 -20 -340 6 -23 -34 -4 -37 15 -18 rlinecurve
          670 10 30 37 4 44 -18 12 rlinecurve
          -406 -323 rmoveto
          37 39 26 37 28 hvcurveto
          41 -4 -35 45 -30 hhcurveto
          -42 -6 -38 -45 -8 -44 rrcurveto
          -32 3 22 -22 28 hhcurveto
          67 383 rmoveto
          37 40 25 39 27 hvcurveto
          40 -3 -36 45 -30 hhcurveto
          -43 -5 -37 -44 -8 -46 rrcurveto
          -32 2 23 -22 28 hhcurveto
          endchar
        </CharString>
        <CharString name="dollar">
          21 364 287 rmoveto
          46 -24 33 -21 -23 vvcurveto
          -52 -47 -46 -63 -22 vhcurveto
          23 384 rmoveto
          -52 30 -38 25 24 vvcurveto
          -1 31 65 45 59 23 rrcurveto
          35 -22 rmoveto
          5 13 21 -27 18 -36 10 -60 rlinecurve
          107 -21 54 29 17 75 -37 66 -66 51 -87 21 34 92 rcurveline
          -15 30 -24 11 -33 -11 -21 -114 rcurveline
          -145 -19 -126 -78 -57 -120 18 -119 128 -65 99 -50 -34 -184 rcurveline
          -6 -18 -43 51 -24 45 -14 66 rlinecurve
          -99 31 -52 -58 -36 -70 34 -69 95 -64 107 -28 -33 -102 rcurveline
          15 -31 27 -15 33 9 23 133 rcurveline
          178 25 126 90 21 136 -29 89 -122 66 -97 53 rrcurveto
          endchar
        </CharString>
        <CharString name="dotaccent">
          -452 184 635 124 callgsubr
          endchar
        </CharString>
        <CharString name="dotlessi">
          259 callsubr
          endchar
        </CharString>
        <CharString name="dottedcircle">
          5 139 517 rmoveto
          -26 18 -19 26 26 18 19 26 25 -18 19 -26 -26 -18 -19 -25 vhcurveto
          -82 -110 rmoveto
          -25 20 -19 26 24 20 19 25 25 -20 19 -24 -26 -20 -19 -25 vhcurveto
          -13 -126 rmoveto
          -25 19 -18 25 26 18 18 543 callgsubr
          52 -116 rmoveto
          -26 18 -18 26 25 19 18 26 25 -19 19 -25 -26 -18 -19 -25 vhcurveto
          101 -75 rmoveto
          -26 19 -20 26 25 19 20 26 24 -19 20 -25 -26 -19 -20 -24 vhcurveto
          127 -16 rmoveto
          -26 18 -18 26 26 19 18 26 26 -19 18 -26 -26 -18 -18 -26 vhcurveto
          121 53 rmoveto
          -26 19 -18 25 25 20 18 26 25 -20 19 -25 -25 -19 -19 -25 vhcurveto
          73 98 rmoveto
          -25 19 -19 26 24 19 19 25 26 -19 19 -24 -26 -19 -19 -26 vhcurveto
          10 134 rmoveto
          -26 18 -18 26 25 19 18 26 26 -19 18 -25 -26 -18 -18 -26 vhcurveto
          -50 118 rmoveto
          -25 19 -19 25 26 18 19 543 callgsubr
          -95 68 rmoveto
          -24 19 -20 26 25 18 20 24 26 -18 19 -25 -26 -19 -19 -26 vhcurveto
          -126 15 rmoveto
          -26 18 -18 26 26 18 18 26 26 -18 18 -26 -26 -18 -18 -26 vhcurveto
          endchar
        </CharString>
        <CharString name="doubledanda">
          69 539 484 rmoveto
          -27 -152 -28 -118 -46 -179 36 -34 81 -15 53 33 10 161 14 135 14 119 71 288 rcurveline
          -35 35 -54 -3 -80 -39 rrcurveto
          -282 -231 272 callgsubr
        </CharString>
        <CharString name="dvA">
          245 214 100 52 callsubr
          830 525 rmoveto
          -145 -78 callgsubr
          16 -50 callsubr
          endchar
        </CharString>
        <CharString name="dvAA">
          569 214 100 52 callsubr
          1154 525 rmoveto
          -135 hlineto
          -85 callsubr
          rrcurveto
          endchar
        </CharString>
        <CharString name="dvAI">
          -29 413 814 488 callgsubr
          24 20 8 15 11 hvcurveto
          117 -42 -105 167 -77 hhcurveto
          -56 -61 -34 -35 -42 hvcurveto
          -14 -53 42 -51 91 -38 rrcurveto
          442 -131 -29 callsubr
        </CharString>
        <CharString name="dvAU">
          569 985 879 rmoveto
          58 -34 51 -49 30 464 callsubr
          -46 30 -42 11 -48 -10 -32 -26 -20 -34 10 -39 51 353 callgsubr
          23 20 4 17 rrcurveto
          150 -61 -122 118 -72 hhcurveto
          -48 -54 -30 -28 -23 hvcurveto
          -13 -59 43 -35 74 -26 rrcurveto
          -696 -710 52 callsubr
          1154 525 rmoveto
          -135 hlineto
          -85 callsubr
          rrcurveto
          endchar
        </CharString>
        <CharString name="dvAbbreviationsign">
          -246 238 413 rmoveto
          -108 -81 -81 -69 hvcurveto
          -46 2 68 -53 60 hhcurveto
          94 100 73 62 -2 hvcurveto
          48 -1 -73 66 -59 hhcurveto
          -13 -41 rmoveto
          17 -25 13 -24 4 -35 -9 -35 -20 -24 -39 -22 rrcurveto
          -12 16 -13 24 22 vvcurveto
          1 37 25 40 33 26 rrcurveto
          endchar
        </CharString>
        <CharString name="dvAcandra">
          245 832 681 rmoveto
          104 100 61 73 47 hvcurveto
          166 callsubr
          -618 -581 52 callsubr
          685 525 rmoveto
          7 callgsubr
          -7 -30 rcurveline
          -95 -103 callgsubr
          98 hlineto
          -24 -110 -74 -40 -77 -38 -76 -37 rlinecurve
          -39 17 -51 10 -58 1 -2 8 rcurveline
          103 21 108 51 32 104 -22 57 -37 45 -68 19 -100 8 -78 -17 -86 -48 -31 -41 36 -55 72 -23 rrcurveto
          41 54 48 19 61 hhcurveto
          6 -8 -21 -50 -44 -42 -77 -29 rlinecurve
          -27 -1 -27 0 -27 -1 -31 -29 4 -72 59 -40 24 6 24 5 24 6 18 -5 18 -4 18 -4 rrcurveto
          -199 -73 -150 -22 -66 vvcurveto
          -45 91 -63 99 -9 vhcurveto
          136 -2 233 102 121 vvcurveto
          25 -11 23 -20 20 vhcurveto
          57 26 56 26 56 26 3 -8 rcurveline
          -36 -42 -62 -278 183 callsubr
          266 callsubr
          endchar
        </CharString>
        <CharString name="dvAnusvara">
          -50 715 rmoveto
          49 39 41 47 49 -39 39 -49 -50 -40 -39 -49 -47 40 -41 50 hvcurveto
          endchar
        </CharString>
        <CharString name="dvAnusvara.amI">
          -50 681 rmoveto
          48 39 41 47 49 -39 39 -48 -51 -40 -39 -49 -47 40 -41 51 hvcurveto
          endchar
        </CharString>
        <CharString name="dvAvagraha">
          -83 278 512 rmoveto
          82 15 181 12 122 -7 37 39 -4 37 -34 17 -136 7 -239 -23 -107 -35 -69 -43 -38 -84 -1 -33 -3 -81 288 -58 -2 -55 -1 -49 -53 -59 -69 -24 -60 15 -61 34 -49 46 rrcurveto
          -41 -2 -12 -19 -2 -43 rrcurveto
          -40 33 118 -79 70 hhcurveto
          104 180 129 116 4 hvcurveto
          3 100 -202 46 -81 59 8 24 11 20 23 18 rrcurveto
          endchar
        </CharString>
        <CharString name="dvB">
          -328 334 254 rmoveto
          343 callsubr
          -24 15 -15 25 38 91 callsubr
          -27 rrcurveto
          126 125 rmoveto
          -27 47 -60 82 -61 14 rrcurveto
          51 callsubr
          64 65 93 91 44 46 -37 35 rcurveline
          -11 -10 -11 -11 -13 -11 -40 35 -36 116 callgsubr
          160 280 rmoveto
          -563 -100 callsubr
          563 -105 callsubr
        </CharString>
        <CharString name="dvBA">
          -4 409 320 rmoveto
          -11 -10 -11 -11 -13 -11 -40 35 -36 116 callgsubr
          -174 -167 rmoveto
          -24 15 -15 26 37 91 callsubr
          -28 -30 -24 325 callsubr
          554 447 139 callsubr
          -457 -100 callsubr
          463 468 callgsubr
          -31 367 callgsubr
          51 callsubr
          61 62 61 59 40 457 callsubr
          68 99 callsubr
        </CharString>
        <CharString name="dvBH">
          -186 227 195 rmoveto
          -27 13 -22 15 -17 26 36 15 37 17 36 16 -10 -31 -10 -31 -12 -34 rrcurveto
          89 407 32 callgsubr
          271 -90 rmoveto
          -42 -23 -48 -25 -52 -25 16 84 9 81 1 62 166 callgsubr
          -3 -14 -3 459 callgsubr
          -20 -34 222 callgsubr
          63 23 80 18 81 61 30 61 32 61 32 rrcurveto
          129 157 rmoveto
          -182 -81 callgsubr
          182 -105 callsubr
        </CharString>
        <CharString name="dvBHA">
          134 227 254 callsubr
          45 27 50 34 36 25 rrcurveto
          6 -154 rmoveto
          94 callgsubr
          111 callsubr
          rrcurveto
          715 214 rmoveto
          242 callgsubr
        </CharString>
        <CharString name="dvBH_LA">
          678 236 187 5 callsubr
          1161 12 -56 callgsubr
          -591 -103 callgsubr
          595 201 callsubr
          -45 2 -43 -4 -69 -28 -71 -55 -41 -59 -44 11 -49 8 -51 4 27 118 20 128 -5 62 -23 41 -46 22 -65 -1 -51 -50 -113 -65 -67 -28 rrcurveto
          -22 -15 -11 -34 -4 -29 19 -43 49 -43 69 -21 6 callgsubr
          46 -1 44 -6 42 -6 rrcurveto
          -4 -13 -3 -14 -13 vvcurveto
          -76 92 -122 106 -58 vhcurveto
          97 18 35 66 -27 43 -86 37 -36 46 -21 61 5 49 53 68 33 5 85 callsubr
          16 -50 callsubr
          endchar
        </CharString>
        <CharString name="dvBH_NA">
          597 723 190 rmoveto
          -36 17 -18 19 -16 152 callsubr
          -500 -15 rmoveto
          -37 19 -24 17 -19 33 39 23 42 14 44 8 -10 -46 -13 -43 -10 -19 rrcurveto
          81 421 311 callsubr
          -1 -14 -3 -20 -4 -23 rlinecurve
          -68 -6 -69 -16 -62 -29 -34 -15 -14 188 callgsubr
          23 hvcurveto
          15 36 18 55 16 62 54 -2 54 -7 49 -8 -13 -22 -5 -31 5 -34 -2 callsubr
          16 61 2 76 -20 66 49 24 182 callgsubr
          -118 -67 -179 -81 -124 -49 -55 19 -67 14 -72 5 28 121 21 130 -5 62 -23 41 -46 22 -65 -1 111 callsubr
          rrcurveto
          1189 214 rmoveto
          -846 hlineto
          -15 -101 callsubr
          846 hlineto
          15 -106 callgsubr
        </CharString>
        <CharString name="dvBH_R">
          -186 235 216 rmoveto
          -31 13 -17 14 -14 21 34 14 34 13 34 14 -8 -25 -9 -27 -12 -31 rrcurveto
          81 386 32 callgsubr
          271 -90 rmoveto
          -41 -24 -49 -24 -52 -24 14 80 10 80 2 66 166 callgsubr
          -2 -12 -2 -11 -2 -10 rlinecurve
          -68 -27 -65 -23 -55 -16 388 callsubr
          72 17 75 62 30 61 31 60 33 rrcurveto
          -79 -212 rmoveto
          -69 358 callsubr
          endchar
        </CharString>
        <CharString name="dvBH_RA">
          134 235 257 callgsubr
          81 386 311 callsubr
          -2 -11 -2 -11 -2 -10 rlinecurve
          -67 -26 -66 -24 -55 -17 388 callsubr
          73 17 76 42 20 41 21 41 22 9 -5 rcurveline
          -47 -208 -81 -70 -143 -89 -117 -37 rlinecurve
          -17 103 callsubr
          11 338 76 113 -28 214 callgsubr
          -39 -23 -46 -24 -50 -23 15 79 9 79 2 66 -23 41 -46 22 -65 -1 111 callsubr
          rrcurveto
          715 214 rmoveto
          242 callgsubr
        </CharString>
        <CharString name="dvBH_R_YA">
          564 980 376 -53 callgsubr
          -548 hmoveto
          92 -60 callgsubr
          -8 -68 -99 -43 -79 -39 -60 18 -60 10 -57 4 15 68 12 73 8 67 rrcurveto
          -228 -358 rmoveto
          -32 13 -16 15 -15 23 33 13 33 9 34 7 -7 -23 -8 -23 -11 -28 rrcurveto
          80 383 32 callgsubr
          1047 12 -56 callgsubr
          -544 hlineto
          -10 -7 -8 -9 -7 -8 3 26 1 26 1 24 166 callgsubr
          -3 -19 -4 -18 -3 -16 rlinecurve
          -72 -7 -63 -15 -48 -19 rrcurveto
          -37 -21 -8 -37 -47 vvcurveto
          29 -51 51 -32 67 -15 53 -4 77 17 34 38 14 39 14 47 13 50 39 -2 40 -4 43 -6 461 callgsubr
          -7 1 -8 3 -7 vhcurveto
          -75 -71 -130 -94 -133 -40 -17 -45 24 -39 64 -22 112 66 125 106 69 81 rrcurveto
          -42 43 66 -33 45 178 callgsubr
          16 -50 callsubr
          endchar
        </CharString>
        <CharString name="dvBH_VA">
          512 924 320 -43 callsubr
          70 23 vhcurveto
          28 -13 27 -34 23 -32 rrcurveto
          -694 -158 5 callsubr
          995 12 156 callgsubr
          111 callsubr
          6 callgsubr
          51 -2 50 -6 46 -7 rrcurveto
          -3 -14 -2 -14 -14 vvcurveto
          434 callgsubr
          vhcurveto
          29 callsubr
        </CharString>
        <CharString name="dvBH_YA">
          564 980 376 -53 callgsubr
          -786 -380 5 callsubr
          1047 12 143 callgsubr
          111 callsubr
          6 callgsubr
          42 -1 42 -5 39 -5 461 callgsubr
          -70 125 -85 72 55 129 82 84 83 vhcurveto
          12 -12 -45 -64 -32 -140 -98 callgsubr
        </CharString>
        <CharString name="dvB_BA">
          323 736 320 rmoveto
          -11 -10 -11 115 callsubr
          -15 26 37 91 callsubr
          -28 -29 -24 325 callsubr
          -328 hmoveto
          60 callgsubr
          87 253 rmoveto
          23 -10 23 -22 19 -25 -14 -24 -11 -25 -7 -26 -34 32 -32 33 -26 30 18 18 21 13 20 6 rrcurveto
          794 194 139 callsubr
          -784 -100 callsubr
          790 hlineto
          -23 -141 -5 427 callsubr
          -78 -77 -41 -58 -54 hvcurveto
          -31 43 -44 46 -44 10 rrcurveto
          51 callsubr
          35 35 43 43 39 40 25 -76 83 -40 103 -2 61 62 60 59 41 43 9 -11 rcurveline
          -50 -72 -27 -112 67 99 callsubr
        </CharString>
        <CharString name="dvB_BHA">
          428 525 195 rmoveto
          -27 13 -22 15 -18 26 37 17 37 16 302 callgsubr
          -342 73 219 callsubr
          162 12 rmoveto
          -39 33 -36 37 -31 34 17 15 19 12 21 8 29 -14 28 -63 11 -48 rrcurveto
          250 308 169 callsubr
          -602 12 273 callsubr
          385 389 callgsubr
          -3 -13 -2 -13 -3 -13 rlinecurve
          -55 -24 -54 -22 -51 -18 -20 81 -47 97 -68 24 324 callsubr
          34 30 40 36 38 34 31 -49 59 -45 59 -14 165 callsubr
          -37 396 callgsubr
          754 hmoveto
          -361 244 callsubr
          16 -50 callsubr
          endchar
        </CharString>
        <CharString name="dvB_BH_RA">
          414 527 257 callgsubr
          -344 52 219 callsubr
          178 24 rmoveto
          -16 -12 -39 33 -36 37 -31 34 rlinecurve
          17 15 19 12 21 8 29 -14 27 -62 12 -48 rrcurveto
          244 307 169 callsubr
          -596 12 273 callsubr
          379 389 callgsubr
          -6 -32 -55 -22 -55 -20 -49 -16 rlinecurve
          -23 78 -45 89 -64 22 324 callsubr
          36 32 45 39 40 37 29 -50 52 -30 66 -15 54 -4 77 17 34 38 20 57 20 72 17 77 42 20 41 20 41 22 9 -5 rcurveline
          207 callgsubr
          -39 -23 -46 -24 -50 -23 15 79 9 79 2 66 259 callgsubr
        </CharString>
        <CharString name="dvB_DA">
          150 callsubr
          30 -14 31 -36 24 -34 -19 -14 -14 -16 -9 -19 -37 32 -34 35 -28 32 18 16 19 12 19 6 rrcurveto
          735 206 rmoveto
          -1047 -100 callsubr
          628 140 callsubr
          -64 -62 -107 -27 -79 -39 -29 50 -61 81 -59 230 callsubr
          -87 103 -71 134 -12 44 54 31 48 37 38 -21 callsubr
        </CharString>
        <CharString name="dvB_DA_mU">
          150 callsubr
          29 -14 31 -35 25 -35 -19 -14 -14 -16 -9 -20 -37 33 -34 35 -28 32 18 16 19 12 19 6 rrcurveto
          735 206 rmoveto
          -1047 -100 callsubr
          628 27 callgsubr
          -63 -60 -109 -26 -80 -41 -29 50 -61 80 -58 230 callsubr
          -88 105 -72 132 -10 -95 callsubr
        </CharString>
        <CharString name="dvB_DA_mUU">
          150 callsubr
          29 -14 31 -35 25 -35 -19 -14 -14 -16 -9 -20 -37 33 -34 35 -28 32 18 16 19 12 19 6 rrcurveto
          735 206 rmoveto
          -1047 -100 callsubr
          628 27 callgsubr
          -63 -60 -109 -26 -80 -41 -29 50 -61 80 -58 230 callsubr
          -88 105 -72 132 -10 -93 callgsubr
        </CharString>
        <CharString name="dvB_DHA">
          395 183 316 120 callsubr
          712 110 -56 callgsubr
          -58 hlineto
          -17 -101 callsubr
          62 hlineto
          -41 -189 -59 -74 -120 36 callsubr
          82 513 callgsubr
          10 -12 rcurveline
          -43 -55 -32 -142 -98 callgsubr
        </CharString>
        <CharString name="dvB_DH_VA">
          728 1140 320 rmoveto
          0 vlineto
          -49 -44 -57 -50 -47 390 callsubr
          -963 -28 120 callsubr
          1045 110 rmoveto
          -146 313 callsubr
          -393 hlineto
          -17 -101 callsubr
          401 164 callgsubr
          153 callsubr
          -96 -94 -61 -80 550 callsubr
          -58 -75 -121 36 callsubr
          73 12 114 68 84 72 11 -87 85 -53 117 -1 42 34 callsubr
        </CharString>
        <CharString name="dvB_JA">
          482 241 178 -29 callgsubr
        </CharString>
        <CharString name="dvB_JHA">
          549 983 457 rmoveto
          -79 -65 -121 -60 -93 -37 -49 6 -63 13 -36 15 5 16 rcurveline
          76 11 83 19 58 22 40 34 22 65 517 callsubr
          -14 9 rrcurveto
          237 hlineto
          -767 -389 86 callgsubr
          87 253 rmoveto
          27 -12 27 -29 22 -29 -5 -17 -1 -16 3 -15 -8 -8 -9 -9 -10 -8 503 callsubr
          rrcurveto
          1019 194 -99 callsubr
          -1008 -100 callsubr
          624 hlineto
          35 -16 34 -16 20 463 callsubr
          -86 -16 -76 -8 -20 -12 -17 -15 -13 -16 -31 43 -45 49 -46 11 rrcurveto
          51 callsubr
          61 62 86 84 47 48 82 -28 96 -9 64 -26 2 -8 rcurveline
          -31 -36 -62 -29 -61 -5 -26 17 -20 23 -14 21 -61 15 -58 -54 -30 196 callgsubr
          54 -51 47 8 8 rcurveline
          17 -13 20 -12 20 -11 89 2 84 29 53 35 rrcurveto
          33 44 18 40 33 vvcurveto
          28 -12 21 -26 15 vhcurveto
          62 27 71 34 63 41 8 -10 rcurveline
          -42 -51 -58 -260 -67 callsubr
        </CharString>
        <CharString name="dvB_J_YA">
          935 1352 -65 callsubr
          -1153 -389 86 callgsubr
          133 110 rmoveto
          503 callsubr
          28 -12 27 -30 22 -30 -12 -23 -8 -22 -5 -21 rrcurveto
          1354 332 -99 callsubr
          -1395 -100 callsubr
          942 13 callsubr
          15 -10 -8 -63 -85 -42 -75 -36 -64 -24 -73 -3 -47 25 -18 15 -21 17 -11 447 callgsubr
          -55 -52 -53 -10 -25 24 -9 40 4 40 175 callsubr
          3 53 -46 36 -74 -1 -28 -18 -24 -24 -21 -26 -31 45 -48 54 -48 11 rrcurveto
          51 callsubr
          42 42 54 54 44 44 24 -80 68 -63 71 -19 243 callsubr
          113 -75 68 hhcurveto
          55 129 82 84 83 hvcurveto
          12 -12 -44 -64 -33 -140 68 -54 101 -11 40 31 -102 callgsubr
        </CharString>
        <CharString name="dvB_JxA">
          482 526 38 362 callgsubr
          32 32 39 39 -32 32 -39 hvcurveto
          -285 140 -29 callgsubr
        </CharString>
        <CharString name="dvB_LA">
          460 321 256 rmoveto
          -4 0 -4 1 -4 vhcurveto
          -27 -22 -27 -23 -27 -21 rrcurveto
          -24 15 -15 25 38 vvcurveto
          32 12 33 18 28 vhcurveto
          23 -26 35 -33 31 -26 rrcurveto
          7 167 rmoveto
          20 -9 20 -18 18 -20 -20 -21 -16 -21 -11 -22 -26 25 -24 26 -20 23 18 18 21 13 20 6 rrcurveto
          931 194 -56 callgsubr
          -919 -100 callsubr
          923 201 callsubr
          -45 2 -43 -4 -36 -15 -37 -22 -33 -26 -31 42 -43 45 -44 10 rrcurveto
          51 callsubr
          29 29 35 35 33 34 34 -67 68 -73 75 -41 97 18 35 66 -27 43 -86 37 -36 46 -21 61 5 49 53 68 33 206 callsubr
          16 -50 callsubr
          endchar
        </CharString>
        <CharString name="dvB_L_YA">
          847 1264 281 callsubr
          -77 -55 -72 -29 -28 292 callgsubr
          119 hlineto
          -1065 -389 86 callgsubr
          87 253 rmoveto
          29 -13 29 -32 22 -31 -16 -22 -13 -22 -6 -23 -39 409 callgsubr
          rrcurveto
          1318 194 -68 callgsubr
          -1306 -100 callsubr
          854 hlineto
          -19 -42 37 -44 71 -18 25 16 26 13 27 4 20 3 24 -2 14 287 callgsubr
          -47 -20 -48 -31 -39 -37 -30 48 -52 63 -53 12 rrcurveto
          51 callsubr
          39 40 50 49 43 43 24 -75 79 -93 87 -48 94 17 34 67 -21 41 -87 42 -36 45 -18 55 3 52 48 63 35 9 30 -4 20 179 callsubr
          -18 -17 -20 -16 rrcurveto
          -6 -43 47 -48 90 -12 18 6 19 6 17 8 rrcurveto
          -56 37 87 -51 56 hhcurveto
          285 callsubr
          hvcurveto
          12 -13 -45 -64 -32 -140 -98 callgsubr
        </CharString>
        <CharString name="dvB_NA">
          395 521 190 rmoveto
          -36 17 -17 19 -17 152 callsubr
          -338 78 219 callsubr
          162 12 rmoveto
          -39 33 -36 37 -31 34 17 15 19 12 21 8 29 -14 28 -63 11 -48 rrcurveto
          448 134 351 callgsubr
          -114 -66 -175 -79 -124 -49 -22 79 -45 89 -65 22 324 callsubr
          36 32 44 39 41 36 rrcurveto
          -5 0 -5 1 -5 vhcurveto
          231 callgsubr
          rrcurveto
          381 186 rmoveto
          -1182 -100 callsubr
          1182 -105 callsubr
        </CharString>
        <CharString name="dvB_R">
          -340 236 231 rmoveto
          -27 17 -12 22 22 vvcurveto
          22 11 24 18 22 vhcurveto
          22 -26 34 -32 31 -27 -26 -16 -26 -15 -25 -13 rrcurveto
          218 140 rmoveto
          -31 46 -61 84 -52 18 rrcurveto
          -167 -9 -102 -127 -106 vvcurveto
          -73 51 -64 110 -7 vhcurveto
          44 35 71 45 56 40 13 -17 rcurveline
          -92 -88 -136 -75 -135 -43 -17 -45 24 -39 64 -22 168 105 149 123 41 95 -33 40 rcurveline
          1 1 -28 36 -32 -20 -34 31 -31 33 -26 30 rlinecurve
          16 11 17 9 19 6 32 -18 32 -38 23 -30 rrcurveto
          167 287 rmoveto
          -563 -100 callsubr
          563 -105 callsubr
        </CharString>
        <CharString name="dvB_RA">
          -20 394 326 rmoveto
          -33 -21 -38 32 -28 545 callgsubr
          28 421 callgsubr
          33 -29 27 -22 -26 -16 -25 -15 -27 -14 rrcurveto
          -16 14 -8 19 22 vvcurveto
          566 339 139 callsubr
          -441 -100 callsubr
          447 468 callgsubr
          rlineto
          40 -31 -47 56 -29 hhcurveto
          -141 -126 -127 -113 -83 68 -58 93 -5 hvcurveto
          78 55 49 36 66 42 11 -11 rcurveline
          -93 -98 -151 -82 -139 -45 -17 -45 24 -39 64 -22 95 57 124 91 56 485 callsubr
          25 408 73 141 rlineto
          133 -105 callsubr
        </CharString>
        <CharString name="dvB_SA">
          543 971 309 callsubr
          -796 -299 rmoveto
          24 8 26 13 23 vhcurveto
          30 -30 38 -33 28 -22 350 callgsubr
          -12 -14 -15 -9 -19 -33 29 -30 31 -27 29 17 16 20 13 22 8 rrcurveto
          1020 201 -99 callsubr
          -1000 -100 callsubr
          455 371 callsubr
          -65 -101 -72 -110 -21 -13 10 -13 10 -12 11 -35 53 -74 111 386 callsubr
          40 39 74 -85 130 -96 112 -33 27 callsubr
          -89 24 -75 42 -73 282 callgsubr
          35 193 callgsubr
          -17 37 236 callsubr
          68 -54 101 -11 40 31 -102 callgsubr
        </CharString>
        <CharString name="dvB_SHA">
          492 599 495 -44 callgsubr
          -476 -203 rmoveto
          25 8 26 14 25 vhcurveto
          27 -29 37 -34 31 -25 350 callgsubr
          -11 -13 -16 -10 -18 -32 30 -30 31 -26 29 17 15 19 13 21 7 rrcurveto
          -307 201 rmoveto
          176 callsubr
          -6 -86 callgsubr
          441 437 callsubr
          -13 11 -13 10 -13 12 -36 53 -72 109 386 callsubr
          41 39 68 -80 117 -92 117 -42 68 28 38 82 -37 -34 callgsubr
          79 -77 106 -95 23 vhcurveto
          -78 -6 -78 231 callsubr
          -97 -9 -7 -30 rcurveline
          -72 -103 callgsubr
          75 hlineto
          -114 -515 -98 callgsubr
        </CharString>
        <CharString name="dvB_TA">
          345 248 184 rmoveto
          -28 16 -15 30 38 vvcurveto
          28 11 29 16 26 vhcurveto
          28 -31 43 -39 33 -27 -28 -23 -31 -24 -29 -23 rrcurveto
          129 104 rmoveto
          -41 35 -36 38 -30 34 18 17 20 13 19 6 30 -13 35 -47 23 -34 -10 -11 -9 -13 -7 -15 rrcurveto
          755 327 -68 callgsubr
          -804 -100 callsubr
          807 hlineto
          -26 -119 rlineto
          0 vlineto
          -87 -52 -116 -31 -107 -4 rrcurveto
          1 hlineto
          -27 47 -65 100 -63 14 rrcurveto
          -141 -142 -133 -127 -109 94 -62 128 -2 hvcurveto
          34 34 42 41 38 38 28 -71 66 -71 86 -61 48 18 25 26 -4 529 callgsubr
          10 12 64 18 92 367 callsubr
          -33 -44 -57 -254 -98 callgsubr
        </CharString>
        <CharString name="dvB_VA">
          311 723 319 -5 callsubr
          -488 -166 86 callgsubr
          87 253 rmoveto
          23 -10 22 -22 20 -24 -15 -24 -11 -25 -7 -26 -34 32 -31 32 -26 30 18 18 21 13 20 6 rrcurveto
          781 194 -31 callgsubr
          -772 -100 callsubr
          779 hlineto
          -23 135 callsubr
          -77 -75 -39 -56 -54 hvcurveto
          -31 42 -44 46 -44 10 rrcurveto
          51 callsubr
          35 35 43 44 40 39 26 -68 78 -40 102 -1 4 callsubr
          67 -54 101 -11 41 31 -102 callgsubr
        </CharString>
        <CharString name="dvB_YA">
          384 801 378 rmoveto
          -59 -75 -77 -56 -45 callsubr
          -638 188 callsubr
          788 301 -99 callsubr
          -844 -100 callsubr
          391 13 callsubr
          14 -10 -8 -63 -85 -41 -75 -37 -25 77 -54 82 -60 22 rrcurveto
          -154 -11 -123 -128 -128 vvcurveto
          -97 89 -62 126 -1 vhcurveto
          106 104 rlineto
          -54 38 85 -48 54 hhcurveto
          55 129 82 84 83 hvcurveto
          12 -12 -44 -64 -33 -140 67 -54 101 -11 41 31 -102 callgsubr
        </CharString>
        <CharString name="dvC">
          -194 662 223 callsubr
          -680 -100 callsubr
          82 -213 rmoveto
          289 callgsubr
          90 -11 vhcurveto
          120 37 128 112 69 90 -40 48 rcurveline
          -69 -82 -85 -57 -81 -23 130 callsubr
          369 callsubr
          rrcurveto
          endchar
        </CharString>
        <CharString name="dvCA">
          130 929 38 callgsubr
          -604 -100 callsubr
          607 hlineto
          -40 -181 -69 -82 -84 -56 -81 -23 rlinecurve
          -15 4 -19 16 -5 12 45 34 57 32 60 29 58 callgsubr
          90 -11 vhcurveto
          93 29 98 73 71 74 12 -10 rcurveline
          -40 -68 -33 -146 68 -54 101 -11 40 31 -102 callgsubr
        </CharString>
        <CharString name="dvCH">
          128 566 412 24 callgsubr
        </CharString>
        <CharString name="dvCHA">
          128 247 146 rmoveto
          40 51 52 56 50 35 19 59 -36 51 -73 33 -31 -9 -45 -16 -32 -5 -8 220 callsubr
          -17 33 -13 32 3 29 4 422 callsubr
          318 319 484 callsubr
          224 hlineto
          -75 -32 -65 -40 -48 -42 330 callgsubr
          88 12 118 56 100 68 9 -18 6 -16 1 -15 -34 -55 -92 -41 -73 -32 -25 -45 21 -49 85 -40 107 60 118 86 12 92 6 45 -23 48 -28 48 67 57 46 57 1 40 rrcurveto
          1 34 -30 36 -38 29 13 30 11 30 1 30 rrcurveto
          182 -105 callsubr
        </CharString>
        <CharString name="dvCH_R">
          128 227 callsubr
          156 502 24 callgsubr
        </CharString>
        <CharString name="dvCH_RA">
          128 549 400 rmoveto
          5 9 8 8 10 3 17 -5 31 -19 10 -22 -8 -20 -16 -24 -24 -23 -20 32 -14 31 1 30 rrcurveto
          349 225 484 callsubr
          223 hlineto
          -75 -32 -67 -42 -45 -40 330 callgsubr
          58 16 97 51 54 37 6 -6 rcurveline
          -65 -64 -154 -107 -57 -32 -8 -48 30 -34 69 -10 91 67 157 161 57 103 10 -15 16 -25 10 -19 -30 -70 -44 -61 -66 -59 8 -47 37 -41 86 4 69 91 36 76 16 107 rrcurveto
          -12 50 -31 45 -33 42 rrcurveto
          49 44 54 60 42 vvcurveto
          1 62 -96 69 -70 20 -52 -3 -59 -45 -28 -43 -14 -80 31 -60 40 -56 -70 -48 -90 -42 -79 -15 -9 9 rcurveline
          40 51 52 56 50 371 callgsubr
          458 -105 callsubr
        </CharString>
        <CharString name="dvCH_R_YA">
          814 227 callsubr
          815 439 -39 callgsubr
        </CharString>
        <CharString name="dvCH_YA">
          851 1225 349 -39 callgsubr
        </CharString>
        <CharString name="dvC_CA">
          646 1444 38 callgsubr
          -1119 -100 callsubr
          1122 438 callgsubr
          44 34 58 32 60 29 24 48 -28 60 -51 28 -115 -7 -115 0 -118 16 -29 -20 -4 -54 34 -43 -71 -74 -90 -62 -74 -19 -17 4 -19 16 -5 12 rrcurveto
          45 34 57 32 60 29 58 callgsubr
          92 -11 vhcurveto
          112 28 147 134 81 97 75 10 70 10 66 10 412 callgsubr
          99 -72 90 -11 vhcurveto
          93 29 97 73 72 74 12 -10 rcurveline
          -39 -68 -33 -146 -67 callsubr
        </CharString>
        <CharString name="dvC_CHA">
          598 716 296 callgsubr
          1 -16 -2 -16 -4 -16 -10 4 -9 4 -9 2 -52 -5 -57 -41 -29 -42 -18 -72 35 -71 36 -62 -71 -46 -87 -39 -78 -14 rrcurveto
          324 169 rmoveto
          -18 33 -12 32 2 29 5 11 6 7 9 2 17 -5 31 -19 10 -22 -9 -21 -17 -23 -24 -24 rrcurveto
          317 319 rmoveto
          -1369 -100 callsubr
          711 hlineto
          -75 -32 -65 -40 -49 -42 -13 -31 10 -35 23 -29 -64 -66 -74 -47 -71 -20 127 callgsubr
          6 -8 rcurveline
          -101 -53 -132 482 callgsubr
          99 -72 90 -11 vhcurveto
          110 34 116 96 72 85 8 -6 10 -5 9 -4 46 547 callgsubr
          -88 -66 -16 121 callsubr
        </CharString>
        <CharString name="dvC_CH_VA">
          604 717 177 rmoveto
          35 48 45 43 51 34 13 81 -45 30 -50 22 -29 -9 -36 -7 -31 -5 -5 9 rcurveline
          52 47 79 61 96 36 rrcurveto
          93 hlineto
          -33 -17 -30 -26 -20 -27 -15 -85 29 -62 32 -72 -64 -48 -80 -42 -80 -19 rrcurveto
          305 180 rmoveto
          -13 40 -8 36 7 31 5 10 6 7 8 2 17 -4 29 -19 9 -21 -11 -24 -20 -29 -29 -29 rrcurveto
          -90 -427 rmoveto
          -43 -37 -60 -39 -40 -32 -19 11 -6 19 2 30 6 51 45 59 57 18 27 -16 20 -20 18 -29 -6 -16 rcurveline
          428 704 rmoveto
          -1370 -100 callsubr
          713 hlineto
          -70 -32 -60 -39 -50 -41 -13 -31 8 -32 21 -27 -66 -70 -76 -49 -74 -21 127 callgsubr
          6 -8 rcurveline
          -101 -53 -132 482 callgsubr
          99 -72 90 -11 vhcurveto
          113 35 121 102 71 87 7 -4 7 -4 8 -4 43 11 45 15 33 11 5 -9 rcurveline
          -68 -40 -86 -61 -18 -55 -3 -65 64 -46 74 -20 91 20 108 55 93 65 8 -24 7 -26 5 -29 -9 -33 -11 -38 -13 -40 rrcurveto
          38 -29 -40 41 -23 hhcurveto
          -119 -125 -111 -106 -9 hvcurveto
          -6 -79 69 -51 104 -1 40 36 38 30 36 31 -13 -30 -13 -28 -14 -25 2 -38 41 -17 55 4 63 139 50 160 26 116 -7 52 -15 47 -16 45 80 66 55 68 3 45 rrcurveto
          2 48 -59 54 -57 30 rrcurveto
          265 -105 callsubr
        </CharString>
        <CharString name="dvC_MA">
          555 646 119 callgsubr
          696 424 rmoveto
          -1355 -100 callsubr
          702 364 callsubr
          -73 -29 -71 -26 -57 -18 -2 -1 rcurveline
          0 vlineto
          -1 -1 -7 -4 -64 -43 -57 -26 -60 -15 rlinecurve
          -15 4 -19 16 -5 12 45 34 57 32 60 29 58 callgsubr
          90 -11 vhcurveto
          71 23 66 39 57 41 31 -49 59 -41 57 -14 -11 callgsubr
        </CharString>
        <CharString name="dvC_NA">
          507 633 247 callgsubr
          26 13 27 14 11 -34 2 -35 -10 -33 rrcurveto
          -327 185 rmoveto
          205 callsubr
          90 -11 vhcurveto
          71 23 66 39 56 41 1 -4 rcurveline
          37 -52 62 -32 75 31 callgsubr
          -27 45 -50 326 callsubr
          -125 384 callgsubr
          -2 -2 -3 -1 -2 -2 -66 -44 -58 -26 -60 -16 127 callgsubr
          rrcurveto
          995 236 rmoveto
          -1308 -100 callsubr
          1308 -105 callsubr
        </CharString>
        <CharString name="dvC_R">
          -194 571 422 rmoveto
          -74 -83 -96 -69 -87 -25 194 callsubr
          98 34 102 76 75 72 15 -16 rcurveline
          -72 -105 -158 -98 -154 -56 -17 -45 24 -39 64 -22 164 112 117 89 124 169 -64 87 rcurveline
          105 244 rmoveto
          -693 -100 callsubr
          693 -105 callsubr
        </CharString>
        <CharString name="dvC_RA">
          130 929 38 callgsubr
          -604 -100 callsubr
          607 hlineto
          -36 -162 -67 -73 -91 -64 -81 -23 rlinecurve
          194 callsubr
          102 35 105 80 76 74 14 -14 rcurveline
          -67 -105 -168 -107 -156 -56 -17 -45 24 -39 64 -22 95 57 124 91 56 63 10 -7 rcurveline
          -40 -87 62 5 callgsubr
        </CharString>
        <CharString name="dvC_YA">
          535 951 376 -53 callgsubr
          341 58 304 callsubr
          -28 28 -50 11 -97 -9 -7 -30 rcurveline
          -1008 -100 callsubr
          555 -60 callgsubr
          -11 -93 -181 -46 -66 -53 -71 -38 -66 -23 -53 -9 -15 4 -19 16 -5 12 45 34 57 32 60 29 rrcurveto
          58 callgsubr
          90 -11 vhcurveto
          80 23 76 41 68 45 rrcurveto
          -56 37 87 -51 56 178 callgsubr
          16 -50 callsubr
          endchar
        </CharString>
        <CharString name="dvCandrabindu">
          -19 277 callsubr
          99 38 105 callsubr
        </CharString>
        <CharString name="dvD">
          -71 170 -153 202 callgsubr
          543 778 46 callsubr
        </CharString>
        <CharString name="dvDA">
          -71 713 625 46 callsubr
        </CharString>
        <CharString name="dvDA_mU">
          316 callgsubr
          -109 -103 -243 -4 -147 vvcurveto
          -106 116 -94 153 -12 vhcurveto
          -95 callsubr
        </CharString>
        <CharString name="dvDA_mUU">
          316 callgsubr
          -109 -103 -243 -4 -147 vvcurveto
          -106 116 -94 153 -12 vhcurveto
          -93 callgsubr
        </CharString>
        <CharString name="dvDA_mvR">
          258 callgsubr
          117 -99 165 -8 538 callgsubr
          37 38 9 -7 rcurveline
          -18 -46 -27 -58 -27 -60 -98 -42 -112 -83 -3 -66 rrcurveto
          -43 -2 67 -64 55 hhcurveto
          92 112 19 64 68 hvcurveto
          8 33 -29 34 -62 14 -55 -46 -49 -27 -78 -3 -11 16 rcurveline
          34 58 79 42 94 40 35 101 27 65 36 88 -38 72 -77 20 -46 -17 -35 -33 -42 323 callsubr
          43 37 22 58 -17 40 rrcurveto
          -66 callgsubr
        </CharString>
        <CharString name="dvDD">
          -114 157 -18 rmoveto
          -58 -8 -31 -43 7 -76 132 264 callgsubr
          -73 81 -137 100 -108 37 rrcurveto
          526 643 -88 callsubr
        </CharString>
        <CharString name="dvDDA">
          -114 683 625 -88 callsubr
        </CharString>
        <CharString name="dvDDH">
          1 247 308 callgsubr
          215 198 -70 callsubr
        </CharString>
        <CharString name="dvDDHA">
          1 462 180 -70 callsubr
        </CharString>
        <CharString name="dvDDH_DDHA">
          308 callsubr
          -62 -421 rmoveto
          -15 -31 -49 -34 -58 -9 -15 7 -14 8 -12 9 44 28 45 28 31 19 19 -7 14 -7 10 -11 rrcurveto
          359 790 275 callsubr
          25 -89 91 -66 96 -11 10 -8 9 -9 8 -11 177 callgsubr
          -11 8 -11 8 -11 6 76 27 84 53 4 52 207 callsubr
        </CharString>
        <CharString name="dvDDH_R">
          1 304 -69 rmoveto
          3 -47 10 -40 35 416 callgsubr
          rrcurveto
          -29 44 -8 29 57 vvcurveto
          19 callgsubr
          226 415 rmoveto
          -15 -41 -49 -35 -64 -11 -17 7 -17 10 -14 11 53 33 48 31 34 19 15 -4 14 -9 12 -11 rrcurveto
          345 424 rmoveto
          -777 hlineto
          -15 -101 callsubr
          285 hlineto
          37 -20 29 -19 24 -32 -4 -10 rcurveline
          -78 -47 -120 -45 -97 -46 -36 -28 -16 -39 1 -50 41 -104 123 -82 126 -6 rrcurveto
          97 198 90 83 43 -82 70 -120 -5 hvcurveto
          -53 -40 -68 -45 -65 -45 rrcurveto
          -11 16 -6 17 15 vvcurveto
          55 185 53 89 64 vhcurveto
          32 37 16 35 -13 37 -24 19 -26 15 -28 14 rrcurveto
          341 hlineto
          15 -106 callgsubr
        </CharString>
        <CharString name="dvDDH_RA">
          1 310 -120 rmoveto
          2 -71 32 -69 54 -55 rrcurveto
          47 6 23 20 37 vvcurveto
          -50 53 -14 42 -13 85 -38 35 -24 489 callsubr
          528 callgsubr
          55 52 rrcurveto
          159 296 -70 callsubr
        </CharString>
        <CharString name="dvDDH_VA">
          308 callsubr
          -116 -318 334 callsubr
          409 667 275 callsubr
          26 -93 98 -68 101 -6 rrcurveto
          16 19 3 6 22 hvcurveto
          -19 -98 -7 -4 -30 37 -36 39 -21 -1 rlinecurve
          -120 157 callgsubr
          68 183 25 21 17 23 2 23 rlinecurve
          207 callsubr
        </CharString>
        <CharString name="dvDDH_YA">
          686 1074 244 callgsubr
          -5 44 -58 33 -75 11 -105 -11 -133 -19 -120 -33 1 11 -3 9 -4 10 -21 16 -30 18 -32 16 rrcurveto
          693 hlineto
          -662 -387 rmoveto
          -22 -43 -52 -40 -71 -8 -20 8 -18 11 -16 11 53 34 56 34 36 22 21 -7 18 -9 15 -13 rrcurveto
          1002 445 -99 callsubr
          -1120 hlineto
          -15 -101 callsubr
          284 hlineto
          42 -23 34 -20 25 -34 -3 -9 rcurveline
          -81 -49 -127 -47 -104 -49 rrcurveto
          -32 -25 -20 -46 -52 vvcurveto
          39 -108 134 -84 123 -8 rrcurveto
          115 3 184 95 81 vvcurveto
          51 -81 61 -116 2 vhcurveto
          -57 -45 -73 -50 -70 -50 rrcurveto
          -17 20 -10 22 19 vvcurveto
          55 200 81 96 49 vhcurveto
          148 43 140 16 105 -9 195 callsubr
        </CharString>
        <CharString name="dvDDHxA">
          1 243 -23 425 callgsubr
          219 203 -70 callsubr
        </CharString>
        <CharString name="dvDD_DDA">
          -114 683 625 181 callgsubr
          56 1 60 6 56 9 22 -8 20 -9 14 -11 -3 -7 rcurveline
          -68 -21 -65 -6 -80 -8 -69 -36 -26 -66 31 -44 84 -26 93 -7 79 -23 2 -6 rcurveline
          -75 -33 -130 -7 -98 5 -37 -27 10 -56 60 -40 137 3 164 32 67 36 42 63 2 53 -42 25 -72 18 -99 11 -64 18 2 8 rcurveline
          71 9 80 12 58 20 39 30 21 57 -17 32 -16 12 -17 10 -19 8 39 11 33 11 23 12 234 callgsubr
        </CharString>
        <CharString name="dvDD_DDHA">
          -107 324 -165 rmoveto
          -15 -31 -49 -34 -58 -9 -15 7 -14 8 -12 9 44 28 45 28 31 19 19 -7 14 -7 10 -11 rrcurveto
          359 790 181 callgsubr
          46 1 49 4 48 7 15 -11 14 -12 11 -16 177 callgsubr
          -16 13 -16 11 -17 10 54 12 47 15 29 15 234 callgsubr
        </CharString>
        <CharString name="dvDD_R">
          -114 241 -69 rmoveto
          2 -47 10 -40 36 416 callgsubr
          -29 44 -9 29 1 57 19 callgsubr
          523 839 57 callsubr
        </CharString>
        <CharString name="dvDD_RA">
          -114 228 -107 rmoveto
          2 -71 32 -70 54 -54 rrcurveto
          47 6 23 19 38 vvcurveto
          -50 52 -14 43 -13 85 -39 35 -23 489 callsubr
          -92 1 -37 32 -37 79 8 32 89 32 56 55 51 rrcurveto
          462 729 -88 callsubr
        </CharString>
        <CharString name="dvDD_VA">
          -107 277 -62 334 callsubr
          416 667 rmoveto
          -685 -100 callsubr
          305 hlineto
          38 -11 36 -14 22 -18 -3 -6 rcurveline
          -67 -21 -65 -7 -78 -8 -70 -35 -25 -66 31 -44 83 -27 92 -7 79 -23 1 -6 rcurveline
          -74 -33 -129 -7 -97 4 -37 -26 10 -57 59 -40 71 2 78 9 68 14 -20 -112 rcurveline
          -7 -4 -30 37 -36 39 -21 -1 rlinecurve
          -120 157 callgsubr
          64 168 6 3 42 63 2 53 -42 25 rlinecurve
          -71 18 -98 11 -64 19 2 7 rcurveline
          70 9 79 12 58 21 39 30 21 56 -17 33 -12 9 -12 7 -12 7 rrcurveto
          223 -105 callsubr
        </CharString>
        <CharString name="dvDD_YA">
          565 974 342 rmoveto
          -51 -61 -83 -59 -51 -20 -33 4 -32 263 callgsubr
          39 -58 38 -64 11 -115 -13 -93 -23 -103 -29 3 19 0 18 -5 14 333 callgsubr
          -15 9 rrcurveto
          590 237 callsubr
          -1024 -100 callsubr
          289 hlineto
          35 -15 34 -14 21 -22 -4 -9 rcurveline
          -63 -25 -73 -12 -89 -12 -74 -44 -28 -77 30 -52 88 -33 99 -12 85 -29 2 -9 rcurveline
          -71 -41 -140 -17 -109 26 callsubr
          -40 31 -77 23 -106 14 -69 24 4 15 rcurveline
          70 17 85 25 87 22 124 31 127 26 79 -6 161 callgsubr
          -45 -64 -30 -131 67 -54 101 -11 40 31 rlinecurve
          25 -104 callgsubr
        </CharString>
        <CharString name="dvDDxA">
          -114 200 -22 424 callgsubr
          483 647 -88 callsubr
        </CharString>
        <CharString name="dvDH">
          -222 359 callsubr
          42 -314 rmoveto
          433 callsubr
          -25 callsubr
          92 21 127 62 32 81 -6 86 -52 43 -51 30 callsubr
          106 17 197 141 61 93 -55 47 rcurveline
          549 callgsubr
          -87 -99 -29 rrcurveto
          439 437 rmoveto
          -165 hlineto
          -17 -101 callsubr
          166 -105 callsubr
        </CharString>
        <CharString name="dvDHA">
          102 359 callsubr
          711 110 -99 callsubr
          -59 hlineto
          -17 -101 callsubr
          63 hlineto
          -42 -188 549 callgsubr
          -87 -99 -29 rlinecurve
          -9 13 45 44 45 39 59 38 rlinecurve
          -25 callsubr
          92 21 127 62 32 81 -6 86 -52 43 -51 30 callsubr
          81 513 callgsubr
          11 -12 rcurveline
          -44 -55 -32 -142 67 -54 101 -11 41 31 -102 callgsubr
        </CharString>
        <CharString name="dvDH_MA">
          510 667 265 callgsubr
          -72 -29 -71 -26 -57 -18 -6 -3 -6 -5 -5 -4 rrcurveto
          0 vlineto
          -49 -42 -76 -49 -79 -24 -9 13 rcurveline
          433 callsubr
          -25 callsubr
          74 17 97 43 51 59 rrcurveto
          219 hlineto
          -39 -372 100 callgsubr
          -441 311 15 callsubr
          1118 110 rmoveto
          -859 hlineto
          -10 77 -50 39 -48 30 callsubr
          66 11 86 52 66 51 33 -46 55 -37 53 -13 184 callgsubr
          87 43 20 42 20 41 22 10 -6 rcurveline
          -87 -382 67 -54 101 -11 40 31 rlinecurve
          11 338 76 113 -28 -38 callgsubr
        </CharString>
        <CharString name="dvDH_NA">
          461 359 callsubr
          397 -325 96 callgsubr
          -810 hlineto
          -10 77 -50 39 -48 30 callsubr
          65 10 84 51 66 51 37 -49 61 -30 71 -14 40 callgsubr
          -126 384 callgsubr
          -6 -4 -6 -5 -5 -6 -49 -42 -75 -47 -77 -24 -9 13 rcurveline
          433 callsubr
          -25 callsubr
          74 17 97 43 51 59 rrcurveto
          823 hlineto
          15 -106 callgsubr
        </CharString>
        <CharString name="dvDH_N_YA">
          925 1341 376 -53 callgsubr
          -919 -270 rmoveto
          -6 -3 -5 -3 -6 -3 -5 -3 rlinecurve
          -62 -35 -66 -38 -73 -24 -9 13 rcurveline
          433 callsubr
          -25 callsubr
          74 17 97 43 51 59 rrcurveto
          506 -60 callgsubr
          -10 -78 481 callgsubr
          -43 -134 35 -217 -1 -120 -58 rrcurveto
          104 -139 74 callgsubr
          -33 1 -34 -9 -32 rrcurveto
          -408 347 15 callsubr
          1534 110 -56 callgsubr
          -947 hlineto
          -10 77 -50 39 -48 30 callsubr
          59 10 69 38 64 41 rrcurveto
          -2 vlineto
          33 callgsubr
        </CharString>
        <CharString name="dvDH_R">
          -223 180 522 rmoveto
          34 50 54 49 47 26 15 -2 7 -11 2 -15 -18 -38 -56 -40 -58 -14 rrcurveto
          319 -113 rmoveto
          549 callgsubr
          -86 -99 -29 441 callsubr
          45 38 56 36 -3 52 -25 32 -63 20 -35 -16 -52 -20 -42 -9 -12 12 -5 12 -1 15 1 7 3 7 3 8 52 -19 rcurveline
          99 21 98 59 47 76 -6 86 -52 43 -51 546 callgsubr
          2 -60 34 -33 68 -37 50 8 49 17 39 16 5 -6 rcurveline
          -72 -56 -109 -11 -18 -61 rrcurveto
          -52 70 -62 84 -18 vhcurveto
          83 19 131 91 82 81 9 -16 rcurveline
          -84 -118 -150 -81 -144 -50 -17 -45 24 -39 63 -22 163 111 118 89 123 170 -55 57 rcurveline
          4 7 5 6 3 6 rrcurveto
          95 255 rmoveto
          -157 hlineto
          -17 -101 callsubr
          158 -105 callsubr
        </CharString>
        <CharString name="dvDH_RA">
          103 180 522 64 callgsubr
          -157 -29 -133 -162 -34 -90 2 -60 34 -33 68 -37 50 8 49 17 39 16 5 -6 rcurveline
          -72 -56 -109 -11 -18 -61 rrcurveto
          -52 70 -62 84 -18 vhcurveto
          83 13 136 95 85 86 7 -8 rcurveline
          -40 -64 -81 -70 -146 -89 -117 -37 53 callgsubr
          24 408 -82 callgsubr
          132 hlineto
          16 -50 callsubr
          endchar
        </CharString>
        <CharString name="dvDH_VA">
          436 848 319 -5 callsubr
          -683 168 15 callsubr
          1044 110 -31 callgsubr
          -394 hlineto
          -17 -101 callsubr
          402 hlineto
          -23 135 callsubr
          -96 -94 -61 -80 550 callsubr
          549 callgsubr
          -87 -99 -29 rlinecurve
          -9 13 45 44 45 39 59 38 rlinecurve
          -25 callsubr
          92 21 127 62 32 81 -6 86 -52 43 -51 30 callsubr
          72 12 113 68 85 72 11 -87 85 200 callgsubr
          4 callsubr
          67 -54 101 -11 41 31 -102 callgsubr
        </CharString>
        <CharString name="dvDH_YA">
          465 882 281 callsubr
          -77 -55 -45 callsubr
          -484 -267 rmoveto
          -52 -42 -76 -48 -71 -22 -9 13 rcurveline
          433 callsubr
          -25 callsubr
          74 17 97 43 51 59 rrcurveto
          47 111 callgsubr
          -11 -90 -170 -46 -71 -52 rrcurveto
          -270 213 15 callsubr
          1074 110 -68 callgsubr
          -487 hlineto
          -10 77 -50 39 -48 30 callsubr
          71 13 87 52 66 52 rrcurveto
          -51 40 81 -45 52 hhcurveto
          55 129 82 84 83 hvcurveto
          12 -12 -45 -64 -32 -140 67 -54 101 -11 40 31 rlinecurve
          25 -104 callgsubr
        </CharString>
        <CharString name="dvD_BA">
          45 callsubr
          45 56 rrcurveto
          0 vlineto
          36 45 27 42 33 33 -21 callsubr
        </CharString>
        <CharString name="dvD_BHA">
          -35 446 170 rmoveto
          -13 -33 -23 -62 -24 -66 -34 -16 -40 -16 -42 -14 9 32 8 32 7 31 13 -2 13 -2 14 -1 37 47 32 37 31 39 rrcurveto
          -348 -390 rmoveto
          -19 12 -14 15 -13 21 28 8 28 8 27 8 -7 -21 -10 -22 -11 -25 rrcurveto
          95 297 rmoveto
          -4 -23 -6 -25 -7 -23 -69 -12 rcurveline
          -10 7 -8 13 -2 14 28 16 43 19 29 17 rrcurveto
          580 535 rmoveto
          -756 -100 callsubr
          323 hlineto
          39 -20 32 -22 17 -21 -4 -9 rcurveline
          -110 -107 -237 8 -133 vvcurveto
          -48 22 -43 38 -34 vhcurveto
          -32 -17 -33 -14 -27 -9 -19 -11 -13 -31 -5 -23 8 -37 36 -36 52 -21 89 31 rcurveline
          4 -8 -20 -21 -2 -5 -2 -6 -1 -5 rlinecurve
          -57 -16 -53 -12 -40 -8 -40 -10 -14 -41 -2 -26 16 -43 47 -46 47 -19 40 -9 59 9 36 31 23 47 22 57 19 59 38 13 37 14 37 15 -23 -64 -22 -63 -12 -43 rrcurveto
          11 -45 63 -30 86 9 28 161 55 225 42 123 434 callsubr
          -26 -32 -42 -43 -43 -41 -48 9 -43 33 -9 46 79 54 115 44 58 42 43 37 19 54 -18 40 rrcurveto
          -17 16 -20 14 -21 13 rrcurveto
          294 -105 callsubr
        </CharString>
</ttFont>
